<svg width="48" height="48" viewBox="0 0 48 48" fill="none" xmlns="http://www.w3.org/2000/svg">
<mask id="mask0_549_34" style="mask-type:alpha" maskUnits="userSpaceOnUse" x="0" y="0" width="48" height="48">
<path d="M0 0V48H48V0H0ZM20.28 38.7333V24.84H17.6133V20H20.28V19.4133C20.2485 18.1182 20.2974 16.8224 20.4267 15.5333C20.5553 14.233 21.1827 13.033 22.1771 12.1852C23.1715 11.3375 24.4557 10.9079 25.76 10.9867C27.2533 10.8933 28.76 10.9867 30.2533 10.9867C30.3154 10.9808 30.3779 10.9808 30.44 10.9867V15.72H27.6267C26.4267 15.72 26.0667 16.08 26.0533 17.28V19.9467H30.4667C30.2933 21.5867 30.1333 23.2 29.96 24.84H26.0667V38.7333H20.28Z" fill="#3F79A8"/>
</mask>
<g mask="url(#mask0_549_34)">
<rect width="48" height="48" rx="8" fill="#3F79A8"/>
</g>
</svg>
