<svg width="48" height="48" viewBox="0 0 48 48" fill="none" xmlns="http://www.w3.org/2000/svg">
<mask id="mask0_549_39" style="mask-type:alpha" maskUnits="userSpaceOnUse" x="0" y="0" width="48" height="48">
<path d="M24 19.8666C23.1799 19.8692 22.379 20.115 21.6985 20.5728C21.0181 21.0307 20.4887 21.68 20.1773 22.4387C19.8658 23.1974 19.7864 24.0314 19.949 24.8353C20.1116 25.6391 20.5089 26.3767 21.0907 26.9548C21.6725 27.5328 22.4126 27.9254 23.2175 28.0828C24.0224 28.2402 24.8558 28.1554 25.6125 27.8391C26.3692 27.5228 27.0151 26.9893 27.4686 26.3059C27.922 25.6225 28.1626 24.82 28.16 23.9999C28.153 22.9012 27.7116 21.85 26.9322 21.0756C26.1528 20.3012 25.0987 19.8666 24 19.8666Z" fill="#3F79A8"/>
<path d="M28.8532 13.6535H19.1599C18.4314 13.6294 17.7057 13.755 17.0276 14.0224C16.3495 14.2898 15.7335 14.6933 15.2174 15.2081C14.7014 15.7229 14.2963 16.338 14.0273 17.0154C13.7583 17.6928 13.631 18.4182 13.6532 19.1468V28.8535C13.6145 29.5891 13.7314 30.3246 13.9961 31.012C14.2609 31.6994 14.6676 32.3233 15.1897 32.8429C15.7119 33.3625 16.3377 33.7662 17.0264 34.0277C17.7151 34.2891 18.4511 34.4024 19.1866 34.3601C20.7866 34.3601 22.3866 34.3601 23.9866 34.3601C25.5866 34.3601 27.2532 34.3601 28.8932 34.3601C29.6202 34.3943 30.3463 34.2764 31.0251 34.0138C31.7038 33.7511 32.3202 33.3497 32.8348 32.835C33.3494 32.3204 33.7509 31.704 34.0135 31.0253C34.2761 30.3465 34.3941 29.6204 34.3599 28.8935C34.3599 25.6401 34.3599 22.3868 34.3599 19.1335C34.3944 18.4024 34.2754 17.6722 34.0105 16.9899C33.7456 16.3076 33.3407 15.6884 32.822 15.1721C32.3032 14.6559 31.682 14.254 30.9985 13.9924C30.3149 13.7309 29.5841 13.6154 28.8532 13.6535ZM23.9999 30.8268C22.6497 30.8268 21.3298 30.4264 20.2072 29.6763C19.0846 28.9262 18.2096 27.86 17.6929 26.6126C17.1762 25.3652 17.041 23.9925 17.3044 22.6683C17.5678 21.3441 18.218 20.1277 19.1727 19.1729C20.1274 18.2182 21.3438 17.568 22.6681 17.3046C23.9923 17.0412 25.3649 17.1764 26.6124 17.6931C27.8598 18.2098 28.9259 19.0848 29.6761 20.2074C30.4262 21.3301 30.8266 22.6499 30.8266 24.0001C30.8195 25.8085 30.0981 27.5408 28.8193 28.8195C27.5406 30.0983 25.8083 30.8198 23.9999 30.8268ZM31.1599 17.9335C30.9998 17.9508 30.8379 17.9342 30.6847 17.8848C30.5314 17.8354 30.3903 17.7543 30.2705 17.6468C30.1507 17.5393 30.0549 17.4077 29.9893 17.2607C29.9237 17.1136 29.8898 16.9545 29.8898 16.7935C29.8898 16.6325 29.9237 16.4733 29.9893 16.3262C30.0549 16.1792 30.1507 16.0476 30.2705 15.9401C30.3903 15.8326 30.5314 15.7515 30.6847 15.7021C30.8379 15.6527 30.9998 15.6361 31.1599 15.6535C31.32 15.6361 31.4819 15.6527 31.6351 15.7021C31.7884 15.7515 31.9295 15.8326 32.0493 15.9401C32.1691 16.0476 32.2649 16.1792 32.3305 16.3262C32.3961 16.4733 32.43 16.6325 32.43 16.7935C32.43 16.9545 32.3961 17.1136 32.3305 17.2607C32.2649 17.4077 32.1691 17.5393 32.0493 17.6468C31.9295 17.7543 31.7884 17.8354 31.6351 17.8848C31.4819 17.9342 31.32 17.9508 31.1599 17.9335Z" fill="#3F79A8"/>
<path d="M0 0V48H48V0H0ZM37.3333 29.0533C37.3422 30.1443 37.1337 31.2261 36.7199 32.2356C36.3061 33.245 35.6954 34.1619 34.9233 34.9328C34.1512 35.7036 33.2333 36.3129 32.2232 36.725C31.2131 37.1372 30.1309 37.344 29.04 37.3333C25.6933 37.3333 22.3733 37.3333 19.0133 37.3333C17.9162 37.3494 16.8269 37.1458 15.8096 36.7345C14.7923 36.3233 13.8675 35.7127 13.0898 34.9386C12.312 34.1646 11.697 33.2428 11.2808 32.2275C10.8647 31.2122 10.6559 30.1239 10.6667 29.0267C10.6667 25.6756 10.6667 22.3333 10.6667 19C10.6523 17.9005 10.8585 16.8094 11.273 15.7909C11.6875 14.7725 12.302 13.8475 13.0802 13.0707C13.8583 12.2938 14.7842 11.6808 15.8033 11.2679C16.8224 10.855 17.9139 10.6505 19.0133 10.6667H28.88C30.0003 10.6334 31.1155 10.8297 32.1571 11.2436C33.1986 11.6575 34.1444 12.2801 34.9363 13.0732C35.7282 13.8664 36.3493 14.8132 36.7616 15.8554C37.1738 16.8976 37.3684 18.0131 37.3333 19.1333C37.3333 20.76 37.3333 22.4 37.3333 24.04C37.3333 25.68 37.3333 27.3733 37.3333 29.0533Z" fill="#3F79A8"/>
</mask>
<g mask="url(#mask0_549_39)">
<rect y="0.0563965" width="48" height="48" rx="8" fill="#3F79A8"/>
</g>
</svg>
