<svg width="48" height="48" viewBox="0 0 48 48" fill="none" xmlns="http://www.w3.org/2000/svg">
<mask id="mask0_549_47" style="mask-type:alpha" maskUnits="userSpaceOnUse" x="0" y="0" width="48" height="48">
<path d="M0 0V48H48V0H0ZM17.9067 34.9333C17.9067 35.7333 17.6267 36 16.8267 36.0133H13.88C13.1067 36.0133 12.84 35.7467 12.8267 34.9733V20.9733C12.8267 20.1867 13.0933 19.92 13.8667 19.92H16.8667C17.6267 19.92 17.9067 20.2133 17.9067 20.9733V34.9333ZM15.3333 18.56C14.4634 18.56 13.6291 18.2144 13.014 17.5993C12.3989 16.9842 12.0533 16.1499 12.0533 15.28C12.0533 14.4101 12.3989 13.5758 13.014 12.9607C13.6291 12.3456 14.4634 12 15.3333 12C16.2032 12 17.0375 12.3456 17.6526 12.9607C18.2678 13.5758 18.6133 14.4101 18.6133 15.28C18.6133 16.1499 18.2678 16.9842 17.6526 17.5993C17.0375 18.2144 16.2032 18.56 15.3333 18.56ZM35.92 35.04C35.92 35.76 35.68 36 34.9733 36.0133H31.6533C31 36.0133 30.7467 35.76 30.7467 35.1067C30.7467 32.76 30.7467 30.4267 30.7467 28.08C30.7407 27.3162 30.6467 26.5556 30.4667 25.8133C30.3836 25.3622 30.1546 24.9508 29.815 24.6424C29.4753 24.3341 29.0437 24.1458 28.5867 24.1067C28.0753 23.998 27.5427 24.0528 27.0641 24.2633C26.5856 24.4739 26.1854 24.8295 25.92 25.28C25.4691 26.0325 25.2382 26.8963 25.2533 27.7733C25.2533 30.1867 25.2533 32.5867 25.2533 35C25.2533 35.8 25.0267 36.0133 24.2267 36.0267H21.12C20.44 36.0267 20.1733 35.76 20.1733 35.08V20.8667C20.1733 20.1867 20.4267 19.9333 21.1067 19.92H24.3333C25.0133 19.92 25.2533 20.1733 25.2667 20.8667V21.8533C27.2133 19.4667 29.6667 19.32 32.24 20.0267C33.1462 20.3038 33.95 20.8428 34.5503 21.576C35.1506 22.3092 35.5205 23.2036 35.6133 24.1467C35.7975 25.1453 35.8956 26.1579 35.9067 27.1733C36 29.8 36 32.4267 35.92 35.04Z" fill="#3F79A8"/>
</mask>
<g mask="url(#mask0_549_47)">
<rect y="0.0563965" width="48" height="48" rx="8" fill="#3F79A8"/>
</g>
</svg>
