<svg width="48" height="48" viewBox="0 0 48 48" fill="none" xmlns="http://www.w3.org/2000/svg">
<mask id="mask0_549_29" style="mask-type:alpha" maskUnits="userSpaceOnUse" x="0" y="0" width="48" height="48">
<path d="M0 0V48H48V0H0ZM18.56 34.6667C16.0237 34.4612 13.5401 33.8302 11.2133 32.8L10.7733 32.56C13.4818 32.6821 16.1558 31.9141 18.3867 30.3733C15.1467 29.2267 13.7733 28.12 13.5867 26.4533H15.76C15.76 26.4533 15.76 26.36 15.76 26.32C13.7067 25.16 11.72 24 11.68 21.0667C12.4628 21.4748 13.349 21.6419 14.2267 21.5467C12.1333 19.5733 11.32 17.3333 12.5467 14.6667C15.8267 17.4933 19.0933 20.1467 23.68 19.88C23.7867 18.9467 23.8 18.12 23.96 17.32C24.8 13.24 29.96 12.32 32.4267 14.5333C32.6431 14.7388 32.9103 14.883 33.2009 14.9509C33.4915 15.0189 33.7949 15.0082 34.08 14.92C34.5341 14.8329 34.9801 14.708 35.4133 14.5467C35.8133 14.3867 36.2 14.16 36.6533 13.9467C36.3154 15.0554 35.5855 16.0032 34.6 16.6133V16.7733L37.2667 16.32C36.7994 17.2018 36.0542 17.9049 35.1467 18.32C35.005 18.3735 34.8863 18.4746 34.8109 18.6059C34.7355 18.7372 34.7081 18.8907 34.7333 19.04C34.8584 22.024 34.1101 24.9796 32.5802 27.5445C31.0502 30.1095 28.8051 32.1723 26.12 33.48C23.7414 34.5104 21.1399 34.9188 18.56 34.6667V34.6667Z" fill="#3F79A8"/>
</mask>
<g mask="url(#mask0_549_29)">
<rect width="48" height="48" rx="8" fill="#3F79A8"/>
</g>
</svg>
