<svg width="372" height="281" viewBox="0 0 372 281" fill="none" xmlns="http://www.w3.org/2000/svg">
<path d="M189.429 280.16C266.466 280.16 328.918 217.812 328.918 140.901C328.918 63.9905 266.466 1.64209 189.429 1.64209C112.391 1.64209 49.9399 63.9905 49.9399 140.901C49.9399 217.812 112.391 280.16 189.429 280.16Z" fill="#DBE8EC"/>
<path d="M371.674 113.764V99.7611C371.674 97.0909 370.612 94.5301 368.72 92.642C366.829 90.7539 364.264 89.6931 361.59 89.6931H325.995C323.32 89.6931 320.755 88.6324 318.864 86.7443C316.972 84.8562 315.91 82.2954 315.91 79.6252V65.6225C315.91 62.9523 316.972 60.3915 318.864 58.5034C320.755 56.6152 323.32 55.5545 325.995 55.5545H327.118C328.443 55.5545 329.754 55.2941 330.978 54.7881C332.201 54.2822 333.313 53.5406 334.249 52.6057C335.186 51.6708 335.928 50.5609 336.435 49.3394C336.942 48.1179 337.203 46.8087 337.203 45.4866V31.4838C337.203 30.1617 336.942 28.8525 336.435 27.631C335.928 26.4095 335.186 25.2996 334.249 24.3647C333.313 23.4298 332.201 22.6882 330.978 22.1823C329.754 21.6763 328.443 21.4159 327.118 21.4159H68.5004C65.8258 21.4159 63.2608 22.4766 61.3696 24.3647C59.4783 26.2528 58.4159 28.8137 58.4159 31.4838V45.4866C58.4159 46.8087 58.6767 48.1179 59.1835 49.3394C59.6903 50.5609 60.4331 51.6708 61.3696 52.6057C62.306 53.5406 63.4177 54.2822 64.6412 54.7881C65.8648 55.2941 67.1761 55.5545 68.5004 55.5545C69.8248 55.5545 71.1361 55.8149 72.3596 56.3209C73.5831 56.8269 74.6949 57.5685 75.6313 58.5034C76.5677 59.4382 77.3106 60.5481 77.8174 61.7696C78.3242 62.9911 78.585 64.3003 78.585 65.6225V79.6252C78.585 80.9473 78.3242 82.2565 77.8174 83.478C77.3106 84.6995 76.5677 85.8094 75.6313 86.7443C74.6949 87.6792 73.5831 88.4208 72.3596 88.9268C71.1361 89.4327 69.8248 89.6932 68.5004 89.6931H29.5025C26.8279 89.6931 24.2629 90.7539 22.3717 92.642C20.4804 94.5301 19.418 97.0909 19.418 99.7611V113.764C19.418 116.434 20.4805 118.995 22.3717 120.883C24.2629 122.771 26.8279 123.832 29.5025 123.832H44.8047C46.129 123.832 47.4404 124.092 48.6639 124.598C49.8874 125.104 50.9991 125.846 51.9356 126.781C52.872 127.716 53.6148 128.825 54.1216 130.047C54.6284 131.268 54.8893 132.578 54.8893 133.9V147.903C54.8893 149.225 54.6284 150.534 54.1216 151.755C53.6148 152.977 52.872 154.087 51.9356 155.022C50.9991 155.957 49.8874 156.698 48.6639 157.204C47.4404 157.71 46.129 157.97 44.8047 157.97H44.7677C43.4434 157.97 42.132 158.231 40.9085 158.737C39.685 159.243 38.5733 159.984 37.6369 160.919C36.7004 161.854 35.9576 162.964 35.4508 164.186C34.944 165.407 34.6832 166.716 34.6832 168.038V182.041C34.6832 184.711 35.7457 187.272 37.6369 189.16C39.5281 191.048 42.0931 192.109 44.7677 192.109H46.9816C49.6562 192.109 52.2213 193.17 54.1125 195.058C56.0037 196.946 57.0662 199.507 57.0662 202.177V216.18C57.0662 217.502 56.8054 218.811 56.2986 220.033C55.7918 221.254 55.049 222.364 54.1125 223.299C53.1761 224.234 52.0644 224.975 50.8408 225.481C49.6173 225.987 48.306 226.248 46.9816 226.248H10.6476C7.97296 226.248 5.40791 227.308 3.51669 229.197C1.62546 231.085 0.562988 233.646 0.562988 236.316V250.318C0.562988 251.641 0.823832 252.95 1.33063 254.171C1.83743 255.393 2.58025 256.503 3.51669 257.438C4.45313 258.372 5.56484 259.114 6.78836 259.62C8.01187 260.126 9.32323 260.386 10.6476 260.386H332.532C333.857 260.386 335.168 260.126 336.392 259.62C337.615 259.114 338.727 258.372 339.663 257.438C340.6 256.503 341.343 255.393 341.849 254.171C342.356 252.95 342.617 251.641 342.617 250.318V236.316C342.617 233.646 341.555 231.085 339.663 229.197C337.772 227.308 335.207 226.248 332.532 226.248H323.789C322.464 226.248 321.153 225.987 319.929 225.481C318.706 224.975 317.594 224.234 316.658 223.299C315.721 222.364 314.979 221.254 314.472 220.033C313.965 218.811 313.704 217.502 313.704 216.18V202.177C313.704 200.855 313.965 199.546 314.472 198.324C314.979 197.103 315.721 195.993 316.658 195.058C317.594 194.123 318.706 193.381 319.929 192.875C321.153 192.369 322.464 192.109 323.789 192.109H344.406C345.73 192.109 347.041 191.849 348.265 191.343C349.488 190.837 350.6 190.095 351.537 189.16C352.473 188.225 353.216 187.115 353.723 185.894C354.229 184.672 354.49 183.363 354.49 182.041V168.038C354.49 166.716 354.229 165.407 353.723 164.186C353.216 162.964 352.473 161.854 351.537 160.919C350.6 159.984 349.488 159.243 348.265 158.737C347.041 158.231 345.73 157.97 344.406 157.97H338.151C335.477 157.97 332.912 156.91 331.021 155.022C329.129 153.134 328.067 150.573 328.067 147.903V133.9C328.067 131.23 329.129 128.669 331.021 126.781C332.912 124.893 335.477 123.832 338.151 123.832H361.59C364.264 123.832 366.829 122.771 368.72 120.883C370.612 118.995 371.674 116.434 371.674 113.764Z" fill="#DBE8EC"/>
<path d="M246.514 17.6248H273.383" stroke="#B9D4DB" stroke-width="3" stroke-miterlimit="10" stroke-linecap="round"/>
<path d="M246.514 25.3563H273.383" stroke="#B9D4DB" stroke-width="3" stroke-miterlimit="10" stroke-linecap="round"/>
<path d="M246.514 33.0881H273.383" stroke="#B9D4DB" stroke-width="3" stroke-miterlimit="10" stroke-linecap="round"/>
<path d="M265.128 232.819H291.997" stroke="#B9D4DB" stroke-width="3" stroke-miterlimit="10" stroke-linecap="round"/>
<path d="M265.128 240.551H291.997" stroke="#B9D4DB" stroke-width="3" stroke-miterlimit="10" stroke-linecap="round"/>
<path d="M265.128 248.283H291.997" stroke="#B9D4DB" stroke-width="3" stroke-miterlimit="10" stroke-linecap="round"/>
<path d="M42.1387 104.936H69.0082" stroke="#B9D4DB" stroke-width="3" stroke-miterlimit="10" stroke-linecap="round"/>
<path d="M42.1387 112.668H69.0082" stroke="#B9D4DB" stroke-width="3" stroke-miterlimit="10" stroke-linecap="round"/>
<path d="M42.1387 120.4H69.0082" stroke="#B9D4DB" stroke-width="3" stroke-miterlimit="10" stroke-linecap="round"/>
<path d="M337.032 207.264L232.923 217.721L128.814 207.264C128.377 207.22 127.972 207.016 127.677 206.691C127.382 206.365 127.219 205.942 127.219 205.504L124.766 198.34L127.219 80.9779L232.923 91.5946L338.627 80.9779L340.959 199.296L338.627 205.504C338.627 205.942 338.463 206.365 338.169 206.691C337.874 207.016 337.469 207.22 337.032 207.264V207.264Z" fill="#E06714"/>
<path d="M340.959 199.296L232.923 209.705L124.766 198.34L127.219 74.9182C127.219 74.6709 127.271 74.4263 127.371 74.2003C127.472 73.9742 127.619 73.7717 127.802 73.6058C127.986 73.4399 128.203 73.3143 128.438 73.2371C128.673 73.1599 128.922 73.1328 129.169 73.1576L232.923 83.5784L336.677 73.1576C336.923 73.1328 337.172 73.1599 337.407 73.2372C337.643 73.3144 337.859 73.44 338.043 73.6059C338.227 73.7717 338.374 73.9743 338.474 74.2003C338.575 74.4263 338.627 74.6709 338.627 74.9182L340.959 199.296Z" fill="#EE781D"/>
<path d="M232.072 201.423L335.961 191.333L331.628 73.6642L239.827 82.8848L232.072 201.423Z" fill="#E06714"/>
<path d="M232.072 69.7767L322.888 59.5847L327.094 192.194L232.072 201.423V69.7767Z" fill="#E06714"/>
<path d="M237.176 68.9274L141.681 67.2288L146.786 196.327L232.072 201.423L237.176 68.9274Z" fill="#E06714"/>
<path d="M232.922 62.7698L323.738 52.5778L330.119 185.498L232.922 194.417V62.7698Z" fill="#F9AE2B"/>
<path d="M232.922 190.016V194.416L330.119 185.498L329.909 181.117L232.922 190.016Z" fill="#E59413"/>
<path d="M232.922 62.7696L137.427 61.0709L142.532 190.17L232.922 194.416V62.7696Z" fill="#F9AE2B"/>
<path d="M142.532 190.17L232.922 194.417V189.883L142.532 185.636V190.17Z" fill="#E59413"/>
<path d="M148.545 147.097C148.818 157.475 152.466 167.482 158.938 175.607C165.409 183.732 174.353 189.535 184.419 192.138L224.203 194.007V68.2905C224.203 68.2905 194.143 70.4213 162.974 61.5254L146.296 61.2289L148.545 147.097Z" fill="#E59413"/>
<path d="M283.649 189.762C293.469 182.767 301.37 173.42 306.627 162.58C311.883 151.741 314.325 139.755 313.73 127.727L310.086 54.1099L288.061 56.5816C267.927 66.7584 243.307 73.1367 243.307 73.1367V193.464L283.649 189.762Z" fill="#E59413"/>
<path d="M232.923 62.7698C232.923 62.7698 283.754 49.6051 299.067 30.9198L303.346 117.36C304.176 134.116 299.106 150.634 289.016 164.05C278.926 177.466 264.452 186.935 248.103 190.814L232.923 194.417V62.7698Z" fill="#F9AE2B"/>
<path d="M246.436 62.7696L232.923 194.416C232.923 194.416 250.13 193.118 251.479 192.714C266.589 178.876 275.191 155.626 273.141 134.972L264.905 52.0034C259.437 54.2436 254.077 56.1826 249.353 57.7739C247.62 60.7819 246.436 62.7696 246.436 62.7696Z" fill="#E59413"/>
<path d="M232.923 62.7698C232.923 62.7698 247.598 38.1391 249.3 30.9198L259.628 134.972C260.757 146.345 258.886 157.815 254.201 168.243C249.517 178.671 242.181 187.694 232.923 194.417V194.417L232.923 62.7698Z" fill="#F9AE2B"/>
<path d="M232.923 62.7697C232.923 62.7697 191.024 65.7423 154.868 50.0297L157.265 141.577C157.55 152.465 161.549 162.93 168.601 171.242C175.653 179.553 185.335 185.212 196.046 187.284L232.923 194.416V62.7697Z" fill="#F9AE2B"/>
<path d="M232.923 62.7698C233.656 73.7403 234.04 84.7109 234.3 95.6815C234.464 101.167 234.5 106.652 234.596 112.137L234.694 128.593L234.601 145.049C234.502 150.534 234.471 156.02 234.306 161.505C234.046 172.475 233.661 183.446 232.923 194.417C232.185 183.446 231.799 172.475 231.54 161.505C231.375 156.02 231.343 150.534 231.244 145.049L231.151 128.593L231.249 112.137C231.345 106.652 231.382 101.167 231.545 95.6815C231.806 84.7109 232.189 73.7403 232.923 62.7698Z" fill="#E59413"/>
<path d="M171.024 81.309C175.493 81.6864 179.876 82.2235 184.257 82.7373L197.349 84.3026C201.707 84.8147 206.062 85.2423 210.433 85.6691C214.81 86.085 219.184 86.3424 223.663 86.7235C219.299 87.7761 214.835 88.3551 210.346 88.4504C205.869 88.5479 201.391 88.3363 196.943 87.817C192.506 87.2973 188.103 86.5121 183.76 85.4656C179.404 84.4445 175.143 83.0539 171.024 81.309Z" fill="#E59413"/>
<path d="M171.024 100.203C175.493 100.58 179.876 101.117 184.257 101.631L197.349 103.196C201.707 103.708 206.062 104.136 210.433 104.563C214.81 104.979 219.184 105.236 223.663 105.617C219.299 106.67 214.835 107.249 210.346 107.344C205.869 107.442 201.391 107.23 196.943 106.711C192.506 106.191 188.103 105.406 183.76 104.359C179.404 103.338 175.143 101.948 171.024 100.203V100.203Z" fill="#E59413"/>
<path d="M171.024 119.096C175.493 119.474 179.876 120.011 184.257 120.525L197.349 122.09C201.707 122.602 206.062 123.03 210.433 123.456C214.81 123.872 219.184 124.13 223.663 124.511C219.299 125.563 214.835 126.142 210.346 126.238C205.869 126.335 201.391 126.124 196.943 125.604C192.506 125.085 188.103 124.299 183.76 123.253C179.404 122.232 175.143 120.841 171.024 119.096V119.096Z" fill="#E59413"/>
<path d="M171.024 137.99C175.493 138.367 179.876 138.904 184.257 139.418L197.349 140.984C201.707 141.496 206.062 141.923 210.433 142.35C214.81 142.766 219.184 143.023 223.663 143.405C219.299 144.457 214.835 145.036 210.346 145.131C205.869 145.229 201.391 145.017 196.943 144.498C192.506 143.978 188.103 143.193 183.76 142.147C179.404 141.126 175.143 139.735 171.024 137.99V137.99Z" fill="#E59413"/>
<path d="M171.024 156.884C175.493 157.261 179.876 157.798 184.257 158.312L197.349 159.877C201.707 160.389 206.062 160.817 210.433 161.244C214.81 161.66 219.184 161.917 223.663 162.298C219.299 163.351 214.835 163.93 210.346 164.025C205.869 164.123 201.391 163.911 196.943 163.392C192.506 162.872 188.103 162.087 183.76 161.04C179.404 160.019 175.143 158.629 171.024 156.884V156.884Z" fill="#E59413"/>
<path d="M296.164 83.8373L275.518 87.3132C275.29 87.3575 275.055 87.3564 274.827 87.31C274.599 87.2636 274.382 87.1729 274.189 87.0429C273.996 86.9129 273.831 86.7462 273.702 86.5524C273.574 86.3586 273.485 86.1415 273.441 85.9133L272.756 71.025C272.712 70.7969 272.713 70.5623 272.759 70.3346C272.806 70.1069 272.897 69.8906 273.027 69.698C273.157 69.5054 273.324 69.3403 273.518 69.2121C273.712 69.0839 273.93 68.9951 274.158 68.9508L295.068 64.6605C295.297 64.6162 295.532 64.6173 295.76 64.6637C295.988 64.7101 296.205 64.8008 296.398 64.9308C296.59 65.0608 296.756 65.2275 296.884 65.4213C297.013 65.6151 297.102 65.8322 297.146 66.0604L297.566 81.7631C297.655 82.2238 297.558 82.7011 297.295 83.0901C297.032 83.4791 296.625 83.7479 296.164 83.8373Z" fill="#EE781D"/>
<path d="M284.443 120.518L263.798 123.994C263.569 124.039 263.334 124.038 263.106 123.991C262.878 123.945 262.661 123.854 262.469 123.724C262.276 123.594 262.11 123.427 261.982 123.234C261.853 123.04 261.764 122.823 261.72 122.595L261.035 107.706C260.946 107.245 261.043 106.768 261.306 106.379C261.569 105.99 261.976 105.721 262.438 105.632L283.348 101.342C283.576 101.297 283.811 101.298 284.039 101.345C284.267 101.391 284.484 101.482 284.677 101.612C284.87 101.742 285.035 101.909 285.164 102.102C285.292 102.296 285.381 102.513 285.425 102.741L285.845 118.444C285.889 118.672 285.888 118.907 285.842 119.135C285.795 119.362 285.704 119.579 285.574 119.771C285.444 119.964 285.277 120.129 285.083 120.257C284.889 120.385 284.671 120.474 284.443 120.518Z" fill="#EE781D"/>
<path d="M262.438 105.632C261.976 105.721 261.569 105.99 261.306 106.379C261.043 106.768 260.946 107.245 261.035 107.706L261.72 122.595C261.81 123.055 262.079 123.462 262.468 123.724C262.858 123.987 263.336 124.084 263.798 123.994L271.915 122.628L270.073 104.066L262.438 105.632Z" fill="#CE800D"/>
<path d="M292.523 157.2L271.878 160.676C271.417 160.765 270.939 160.668 270.549 160.405C270.159 160.143 269.89 159.736 269.801 159.276L269.116 144.387C269.072 144.159 269.073 143.925 269.119 143.697C269.166 143.469 269.257 143.253 269.387 143.06C269.517 142.868 269.684 142.703 269.878 142.574C270.072 142.446 270.29 142.358 270.518 142.313L291.428 138.023C291.657 137.979 291.892 137.98 292.12 138.026C292.348 138.072 292.565 138.163 292.757 138.293C292.95 138.423 293.116 138.59 293.244 138.784C293.373 138.978 293.461 139.195 293.506 139.423L293.926 155.126C293.97 155.354 293.969 155.588 293.922 155.816C293.876 156.044 293.785 156.26 293.655 156.453C293.525 156.645 293.358 156.81 293.164 156.938C292.969 157.067 292.752 157.155 292.523 157.2V157.2Z" fill="#EE781D"/>
<path d="M270.518 142.313C270.057 142.403 269.65 142.671 269.387 143.06C269.124 143.449 269.026 143.927 269.116 144.387L269.801 159.276C269.851 159.528 269.955 159.767 270.108 159.975C270.26 160.182 270.456 160.354 270.683 160.478C272.425 154.372 273.349 148.063 273.43 141.716L270.518 142.313Z" fill="#CE800D"/>
<path d="M174.634 266.172C180.977 266.172 186.119 261.038 186.119 254.706C186.119 248.373 180.977 243.24 174.634 243.24C168.291 243.24 163.149 248.373 163.149 254.706C163.149 261.038 168.291 266.172 174.634 266.172Z" fill="#B9D4DB"/>
<path d="M159.32 233.26C162.609 233.26 165.276 230.598 165.276 227.315C165.276 224.031 162.609 221.369 159.32 221.369C156.031 221.369 153.365 224.031 153.365 227.315C153.365 230.598 156.031 233.26 159.32 233.26Z" fill="#B9D4DB"/>
<path d="M198.275 241.753C202.974 241.753 206.783 237.951 206.783 233.26C206.783 228.569 202.974 224.767 198.275 224.767C193.577 224.767 189.768 228.569 189.768 233.26C189.768 237.951 193.577 241.753 198.275 241.753Z" fill="#B9D4DB"/>
<path d="M52.4192 202.342C59.9661 202.342 66.084 196.234 66.084 188.699C66.084 181.165 59.9661 175.057 52.4192 175.057C44.8723 175.057 38.7544 181.165 38.7544 188.699C38.7544 196.234 44.8723 202.342 52.4192 202.342Z" fill="#B9D4DB"/>
<path d="M26.3072 186.088C30.2383 186.088 33.425 182.907 33.425 178.982C33.425 175.058 30.2383 171.876 26.3072 171.876C22.3762 171.876 19.1895 175.058 19.1895 178.982C19.1895 182.907 22.3762 186.088 26.3072 186.088Z" fill="#B9D4DB"/>
<path d="M32.8455 158.926C35.113 158.926 36.9512 157.091 36.9512 154.827C36.9512 152.563 35.113 150.728 32.8455 150.728C30.5779 150.728 28.7397 152.563 28.7397 154.827C28.7397 157.091 30.5779 158.926 32.8455 158.926Z" fill="#B9D4DB"/>
<path d="M55.5738 167.553C61.0096 167.553 65.4162 163.154 65.4162 157.727C65.4162 152.3 61.0096 147.901 55.5738 147.901C50.138 147.901 45.7314 152.3 45.7314 157.727C45.7314 163.154 50.138 167.553 55.5738 167.553Z" fill="#B9D4DB"/>
<path d="M138.429 48.7038C145.976 48.7038 152.094 42.5959 152.094 35.0615C152.094 27.5271 145.976 21.4192 138.429 21.4192C130.882 21.4192 124.764 27.5271 124.764 35.0615C124.764 42.5959 130.882 48.7038 138.429 48.7038Z" fill="#B9D4DB"/>
<path d="M138.983 14.3521C142.915 14.3521 146.101 11.1706 146.101 7.24607C146.101 3.3215 142.915 0.140015 138.983 0.140015C135.052 0.140015 131.866 3.3215 131.866 7.24607C131.866 11.1706 135.052 14.3521 138.983 14.3521Z" fill="#B9D4DB"/>
<path d="M186.392 17.5485C189.794 17.5485 192.552 14.7949 192.552 11.3982C192.552 8.0015 189.794 5.24792 186.392 5.24792C182.99 5.24792 180.231 8.0015 180.231 11.3982C180.231 14.7949 182.99 17.5485 186.392 17.5485Z" fill="#B9D4DB"/>
<path d="M163.98 9.52055C166.248 9.52055 168.086 7.68538 168.086 5.42159C168.086 3.1578 166.248 1.32263 163.98 1.32263C161.713 1.32263 159.875 3.1578 159.875 5.42159C159.875 7.68538 161.713 9.52055 163.98 9.52055Z" fill="#B9D4DB"/>
<path d="M168.752 37.6218C174.187 37.6218 178.594 33.2225 178.594 27.7957C178.594 22.3688 174.187 17.9695 168.752 17.9695C163.316 17.9695 158.909 22.3688 158.909 27.7957C158.909 33.2225 163.316 37.6218 168.752 37.6218Z" fill="#B9D4DB"/>
<path d="M122.959 183.643L108.964 175.675L100.982 189.646L114.977 197.615L122.959 183.643Z" fill="#DBE8EC"/>
<path d="M176.38 180.044C185.17 173.426 191.798 164.355 195.425 153.977C199.051 143.598 199.514 132.38 196.754 121.739C193.994 111.098 188.136 101.514 179.92 94.1967C171.704 86.8798 161.499 82.1595 150.596 80.6326C139.693 79.1056 128.582 80.8406 118.666 85.6182C108.751 90.3959 100.477 98.0015 94.8915 107.473C89.3057 116.945 86.6587 127.858 87.285 138.832C87.9114 149.806 91.783 160.348 98.4104 169.125C102.811 174.954 108.319 179.86 114.619 183.564C120.92 187.267 127.889 189.695 135.129 190.709C142.37 191.723 149.739 191.303 156.817 189.473C163.895 187.643 170.543 184.439 176.38 180.044ZM107.076 162.61C101.738 155.544 98.6184 147.055 98.1123 138.219C97.6061 129.382 99.7362 120.594 104.233 112.966C108.73 105.338 115.391 99.2128 123.375 95.3647C131.359 91.5166 140.307 90.1187 149.087 91.3476C157.866 92.5766 166.084 96.3773 172.7 102.269C179.316 108.161 184.033 115.879 186.256 124.448C188.478 133.016 188.105 142.05 185.184 150.407C182.263 158.764 176.926 166.068 169.846 171.397C160.355 178.539 148.41 181.626 136.639 179.978C124.868 178.33 114.235 172.083 107.076 162.61V162.61Z" fill="#3086A3"/>
<path opacity="0.76" d="M142.864 180.418C167.619 180.418 187.687 160.383 187.687 135.668C187.687 110.954 167.619 90.9192 142.864 90.9192C118.109 90.9192 98.0405 110.954 98.0405 135.668C98.0405 160.383 118.109 180.418 142.864 180.418Z" fill="white"/>
<path d="M174.865 137.633C174.438 144.565 171.765 151.17 167.248 156.452C162.731 161.734 156.615 165.406 149.825 166.914C143.034 168.422 135.936 167.684 129.603 164.812C123.269 161.939 118.043 157.088 114.713 150.99" stroke="#DBE8EC" stroke-width="10" stroke-miterlimit="10"/>
<path d="M119.207 199.979L96.791 187.215C95.9407 186.73 94.8583 187.026 94.3734 187.875L61.5871 245.263C61.1021 246.112 61.3982 247.193 62.2485 247.677L84.6643 260.441C85.5146 260.925 86.597 260.63 87.082 259.781L119.868 202.392C120.353 201.543 120.057 200.463 119.207 199.979Z" fill="#3086A3"/>
<path d="M87.0822 259.781L119.869 202.392C119.984 202.19 120.058 201.968 120.087 201.737C120.117 201.507 120.1 201.273 120.039 201.049C119.977 200.825 119.872 200.615 119.729 200.431C119.587 200.247 119.409 200.094 119.207 199.979L113.632 196.804C114.04 197.037 114.339 197.422 114.463 197.874C114.587 198.327 114.526 198.81 114.293 199.218L81.507 256.606C81.3916 256.808 81.2377 256.985 81.0538 257.127C80.8699 257.27 80.6596 257.375 80.4352 257.436C80.2107 257.497 79.9763 257.514 79.7454 257.485C79.5144 257.456 79.2915 257.381 79.0894 257.266L84.6646 260.441C84.8667 260.556 85.0896 260.63 85.3206 260.659C85.5515 260.689 85.7858 260.672 86.0103 260.611C86.2348 260.549 86.445 260.445 86.6289 260.302C86.8128 260.16 86.9668 259.983 87.0822 259.781V259.781Z" fill="#25788E"/>
<path d="M66.9784 248.333L99.7646 190.945C99.8799 190.743 100.034 190.566 100.218 190.423C100.402 190.281 100.612 190.176 100.836 190.114C101.061 190.053 101.295 190.037 101.526 190.066C101.757 190.095 101.98 190.169 102.182 190.284L108.375 193.81L96.7912 187.214C96.3829 186.982 95.8988 186.921 95.4454 187.045C94.9921 187.168 94.6065 187.467 94.3736 187.875L61.5873 245.263C61.3544 245.671 61.2933 246.154 61.4173 246.607C61.5414 247.059 61.8404 247.444 62.2487 247.677L67.6398 250.747C67.4376 250.631 67.2601 250.478 67.1174 250.294C66.9748 250.11 66.8697 249.901 66.8083 249.676C66.7469 249.452 66.7303 249.218 66.7595 248.988C66.7887 248.757 66.863 248.535 66.9784 248.333V248.333Z" fill="#409CB5"/>
<path d="M73.832 254.272L84.6638 260.441H84.6647L73.832 254.272Z" fill="#409CB5"/>
<path d="M62.1357 242.175L89.4656 257.737C89.8739 257.969 90.173 258.354 90.297 258.807C90.4211 259.26 90.3599 259.743 90.127 260.151L87.5182 264.717C85.9841 267.402 83.4443 269.369 80.4576 270.185C77.4709 271.001 74.2819 270.599 71.5921 269.067L61.4665 263.301C60.1347 262.543 58.9655 261.53 58.0258 260.321C57.086 259.111 56.3941 257.729 55.9895 256.252C55.5849 254.776 55.4755 253.234 55.6677 251.716C55.8598 250.197 56.3497 248.731 57.1093 247.401L59.7181 242.835C59.951 242.427 60.3365 242.129 60.7899 242.005C61.2433 241.881 61.7274 241.942 62.1357 242.175L62.1357 242.175Z" fill="#DBE8EC"/>
<path d="M62.4093 250.459L65.018 245.893C65.2509 245.485 65.6365 245.187 66.0899 245.063C66.5433 244.939 67.0274 245 67.4357 245.232L89.7463 257.937C89.6594 257.861 89.5655 257.794 89.4657 257.737L62.1358 242.175C61.7275 241.942 61.2434 241.881 60.79 242.005C60.3366 242.129 59.951 242.428 59.7181 242.835L57.1093 247.402C55.5752 250.087 55.1724 253.271 55.9896 256.252C56.8067 259.234 58.7769 261.77 61.4666 263.301L66.1891 265.99C63.6935 264.371 61.9121 261.861 61.2094 258.974C60.5068 256.087 60.936 253.041 62.4093 250.459V250.459Z" fill="#E8EEEF"/>
<path d="M87.5181 264.717L90.1269 260.151C90.3598 259.743 90.4209 259.26 90.2969 258.807C90.1729 258.355 89.8738 257.97 89.4655 257.737L83.8664 254.549C84.2732 254.782 84.5707 255.167 84.6939 255.619C84.817 256.07 84.7557 256.553 84.5234 256.959L81.9146 261.526C80.3805 264.211 77.8407 266.178 74.8539 266.994C71.8672 267.809 68.6782 267.407 65.9885 265.876L61.457 263.295L61.4664 263.301L71.5921 269.067C72.9239 269.825 74.3923 270.315 75.9134 270.506C77.4346 270.698 78.9787 270.589 80.4575 270.185C81.9364 269.781 83.3211 269.09 84.5325 268.152C85.744 267.214 86.7585 266.047 87.5181 264.717V264.717Z" fill="#BAD5DB"/>
</svg>
