<svg width="300" height="217" viewBox="0 0 300 217" fill="none" xmlns="http://www.w3.org/2000/svg">
<path d="M300 89.5388V78.2006C300 76.0385 299.141 73.965 297.612 72.4361C296.083 70.9073 294.01 70.0484 291.848 70.0484H263.073C260.911 70.0484 258.838 69.1895 257.309 67.6607C255.78 66.1319 254.921 64.0583 254.921 61.8962V50.558C254.921 48.3959 255.78 46.3224 257.309 44.7935C258.838 43.2647 260.911 42.4058 263.073 42.4058H263.982C266.144 42.4058 268.218 41.5469 269.746 40.0181C271.275 38.4893 272.134 36.4157 272.134 34.2536V22.9154C272.134 21.8448 271.923 20.7847 271.514 19.7957C271.104 18.8066 270.503 17.9079 269.746 17.1509C268.989 16.3939 268.091 15.7934 267.102 15.3837C266.112 14.974 265.052 14.7632 263.982 14.7632H54.9195C52.7574 14.7632 50.6838 15.6221 49.155 17.1509C47.6262 18.6797 46.7673 20.7533 46.7673 22.9154V34.2536C46.7673 36.4157 47.6262 38.4892 49.155 40.0181C50.6838 41.5469 52.7574 42.4058 54.9195 42.4058C57.0816 42.4058 59.1551 43.2647 60.6839 44.7935C62.2128 46.3224 63.0717 48.3959 63.0717 50.558V61.8962C63.0717 64.0583 62.2128 66.1319 60.6839 67.6607C59.1551 69.1895 57.0816 70.0484 54.9195 70.0484H23.3942C21.2322 70.0484 19.1586 70.9073 17.6298 72.4362C16.1009 73.965 15.2421 76.0385 15.2421 78.2006V89.5389C15.2421 91.701 16.1009 93.7745 17.6298 95.3033C19.1586 96.8322 21.2322 97.691 23.3942 97.691H35.7643C36.8348 97.691 37.8949 97.9019 38.884 98.3116C39.8731 98.7213 40.7718 99.3218 41.5288 100.079C42.2858 100.836 42.8863 101.734 43.2959 102.724C43.7056 103.713 43.9165 104.773 43.9165 105.843V117.182C43.9165 119.344 43.0576 121.417 41.5288 122.946C39.9999 124.475 37.9264 125.334 35.7643 125.334H35.7344C33.5723 125.334 31.4988 126.193 29.9699 127.721C28.4411 129.25 27.5822 131.324 27.5822 133.486V144.824C27.5822 146.986 28.4411 149.06 29.9699 150.589C31.4988 152.117 33.5723 152.976 35.7344 152.976H37.5241C38.5947 152.976 39.6547 153.187 40.6438 153.597C41.6329 154.007 42.5316 154.607 43.2886 155.364C44.0456 156.121 44.646 157.02 45.0557 158.009C45.4654 158.998 45.6763 160.058 45.6763 161.128V172.467C45.6763 174.629 44.8174 176.702 43.2885 178.231C41.7597 179.76 39.6862 180.619 37.5241 180.619H8.15219C5.99009 180.619 3.91655 181.478 2.38772 183.007C0.858888 184.536 0 186.609 0 188.771V200.109C8.3024e-06 202.271 0.858899 204.345 2.38773 205.874C3.91656 207.403 5.9901 208.262 8.15219 208.262H268.359C270.521 208.262 272.594 207.403 274.123 205.874C275.652 204.345 276.511 202.271 276.511 200.109V188.771C276.511 186.609 275.652 184.535 274.123 183.007C272.594 181.478 270.521 180.619 268.359 180.619H261.29C259.128 180.619 257.055 179.76 255.526 178.231C253.997 176.702 253.138 174.629 253.138 172.467V161.128C253.138 158.966 253.997 156.893 255.526 155.364C257.055 153.835 259.128 152.976 261.29 152.976H277.957C280.119 152.976 282.192 152.117 283.721 150.589C285.25 149.06 286.109 146.986 286.109 144.824V133.486C286.109 131.324 285.25 129.25 283.721 127.721C282.192 126.193 280.119 125.334 277.957 125.334H272.901C270.739 125.334 268.665 124.475 267.136 122.946C265.608 121.417 264.749 119.344 264.749 117.182V105.843C264.749 103.681 265.608 101.608 267.136 100.079C268.665 98.5499 270.739 97.691 272.901 97.691H291.848C294.01 97.691 296.083 96.8321 297.612 95.3033C299.141 93.7745 300 91.7009 300 89.5388Z" fill="#DBE8EC"/>
<path d="M150 216.426C209.764 216.426 258.213 167.977 258.213 108.213C258.213 48.4485 209.764 0 150 0C90.2359 0 41.7874 48.4485 41.7874 108.213C41.7874 167.977 90.2359 216.426 150 216.426Z" fill="#DBE8EC"/>
<path d="M227.134 196.172H66.1606C65.7875 196.172 65.4183 196.096 65.0753 195.95C64.7322 195.803 64.4224 195.588 64.1646 195.319C63.9068 195.049 63.7064 194.73 63.5753 194.381C63.4443 194.031 63.3854 193.659 63.4022 193.286L70.0562 45.7273C70.0882 45.0172 70.3928 44.3468 70.9066 43.8557C71.4204 43.3646 72.1038 43.0905 72.8146 43.0905H233.788C234.161 43.0905 234.53 43.1661 234.873 43.3127C235.216 43.4593 235.526 43.674 235.784 43.9437C236.041 44.2134 236.242 44.5325 236.373 44.8818C236.504 45.2311 236.563 45.6033 236.546 45.9761L229.892 193.535C229.86 194.245 229.555 194.916 229.042 195.407C228.528 195.898 227.844 196.172 227.134 196.172Z" fill="#3086A3"/>
<path d="M237.485 45.7273C237.453 45.0172 237.148 44.3469 236.634 43.8557C236.121 43.3646 235.437 43.0905 234.726 43.0905H233.788C234.161 43.0905 234.53 43.1661 234.873 43.3127C235.216 43.4594 235.526 43.674 235.784 43.9437C236.042 44.2134 236.242 44.5325 236.373 44.8818C236.504 45.2311 236.563 45.6033 236.546 45.976L229.892 193.535C229.86 194.245 229.556 194.916 229.042 195.407C228.528 195.898 227.845 196.172 227.134 196.172H255.186C255.56 196.172 255.929 196.096 256.272 195.95C256.615 195.803 256.925 195.588 257.182 195.319C257.44 195.049 257.641 194.73 257.772 194.381C257.903 194.031 257.962 193.659 257.945 193.286L237.485 45.7273Z" fill="#25788E"/>
<path d="M218.115 187.226H75.9573C75.6278 187.226 75.3017 187.159 74.9988 187.029C74.6958 186.9 74.4223 186.71 74.1946 186.472C73.9669 186.234 73.7899 185.952 73.6742 185.644C73.5584 185.335 73.5064 185.006 73.5213 184.677L79.3975 54.3654C79.4258 53.7383 79.6948 53.1463 80.1485 52.7125C80.6023 52.2788 81.2058 52.0367 81.8335 52.0367H223.991C224.321 52.0367 224.647 52.1035 224.95 52.233C225.253 52.3625 225.526 52.5521 225.754 52.7902C225.982 53.0284 226.159 53.3102 226.275 53.6187C226.39 53.9272 226.442 54.2559 226.427 54.5851L220.551 184.897C220.523 185.524 220.254 186.116 219.8 186.55C219.346 186.984 218.743 187.226 218.115 187.226Z" fill="#409CB5"/>
<path d="M97.54 42.622C97.5405 42.7858 97.5002 42.9471 97.4227 43.0914H95.5865C95.509 42.9471 95.4686 42.7858 95.4691 42.622C95.4691 39.3224 93.695 36.5336 91.5965 36.5336C89.498 36.5336 87.7308 39.3224 87.7308 42.622C87.7308 42.7808 87.7377 42.9327 87.7446 43.0914C87.9034 46.184 89.6015 48.7105 91.5965 48.7105C91.7144 48.7116 91.8322 48.7023 91.9486 48.6829C92.0832 48.6634 92.2203 48.6706 92.3522 48.7041C92.484 48.7376 92.6079 48.7968 92.7169 48.8782C92.8259 48.9596 92.9177 49.0617 92.9873 49.1786C93.0568 49.2955 93.1026 49.4249 93.1221 49.5596C93.1416 49.6942 93.1344 49.8313 93.1008 49.9632C93.0673 50.095 93.0082 50.2189 92.9268 50.3279C92.8454 50.4369 92.7433 50.5287 92.6264 50.5982C92.5095 50.6678 92.38 50.7136 92.2454 50.7331C92.0307 50.7663 91.8137 50.7825 91.5965 50.7814C88.4418 50.7814 85.8463 47.3713 85.6668 43.0914C85.6599 42.9327 85.6599 42.7808 85.6599 42.622C85.6599 38.1212 88.3245 34.4626 91.5965 34.4626C94.8754 34.4626 97.54 38.1212 97.54 42.622Z" fill="#EE781D"/>
<path d="M118.415 42.622C118.415 42.7858 118.375 42.9471 118.297 43.0914H116.461C116.384 42.9471 116.343 42.7858 116.344 42.622C116.344 39.3224 114.57 36.5336 112.471 36.5336C110.373 36.5336 108.598 39.3224 108.598 42.622C108.598 42.7808 108.605 42.9327 108.612 43.0914C108.771 46.184 110.476 48.7105 112.471 48.7105C112.589 48.7116 112.707 48.7023 112.823 48.6829C113.095 48.6435 113.371 48.7138 113.591 48.8782C113.812 49.0426 113.957 49.2877 113.997 49.5596C114.036 49.8314 113.966 50.1078 113.801 50.3279C113.637 50.548 113.392 50.6937 113.12 50.7331C112.905 50.7663 112.688 50.7825 112.471 50.7814C109.31 50.7814 106.714 47.3713 106.534 43.0914C106.528 42.9327 106.528 42.7808 106.528 42.622C106.528 38.1212 109.192 34.4626 112.471 34.4626C115.743 34.4626 118.415 38.1212 118.415 42.622Z" fill="#EE781D"/>
<path d="M139.282 42.622C139.283 42.7858 139.243 42.9471 139.165 43.0914H137.329C137.251 42.9471 137.211 42.7858 137.212 42.622C137.212 39.3224 135.437 36.5336 133.346 36.5336C131.247 36.5336 129.473 39.3224 129.473 42.622C129.473 42.7808 129.48 42.9327 129.487 43.0914C129.646 46.184 131.351 48.7105 133.346 48.7105C133.461 48.7113 133.577 48.7021 133.691 48.6829C133.963 48.6426 134.24 48.712 134.46 48.8757C134.681 49.0395 134.828 49.2842 134.868 49.5561C134.908 49.828 134.839 50.1047 134.675 50.3254C134.511 50.5462 134.267 50.6928 133.995 50.7331C133.78 50.7658 133.563 50.782 133.346 50.7814C130.184 50.7814 127.589 47.3713 127.409 43.0914C127.402 42.9327 127.402 42.7808 127.402 42.622C127.402 38.1212 130.067 34.4626 133.346 34.4626C136.618 34.4626 139.282 38.1212 139.282 42.622Z" fill="#EE781D"/>
<path d="M160.157 42.622C160.158 42.7858 160.117 42.9471 160.04 43.0914H158.204C158.126 42.9471 158.086 42.7858 158.086 42.622C158.086 39.3224 156.312 36.5336 154.214 36.5336C152.115 36.5336 150.341 39.3224 150.341 42.622C150.341 42.7808 150.348 42.9327 150.355 43.0914C150.514 46.184 152.219 48.7105 154.214 48.7105C154.331 48.7116 154.449 48.7023 154.566 48.6829C154.837 48.6435 155.114 48.7138 155.334 48.8782C155.554 49.0426 155.7 49.2877 155.739 49.5596C155.778 49.8314 155.708 50.1078 155.544 50.3279C155.379 50.548 155.134 50.6937 154.862 50.7331C154.648 50.7663 154.431 50.7825 154.214 50.7814C151.059 50.7814 148.456 47.3713 148.277 43.0914C148.27 42.9327 148.27 42.7808 148.27 42.622C148.27 38.1212 150.942 34.4626 154.214 34.4626C157.493 34.4626 160.157 38.1212 160.157 42.622Z" fill="#EE781D"/>
<path d="M181.025 42.622C181.026 42.7858 180.985 42.9471 180.908 43.0914H179.072C178.994 42.9471 178.954 42.7858 178.954 42.622C178.954 39.3224 177.187 36.5336 175.089 36.5336C172.99 36.5336 171.216 39.3224 171.216 42.622C171.216 42.7808 171.223 42.9327 171.23 43.0914C171.395 46.3635 173.314 48.9935 175.434 48.6829C175.706 48.6426 175.982 48.712 176.203 48.8757C176.424 49.0395 176.57 49.2842 176.611 49.5561C176.651 49.828 176.582 50.1047 176.418 50.3255C176.254 50.5462 176.009 50.6928 175.737 50.7331C175.523 50.7661 175.306 50.7822 175.089 50.7814C171.927 50.7814 169.331 47.3713 169.152 43.0914C169.145 42.9327 169.145 42.7808 169.145 42.622C169.145 38.1212 171.81 34.4626 175.089 34.4626C178.361 34.4626 181.025 38.1212 181.025 42.622Z" fill="#EE781D"/>
<path d="M201.9 42.622C201.9 42.7858 201.86 42.9471 201.783 43.0914H199.946C199.869 42.9471 199.828 42.7858 199.829 42.622C199.829 39.3224 198.055 36.5336 195.956 36.5336C193.858 36.5336 192.091 39.3224 192.091 42.622C192.091 42.7808 192.098 42.9327 192.104 43.0914C192.263 46.184 193.961 48.7105 195.956 48.7105C196.074 48.7116 196.192 48.7023 196.308 48.6829C196.58 48.6435 196.857 48.7138 197.077 48.8782C197.297 49.0426 197.443 49.2877 197.482 49.5596C197.521 49.8314 197.451 50.1078 197.287 50.3279C197.122 50.548 196.877 50.6937 196.605 50.7331C196.391 50.7663 196.174 50.7825 195.956 50.7814C192.802 50.7814 190.206 47.3713 190.027 43.0914C190.02 42.9327 190.02 42.7808 190.02 42.622C190.02 38.1212 192.684 34.4626 195.956 34.4626C199.235 34.4626 201.9 38.1212 201.9 42.622Z" fill="#EE781D"/>
<path d="M221.249 42.622C221.249 42.7858 221.209 42.9471 221.132 43.0914H219.295C219.218 42.9471 219.177 42.7858 219.178 42.622C219.178 39.3224 217.404 36.5336 215.305 36.5336C213.207 36.5336 211.433 39.3224 211.433 42.622C211.433 42.7808 211.44 42.9327 211.447 43.0914C211.605 46.184 213.31 48.7105 215.305 48.7105C215.423 48.7116 215.541 48.7023 215.657 48.6829C215.929 48.6435 216.206 48.7138 216.426 48.8782C216.646 49.0426 216.792 49.2877 216.831 49.5596C216.87 49.8314 216.8 50.1078 216.636 50.3279C216.471 50.548 216.226 50.6937 215.954 50.7331C215.74 50.7661 215.523 50.7822 215.305 50.7814C212.144 50.7814 209.548 47.3713 209.369 43.0914C209.362 42.9327 209.362 42.7808 209.362 42.622C209.362 38.1212 212.026 34.4626 215.305 34.4626C218.577 34.4626 221.249 38.1212 221.249 42.622Z" fill="#EE781D"/>
<path d="M240.384 176.762H238.086V176.679C238.845 176.734 239.611 176.762 240.384 176.762Z" fill="#25788E"/>
<path d="M218.623 57.8362L213.155 140.159C213.155 142.445 212.705 144.709 211.83 146.821C210.955 148.934 209.673 150.853 208.056 152.47C206.439 154.086 204.52 155.369 202.407 156.244C200.295 157.119 198.031 157.569 195.745 157.569C191.521 157.569 187.442 156.034 184.267 153.25C181.091 150.466 179.036 146.622 178.484 142.435L176.652 128.546H74.5789L80.0467 57.8362L218.623 57.8362Z" fill="#409CB5"/>
<path d="M70.0624 157.569H70.0624C65.8391 157.569 61.7598 156.034 58.5843 153.25C55.4088 150.466 53.3535 146.622 52.8014 142.435L50.9697 128.546H176.652L178.484 142.435C179.036 146.622 181.091 150.466 184.267 153.25C187.442 156.034 191.522 157.569 195.745 157.569H70.0624Z" fill="#25788E"/>
<path d="M115.999 88.8987H91.136C90.8697 88.8987 90.6062 88.8448 90.3614 88.7401C90.1165 88.6355 89.8954 88.4823 89.7114 88.2898C89.5275 88.0973 89.3844 87.8695 89.2908 87.6202C89.1973 87.3709 89.1553 87.1053 89.1673 86.8393L90.1839 64.2943C90.2068 63.7875 90.4242 63.3091 90.7909 62.9585C91.1576 62.608 91.6454 62.4123 92.1527 62.4124H117.015C117.282 62.4124 117.545 62.4663 117.79 62.571C118.035 62.6756 118.256 62.8288 118.44 63.0213C118.624 63.2138 118.767 63.4416 118.861 63.6909C118.954 63.9402 118.996 64.2058 118.984 64.4718L117.968 87.0168C117.945 87.5236 117.727 88.002 117.361 88.3526C116.994 88.7031 116.506 88.8988 115.999 88.8987Z" fill="#DBE8EC"/>
<path d="M147.387 88.8987H122.525C122.258 88.8987 121.995 88.8448 121.75 88.7401C121.505 88.6355 121.284 88.4823 121.1 88.2898C120.916 88.0973 120.773 87.8695 120.68 87.6202C120.586 87.3709 120.544 87.1053 120.556 86.8392L121.573 64.2943C121.595 63.7875 121.813 63.3091 122.18 62.9585C122.546 62.608 123.034 62.4124 123.541 62.4124H148.404C148.67 62.4123 148.934 62.4663 149.179 62.571C149.424 62.6756 149.645 62.8288 149.829 63.0213C150.013 63.2138 150.156 63.4415 150.249 63.6909C150.343 63.9402 150.385 64.2058 150.373 64.4718L149.356 87.0168C149.333 87.5236 149.116 88.002 148.749 88.3526C148.383 88.7031 147.895 88.8987 147.387 88.8987Z" fill="#DBE8EC"/>
<path d="M178.777 88.8987H153.914C153.648 88.8987 153.384 88.8448 153.139 88.7401C152.894 88.6355 152.673 88.4823 152.489 88.2898C152.305 88.0973 152.162 87.8695 152.069 87.6202C151.975 87.3709 151.933 87.1053 151.945 86.8392L152.962 64.2943C152.985 63.7875 153.202 63.3091 153.569 62.9585C153.935 62.608 154.423 62.4123 154.93 62.4124H179.793C180.06 62.4123 180.323 62.4663 180.568 62.571C180.813 62.6756 181.034 62.8288 181.218 63.0213C181.402 63.2138 181.545 63.4415 181.638 63.6909C181.732 63.9402 181.774 64.2058 181.762 64.4718L180.745 87.0168C180.723 87.5236 180.505 88.002 180.138 88.3526C179.772 88.7031 179.284 88.8987 178.777 88.8987Z" fill="#DBE8EC"/>
<path d="M210.166 88.8987H185.303C185.037 88.8987 184.773 88.8448 184.528 88.7401C184.284 88.6355 184.062 88.4823 183.878 88.2898C183.694 88.0973 183.551 87.8695 183.458 87.6202C183.364 87.3709 183.322 87.1053 183.334 86.8392L184.351 64.2943C184.374 63.7875 184.591 63.3091 184.958 62.9585C185.325 62.608 185.812 62.4124 186.32 62.4124H211.182C211.449 62.4123 211.712 62.4663 211.957 62.571C212.202 62.6756 212.423 62.8288 212.607 63.0213C212.791 63.2138 212.934 63.4415 213.028 63.6909C213.121 63.9402 213.163 64.2058 213.151 64.4718L212.135 87.0168C212.112 87.5236 211.894 88.002 211.528 88.3526C211.161 88.7031 210.673 88.8987 210.166 88.8987Z" fill="#DBE8EC"/>
<path d="M114.581 118.223H89.7186C89.4523 118.223 89.1888 118.169 88.9439 118.064C88.6991 117.96 88.478 117.806 88.294 117.614C88.11 117.422 87.9669 117.194 87.8734 116.944C87.7798 116.695 87.7378 116.429 87.7498 116.163L88.7664 93.6185C88.7893 93.1117 89.0067 92.6333 89.3734 92.2827C89.7401 91.9322 90.2279 91.7366 90.7351 91.7366H115.598C115.864 91.7366 116.128 91.7905 116.373 91.8952C116.617 91.9998 116.839 92.153 117.023 92.3455C117.207 92.538 117.35 92.7658 117.443 93.0151C117.537 93.2644 117.579 93.5301 117.567 93.7961L116.55 116.341C116.527 116.848 116.31 117.326 115.943 117.677C115.576 118.027 115.089 118.223 114.581 118.223Z" fill="#DBE8EC"/>
<path d="M145.971 118.223H121.108C120.841 118.223 120.578 118.169 120.333 118.064C120.088 117.96 119.867 117.806 119.683 117.614C119.499 117.422 119.356 117.194 119.263 116.944C119.169 116.695 119.127 116.429 119.139 116.163L120.156 93.6185C120.178 93.1117 120.396 92.6333 120.763 92.2827C121.129 91.9322 121.617 91.7366 122.124 91.7366H146.987C147.253 91.7366 147.517 91.7905 147.762 91.8952C148.007 91.9998 148.228 92.153 148.412 92.3455C148.596 92.538 148.739 92.7658 148.832 93.0151C148.926 93.2644 148.968 93.5301 148.956 93.7961L147.939 116.341C147.916 116.848 147.699 117.326 147.332 117.677C146.966 118.027 146.478 118.223 145.971 118.223Z" fill="#DBE8EC"/>
<path d="M177.36 118.223H152.497C152.231 118.223 151.967 118.169 151.722 118.064C151.477 117.96 151.256 117.806 151.072 117.614C150.888 117.422 150.745 117.194 150.652 116.944C150.558 116.695 150.516 116.429 150.528 116.163L151.545 93.6185C151.568 93.1117 151.785 92.6333 152.152 92.2827C152.518 91.9322 153.006 91.7366 153.513 91.7366H178.376C178.643 91.7366 178.906 91.7905 179.151 91.8952C179.396 91.9998 179.617 92.153 179.801 92.3455C179.985 92.538 180.128 92.7658 180.221 93.0151C180.315 93.2644 180.357 93.5301 180.345 93.7961L179.328 116.341C179.306 116.848 179.088 117.326 178.721 117.677C178.355 118.027 177.867 118.223 177.36 118.223Z" fill="#DBE8EC"/>
<path d="M208.748 118.223H183.886C183.619 118.223 183.356 118.169 183.111 118.064C182.866 117.96 182.645 117.806 182.461 117.614C182.277 117.422 182.134 117.194 182.04 116.944C181.947 116.695 181.905 116.429 181.917 116.163L182.933 93.6185C182.956 93.1117 183.174 92.6333 183.54 92.2827C183.907 91.9322 184.395 91.7366 184.902 91.7366H209.765C210.031 91.7366 210.295 91.7905 210.54 91.8952C210.784 91.9998 211.006 92.153 211.19 92.3455C211.374 92.538 211.517 92.7658 211.61 93.0151C211.704 93.2644 211.746 93.5301 211.734 93.7961L210.717 116.341C210.694 116.848 210.477 117.326 210.11 117.677C209.743 118.027 209.256 118.223 208.748 118.223Z" fill="#DBE8EC"/>
<path d="M113.63 147.547H88.7668C88.5006 147.547 88.2371 147.493 87.9922 147.388C87.7474 147.284 87.5263 147.131 87.3423 146.938C87.1583 146.746 87.0152 146.518 86.9217 146.269C86.8282 146.019 86.7861 145.754 86.7981 145.488L87.8148 122.943C87.8376 122.436 88.055 121.957 88.4217 121.607C88.7885 121.256 89.2762 121.061 89.7835 121.061H114.646C114.913 121.061 115.176 121.115 115.421 121.219C115.666 121.324 115.887 121.477 116.071 121.67C116.255 121.862 116.398 122.09 116.491 122.339C116.585 122.588 116.627 122.854 116.615 123.12L115.598 145.665C115.576 146.172 115.358 146.65 114.991 147.001C114.625 147.351 114.137 147.547 113.63 147.547Z" fill="#DBE8EC"/>
<path d="M145.018 147.547H120.156C119.889 147.547 119.626 147.493 119.381 147.388C119.136 147.284 118.915 147.131 118.731 146.938C118.547 146.746 118.404 146.518 118.31 146.269C118.217 146.019 118.175 145.754 118.187 145.488L119.203 122.943C119.226 122.436 119.444 121.957 119.81 121.607C120.177 121.256 120.665 121.061 121.172 121.061H146.035C146.301 121.061 146.565 121.115 146.81 121.219C147.054 121.324 147.276 121.477 147.46 121.67C147.644 121.862 147.787 122.09 147.88 122.339C147.974 122.588 148.016 122.854 148.004 123.12L146.987 145.665C146.964 146.172 146.747 146.65 146.38 147.001C146.013 147.351 145.526 147.547 145.018 147.547Z" fill="#DBE8EC"/>
<path d="M176.408 147.547H151.545C151.279 147.547 151.015 147.493 150.77 147.388C150.525 147.284 150.304 147.131 150.12 146.938C149.936 146.746 149.793 146.518 149.7 146.269C149.606 146.019 149.564 145.754 149.576 145.488L150.593 122.943C150.616 122.436 150.833 121.957 151.2 121.607C151.567 121.256 152.054 121.061 152.562 121.061H177.424C177.691 121.061 177.954 121.115 178.199 121.219C178.444 121.324 178.665 121.477 178.849 121.67C179.033 121.862 179.176 122.09 179.27 122.339C179.363 122.588 179.405 122.854 179.393 123.12L178.376 145.665C178.354 146.172 178.136 146.65 177.77 147.001C177.403 147.351 176.915 147.547 176.408 147.547Z" fill="#DBE8EC"/>
<path d="M207.797 147.547H182.934C182.668 147.547 182.404 147.493 182.159 147.388C181.914 147.284 181.693 147.131 181.509 146.938C181.325 146.746 181.182 146.518 181.089 146.269C180.995 146.019 180.953 145.754 180.965 145.488L181.982 122.943C182.005 122.436 182.222 121.957 182.589 121.607C182.955 121.256 183.443 121.061 183.951 121.061H208.813C209.08 121.061 209.343 121.115 209.588 121.219C209.833 121.324 210.054 121.477 210.238 121.67C210.422 121.862 210.565 122.09 210.659 122.339C210.752 122.588 210.794 122.854 210.782 123.12L209.765 145.665C209.743 146.172 209.525 146.65 209.158 147.001C208.792 147.351 208.304 147.547 207.797 147.547Z" fill="#DBE8EC"/>
<path d="M112.494 176.762H87.6309C87.3646 176.762 87.1011 176.708 86.8563 176.603C86.6114 176.498 86.3903 176.345 86.2063 176.153C86.0223 175.96 85.8793 175.732 85.7857 175.483C85.6922 175.234 85.6502 174.968 85.6622 174.702L86.6788 152.157C86.7017 151.65 86.9191 151.172 87.2858 150.821C87.6525 150.471 88.1402 150.275 88.6475 150.275H113.51C113.777 150.275 114.04 150.329 114.285 150.434C114.53 150.538 114.751 150.692 114.935 150.884C115.119 151.077 115.262 151.304 115.356 151.554C115.449 151.803 115.491 152.069 115.479 152.335L114.462 174.88C114.44 175.386 114.222 175.865 113.855 176.215C113.489 176.566 113.001 176.762 112.494 176.762Z" fill="#DBE8EC"/>
<path d="M143.883 176.762H119.02C118.754 176.762 118.49 176.708 118.245 176.603C118 176.498 117.779 176.345 117.595 176.153C117.411 175.96 117.268 175.732 117.175 175.483C117.081 175.234 117.039 174.968 117.051 174.702L118.068 152.157C118.091 151.65 118.308 151.172 118.675 150.821C119.041 150.471 119.529 150.275 120.036 150.275H144.899C145.166 150.275 145.429 150.329 145.674 150.434C145.919 150.538 146.14 150.692 146.324 150.884C146.508 151.077 146.651 151.304 146.744 151.554C146.838 151.803 146.88 152.069 146.868 152.335L145.851 174.88C145.829 175.386 145.611 175.865 145.244 176.215C144.878 176.566 144.39 176.762 143.883 176.762Z" fill="#DBE8EC"/>
<path d="M175.272 176.762H150.409C150.143 176.762 149.879 176.708 149.634 176.603C149.389 176.498 149.168 176.345 148.984 176.153C148.8 175.96 148.657 175.732 148.564 175.483C148.47 175.234 148.428 174.968 148.44 174.702L149.457 152.157C149.48 151.65 149.697 151.172 150.064 150.821C150.431 150.471 150.918 150.275 151.426 150.275H176.288C176.555 150.275 176.818 150.329 177.063 150.434C177.308 150.538 177.529 150.692 177.713 150.884C177.897 151.077 178.04 151.304 178.134 151.554C178.227 151.803 178.269 152.069 178.257 152.335L177.241 174.88C177.218 175.386 177 175.865 176.634 176.215C176.267 176.566 175.779 176.762 175.272 176.762Z" fill="#DBE8EC"/>
<path d="M206.661 176.762H181.798C181.532 176.762 181.268 176.708 181.023 176.603C180.778 176.498 180.557 176.345 180.373 176.153C180.189 175.96 180.046 175.732 179.953 175.483C179.859 175.234 179.817 174.968 179.829 174.702L180.846 152.157C180.869 151.65 181.086 151.172 181.453 150.821C181.819 150.471 182.307 150.275 182.815 150.275H207.677C207.944 150.275 208.207 150.329 208.452 150.434C208.697 150.538 208.918 150.692 209.102 150.884C209.286 151.077 209.429 151.304 209.523 151.554C209.616 151.803 209.658 152.069 209.646 152.335L208.629 174.88C208.607 175.386 208.389 175.865 208.022 176.215C207.656 176.566 207.168 176.762 206.661 176.762Z" fill="#DBE8EC"/>
<path d="M157.538 66.6609L176.505 84.4295" stroke="#EE781D" stroke-width="3" stroke-miterlimit="10" stroke-linecap="round"/>
<path d="M176.991 67.2108L157.052 83.8798" stroke="#EE781D" stroke-width="3" stroke-miterlimit="10" stroke-linecap="round"/>
<path d="M91.4148 107.227L98.3178 113.44" stroke="#3AEE1D" stroke-width="3" stroke-miterlimit="10" stroke-linecap="round"/>
<path d="M112.814 96.8722L98.3179 113.439" stroke="#3AEE1D" stroke-width="3" stroke-miterlimit="10" stroke-linecap="round"/>
<path d="M190.924 7.23865H211.149" stroke="#3086A3" stroke-width="3" stroke-miterlimit="10" stroke-linecap="round"/>
<path d="M190.924 13.0679H211.149" stroke="#3086A3" stroke-width="3" stroke-miterlimit="10" stroke-linecap="round"/>
<path d="M190.924 18.8971H211.149" stroke="#3086A3" stroke-width="3" stroke-miterlimit="10" stroke-linecap="round"/>
<path d="M24.6226 131.046H44.8469" stroke="#3086A3" stroke-width="3" stroke-miterlimit="10" stroke-linecap="round"/>
<path d="M24.6226 136.875H44.8469" stroke="#3086A3" stroke-width="3" stroke-miterlimit="10" stroke-linecap="round"/>
<path d="M24.6226 142.705H44.8469" stroke="#3086A3" stroke-width="3" stroke-miterlimit="10" stroke-linecap="round"/>
<path d="M272.277 115.887C277.051 115.887 280.921 112.017 280.921 107.243C280.921 102.468 277.051 98.5981 272.277 98.5981C267.502 98.5981 263.632 102.468 263.632 107.243C263.632 112.017 267.502 115.887 272.277 115.887Z" fill="#B9D4DB"/>
<path d="M249.465 117.964C251.94 117.964 253.947 115.957 253.947 113.481C253.947 111.006 251.94 108.999 249.465 108.999C246.989 108.999 244.982 111.006 244.982 113.481C244.982 115.957 246.989 117.964 249.465 117.964Z" fill="#B9D4DB"/>
<path d="M260.846 92.4935C264.383 92.4935 267.25 89.6266 267.25 86.0901C267.25 82.5536 264.383 79.6868 260.846 79.6868C257.31 79.6868 254.443 82.5536 254.443 86.0901C254.443 89.6266 257.31 92.4935 260.846 92.4935Z" fill="#B9D4DB"/>
<path d="M53.4059 214.384C59.0864 214.384 63.6913 209.779 63.6913 204.099C63.6913 198.418 59.0864 193.813 53.4059 193.813C47.7255 193.813 43.1206 198.418 43.1206 204.099C43.1206 209.779 47.7255 214.384 53.4059 214.384Z" fill="#B9D4DB"/>
<path d="M32.4507 210.366C35.4096 210.366 37.8082 207.967 37.8082 205.009C37.8082 202.05 35.4096 199.651 32.4507 199.651C29.4919 199.651 27.0933 202.05 27.0933 205.009C27.0933 207.967 29.4919 210.366 32.4507 210.366Z" fill="#B9D4DB"/>
<path d="M29.8877 189.409C31.5944 189.409 32.978 188.026 32.978 186.319C32.978 184.612 31.5944 183.229 29.8877 183.229C28.1809 183.229 26.7974 184.612 26.7974 186.319C26.7974 188.026 28.1809 189.409 29.8877 189.409Z" fill="#B9D4DB"/>
<path d="M46.4951 189.076C50.5866 189.076 53.9034 185.759 53.9034 181.668C53.9034 177.576 50.5866 174.26 46.4951 174.26C42.4037 174.26 39.0869 177.576 39.0869 181.668C39.0869 185.759 42.4037 189.076 46.4951 189.076Z" fill="#B9D4DB"/>
</svg>
