<svg width="12" height="16" viewBox="0 0 12 16" fill="none" xmlns="http://www.w3.org/2000/svg">
<path d="M5.66667 3.6C6.20341 3.6 6.71818 3.81071 7.09772 4.18579C7.47725 4.56086 7.69048 5.06957 7.69048 5.6C7.69048 5.86264 7.63813 6.12272 7.53642 6.36537C7.43472 6.60802 7.28564 6.8285 7.09772 7.01421C6.90979 7.19993 6.68668 7.34725 6.44114 7.44776C6.19561 7.54827 5.93244 7.6 5.66667 7.6C5.12992 7.6 4.61515 7.38929 4.23562 7.01421C3.85608 6.63914 3.64286 6.13043 3.64286 5.6C3.64286 5.06957 3.85608 4.56086 4.23562 4.18579C4.61515 3.81071 5.12992 3.6 5.66667 3.6ZM5.66667 0C7.16956 0 8.6109 0.589998 9.6736 1.6402C10.7363 2.69041 11.3333 4.11479 11.3333 5.6C11.3333 9.8 5.66667 16 5.66667 16C5.66667 16 0 9.8 0 5.6C0 4.11479 0.597022 2.69041 1.65973 1.6402C2.72243 0.589998 4.16377 0 5.66667 0ZM5.66667 1.6C4.59317 1.6 3.56364 2.02143 2.80457 2.77157C2.04549 3.52172 1.61905 4.53913 1.61905 5.6C1.61905 6.4 1.61905 8 5.66667 13.368C9.71428 8 9.71428 6.4 9.71428 5.6C9.71428 4.53913 9.28784 3.52172 8.52876 2.77157C7.76969 2.02143 6.74016 1.6 5.66667 1.6Z" fill="#686B6F"/>
</svg>
