<svg width="16" height="16" viewBox="0 0 16 16" fill="none" xmlns="http://www.w3.org/2000/svg">
<path d="M8 5.09091C8.77154 5.09091 9.51148 5.3974 10.057 5.94296C10.6026 6.48852 10.9091 7.22846 10.9091 8C10.9091 8.77154 10.6026 9.51148 10.057 10.057C9.51148 10.6026 8.77154 10.9091 8 10.9091C7.22846 10.9091 6.48852 10.6026 5.94296 10.057C5.3974 9.51148 5.09091 8.77154 5.09091 8C5.09091 7.22846 5.3974 6.48852 5.94296 5.94296C6.48852 5.3974 7.22846 5.09091 8 5.09091ZM1.49091 8.72727H0V7.27273H1.49091C1.81818 4.24 4.24 1.81818 7.27273 1.49091V0H8.72727V1.49091C11.76 1.81818 14.1818 4.24 14.5091 7.27273H16V8.72727H14.5091C14.1818 11.76 11.76 14.1818 8.72727 14.5091V16H7.27273V14.5091C4.24 14.1818 1.81818 11.76 1.49091 8.72727ZM8 2.90909C6.64981 2.90909 5.35491 3.44545 4.40018 4.40018C3.44545 5.35491 2.90909 6.64981 2.90909 8C2.90909 9.35019 3.44545 10.6451 4.40018 11.5998C5.35491 12.5545 6.64981 13.0909 8 13.0909C9.35019 13.0909 10.6451 12.5545 11.5998 11.5998C12.5545 10.6451 13.0909 9.35019 13.0909 8C13.0909 6.64981 12.5545 5.35491 11.5998 4.40018C10.6451 3.44545 9.35019 2.90909 8 2.90909Z" fill="#686B6F"/>
</svg>
