<svg width="302" height="227" viewBox="0 0 302 227" fill="none" xmlns="http://www.w3.org/2000/svg">
<path d="M295.943 108.041V96.6965C295.943 94.5333 295.084 92.4586 293.554 90.929C292.024 89.3993 289.95 88.54 287.786 88.54H278.952C277.881 88.54 276.82 88.329 275.831 87.9191C274.841 87.5092 273.942 86.9084 273.185 86.151C272.427 85.3936 271.826 84.4944 271.417 83.5048C271.007 82.5152 270.796 81.4546 270.796 80.3835V69.0392C270.796 66.8759 271.655 64.8013 273.185 63.2717C274.714 61.742 276.789 60.8827 278.952 60.8827H279.861C280.932 60.8827 281.993 60.6717 282.983 60.2618C283.972 59.8519 284.871 59.2511 285.629 58.4937C286.386 57.7363 286.987 56.8371 287.397 55.8475C287.807 54.8579 288.018 53.7972 288.018 52.7261V41.3819C288.018 39.2186 287.158 37.144 285.629 35.6143C284.099 34.0847 282.025 33.2253 279.861 33.2253H41.6985C40.6274 33.2253 39.5668 33.4363 38.5772 33.8462C37.5876 34.2561 36.6884 34.8569 35.931 35.6143C35.1736 36.3717 34.5728 37.2709 34.1629 38.2605C33.753 39.2501 33.542 40.3107 33.542 41.3819V52.7261C33.542 53.7973 33.753 54.8579 34.1629 55.8475C34.5728 56.8371 35.1736 57.7363 35.931 58.4937C36.6884 59.2511 37.5876 59.8519 38.5772 60.2618C39.5668 60.6717 40.6274 60.8827 41.6985 60.8827C42.7697 60.8827 43.8303 61.0936 44.8199 61.5035C45.8095 61.9134 46.7087 62.5143 47.4661 63.2717C48.2235 64.0291 48.8243 64.9282 49.2342 65.9178C49.6441 66.9074 49.8551 67.9681 49.8551 69.0392V80.3835C49.8551 81.4546 49.6441 82.5152 49.2342 83.5048C48.8243 84.4944 48.2235 85.3936 47.4661 86.151C46.7087 86.9084 45.8095 87.5092 44.8199 87.9191C43.8303 88.329 42.7697 88.54 41.6985 88.54H10.1565C9.0854 88.54 8.02476 88.751 7.03516 89.1609C6.04557 89.5708 5.1464 90.1716 4.38899 90.929C3.63159 91.6864 3.03078 92.5856 2.62088 93.5752C2.21097 94.5647 2 95.6254 2 96.6965V108.041C2 109.112 2.21097 110.173 2.62088 111.162C3.03078 112.152 3.63159 113.051 4.38899 113.808C5.1464 114.566 6.04557 115.167 7.03516 115.576C8.02476 115.986 9.0854 116.197 10.1565 116.197H22.5331C23.6043 116.197 24.6649 116.408 25.6545 116.818C26.6441 117.228 27.5433 117.829 28.3007 118.586C29.0581 119.344 29.6589 120.243 30.0688 121.232C30.4787 122.222 30.6897 123.283 30.6897 124.354V135.698C30.6897 137.861 29.8303 139.936 28.3007 141.466C26.771 142.995 24.6964 143.855 22.5331 143.855H22.5032C20.34 143.855 18.2653 144.714 16.7357 146.244C15.206 147.773 14.3467 149.848 14.3467 152.011V163.355C14.3467 164.427 14.5577 165.487 14.9676 166.477C15.3775 167.466 15.9783 168.366 16.7357 169.123C17.4931 169.88 18.3922 170.481 19.3818 170.891C20.3714 171.301 21.4321 171.512 22.5032 171.512H24.2938C25.365 171.512 26.4256 171.723 27.4152 172.133C28.4048 172.543 29.304 173.144 30.0614 173.901C30.8188 174.658 31.4196 175.558 31.8295 176.547C32.2394 177.537 32.4504 178.597 32.4504 179.668V191.013C32.4504 193.176 31.591 195.251 30.0614 196.78C28.5317 198.31 26.4571 199.169 24.2939 199.169H19.8509C18.7798 199.169 17.7192 199.38 16.7296 199.79C15.74 200.2 14.8408 200.801 14.0834 201.558C13.326 202.316 12.7252 203.215 12.3153 204.204C11.9054 205.194 11.6944 206.255 11.6944 207.326V218.67C11.6944 220.833 12.5537 222.908 14.0834 224.438C15.613 225.967 17.6877 226.827 19.8509 226.827H290.476C292.64 226.827 294.714 225.967 296.244 224.438C297.774 222.908 298.633 220.833 298.633 218.67V207.326C298.633 205.163 297.774 203.088 296.244 201.558C294.714 200.029 292.64 199.169 290.476 199.169H277.168C276.097 199.169 275.036 198.958 274.047 198.548C273.057 198.139 272.158 197.538 271.401 196.78C270.643 196.023 270.042 195.124 269.632 194.134C269.223 193.145 269.012 192.084 269.012 191.013V179.668C269.012 177.505 269.871 175.431 271.401 173.901C272.93 172.371 275.005 171.512 277.168 171.512H293.843C294.915 171.512 295.975 171.301 296.965 170.891C297.954 170.481 298.854 169.88 299.611 169.123C300.368 168.366 300.969 167.466 301.379 166.477C301.789 165.487 302 164.427 302 163.355V152.011C302 150.94 301.789 149.879 301.379 148.89C300.969 147.9 300.368 147.001 299.611 146.244C298.854 145.486 297.954 144.885 296.965 144.476C295.975 144.066 294.915 143.855 293.843 143.855H288.785C286.622 143.855 284.547 142.995 283.017 141.466C281.488 139.936 280.628 137.861 280.628 135.698V124.354C280.628 122.191 281.488 120.116 283.017 118.586C284.547 117.057 286.622 116.197 288.785 116.197H287.786C289.95 116.197 292.024 115.338 293.554 113.808C295.084 112.279 295.943 110.204 295.943 108.041Z" fill="#DBE8EC"/>
<path d="M147.781 226.32C207.577 226.32 256.052 177.846 256.052 118.05C256.052 58.2539 207.577 9.77954 147.781 9.77954C87.9851 9.77954 39.5107 58.2539 39.5107 118.05C39.5107 177.846 87.9851 226.32 147.781 226.32Z" fill="#DBE8EC"/>
<path d="M281.699 220.173H153.16L157.952 208.473H275.746L281.699 220.173Z" fill="#B9D4DB"/>
<path d="M125.278 197.164H107.921L104.108 193.489C102.55 191.987 101.616 189.952 101.493 187.791C101.37 185.63 102.067 183.502 103.444 181.833L103.991 181.171C104.631 180.395 104.987 179.424 105 178.419C105.013 177.413 104.682 176.433 104.063 175.641L104.057 175.634C103.586 175.032 103.28 174.318 103.168 173.562C103.056 172.806 103.142 172.033 103.418 171.32L107.921 159.693H125.278L129.78 171.318C130.057 172.031 130.143 172.804 130.03 173.561C129.918 174.318 129.611 175.033 129.139 175.635C128.518 176.427 128.187 177.407 128.2 178.413C128.212 179.419 128.568 180.39 129.208 181.167L129.758 181.833C131.135 183.503 131.831 185.63 131.708 187.791C131.584 189.951 130.651 191.985 129.093 193.487L125.278 197.164Z" fill="#F9AE2B"/>
<path d="M109.349 189.492C107.791 187.989 106.857 185.955 106.734 183.794C106.61 181.633 107.307 179.505 108.685 177.836L109.233 177.171C109.873 176.396 110.229 175.425 110.242 174.42C110.254 173.415 109.924 172.436 109.304 171.644L109.298 171.637C108.827 171.036 108.52 170.322 108.408 169.566C108.296 168.811 108.382 168.039 108.658 167.326L111.614 159.693H107.921L103.417 171.323C103.141 172.036 103.055 172.808 103.167 173.564C103.28 174.319 103.586 175.033 104.057 175.634L104.063 175.641C104.683 176.433 105.014 177.412 105.001 178.417C104.988 179.422 104.633 180.393 103.993 181.168L103.444 181.833C102.067 183.502 101.37 185.63 101.493 187.791C101.616 189.952 102.55 191.987 104.108 193.489L107.921 197.164H125.278L129.093 193.487C129.199 193.384 129.294 193.274 129.394 193.167H118.458C115.06 193.167 111.795 191.85 109.349 189.492Z" fill="#EA9918"/>
<path d="M145.49 220.173H87.595C87.3098 220.173 87.0311 220.088 86.7947 219.929C86.5583 219.769 86.3749 219.543 86.2681 219.278C86.1614 219.014 86.136 218.723 86.1954 218.444C86.2548 218.165 86.3962 217.911 86.6014 217.713L89.3312 215.967C96.8453 211.162 103.19 204.738 107.9 197.164H125.185C129.895 204.738 136.24 211.162 143.754 215.967L146.483 217.713C146.689 217.911 146.83 218.165 146.889 218.444C146.949 218.723 146.924 219.014 146.817 219.278C146.71 219.543 146.527 219.769 146.29 219.929C146.054 220.088 145.775 220.173 145.49 220.173Z" fill="#F9AE2B"/>
<path d="M143.754 215.967C142.768 215.337 141.803 214.678 140.859 213.992H102.774C102.489 213.992 102.21 213.906 101.974 213.747C101.738 213.587 101.554 213.361 101.447 213.097C101.341 212.832 101.315 212.542 101.375 212.263C101.434 211.984 101.576 211.729 101.781 211.531L104.511 209.785C109.868 206.358 114.644 202.097 118.66 197.164H107.9C103.19 204.738 96.8452 211.162 89.3311 215.967L86.6014 217.713C86.3962 217.911 86.2548 218.165 86.1954 218.444C86.136 218.723 86.1614 219.014 86.2681 219.278C86.3749 219.543 86.5583 219.769 86.7947 219.929C87.0311 220.088 87.3098 220.173 87.595 220.173H145.49C145.775 220.173 146.054 220.088 146.29 219.929C146.527 219.769 146.71 219.543 146.817 219.278C146.924 219.014 146.949 218.723 146.889 218.444C146.83 218.165 146.689 217.911 146.483 217.713L143.754 215.967Z" fill="#EA9918"/>
<path d="M78.3081 37.3718C79.2842 38.6426 80.212 39.9384 81.1658 41.2208L83.9446 45.1106C85.7917 47.7066 87.5935 50.3261 89.3737 52.9568C92.2316 58.5824 95.1697 64.1665 98.0638 69.7734L115.49 103.382L132.917 136.992L141.631 153.796C142.74 156.775 143.849 159.753 144.908 162.758L146.495 167.266C147.001 168.78 147.528 170.284 148.015 171.808C147.049 170.532 146.125 169.235 145.178 167.948L142.409 164.054C140.563 161.457 138.768 158.834 136.973 156.211L128.259 139.407L110.833 105.798L93.406 72.1885C90.4911 66.5924 87.6203 60.9734 84.6693 55.396C83.5451 52.4252 82.4424 49.4432 81.385 46.4377L79.8072 41.9252C79.3088 40.4068 78.7843 38.9018 78.3081 37.3718Z" fill="#EE781D"/>
<path d="M116.6 174.431C100.563 174.424 84.9941 169.032 72.3892 159.118C59.7842 149.205 50.8741 135.345 47.0878 119.762C43.3016 104.179 44.8588 87.7764 51.5095 73.1843C58.1602 58.5922 69.5191 46.6567 83.7643 39.2921C84.3824 38.9736 85.1017 38.9135 85.764 39.1251C86.4264 39.3366 86.9777 39.8025 87.2967 40.4203C87.6158 41.038 87.6766 41.7572 87.4657 42.4198C87.2548 43.0824 86.7895 43.6341 86.172 43.9538C70.5634 52.0142 58.7909 65.9387 53.4389 82.6706C48.087 99.4025 49.5928 117.574 57.626 133.197C65.6592 148.82 79.5631 160.616 96.2856 165.998C113.008 171.379 131.183 169.905 146.819 161.899C147.439 161.582 148.158 161.524 148.821 161.737C149.483 161.951 150.033 162.419 150.35 163.038C150.667 163.658 150.725 164.377 150.511 165.04C150.297 165.702 149.829 166.252 149.21 166.569C139.112 171.725 127.938 174.419 116.6 174.431Z" fill="#409CB5"/>
<path d="M116.6 160.647C148.508 160.647 174.374 134.781 174.374 102.873C174.374 70.9651 148.508 45.0988 116.6 45.0988C84.692 45.0988 58.8257 70.9651 58.8257 102.873C58.8257 134.781 84.692 160.647 116.6 160.647Z" fill="#409CB5"/>
<path d="M118.288 172.742L118.241 170.835C120.119 170.789 122.013 170.665 123.872 170.464L124.076 172.361C122.166 172.567 120.218 172.695 118.288 172.742ZM112.489 172.641C110.563 172.527 108.621 172.33 106.719 172.056L106.991 170.167C108.841 170.434 110.729 170.625 112.602 170.736L112.489 172.641ZM129.813 171.502L129.452 169.629C131.295 169.274 133.143 168.837 134.944 168.332L135.46 170.17C133.607 170.689 131.708 171.137 129.813 171.502ZM101.018 170.988C99.1429 170.554 97.2618 170.035 95.4268 169.444L96.0114 167.628C97.7956 168.202 99.6248 168.707 101.448 169.129L101.018 170.988ZM140.976 168.373L140.31 166.586C142.067 165.932 143.817 165.196 145.512 164.4L146.324 166.126C144.581 166.945 142.782 167.702 140.976 168.373ZM89.9814 167.435C88.207 166.695 86.4381 165.869 84.724 164.98L85.602 163.287C87.2698 164.151 88.9902 164.955 90.716 165.675L89.9814 167.435ZM79.6885 162.099C78.0596 161.076 76.4512 159.971 74.9078 158.814L76.0518 157.287C77.5535 158.412 79.1186 159.488 80.7035 160.484L79.6885 162.099ZM70.4124 155.149C68.9717 153.872 67.565 152.521 66.2314 151.13L67.6083 149.809C68.9063 151.163 70.2752 152.479 71.6775 153.721L70.4124 155.149ZM62.3919 146.784C61.1759 145.29 60.008 143.727 58.9203 142.14L60.4938 141.061C61.5523 142.605 62.6888 144.126 63.8722 145.581L62.3919 146.784ZM55.8414 137.227C54.8863 135.554 53.9903 133.821 53.178 132.077L54.9075 131.272C55.6977 132.968 56.5692 134.654 57.4983 136.282L55.8414 137.227ZM50.9517 126.725C50.2866 124.917 49.6906 123.06 49.1808 121.206L51.0202 120.7C51.516 122.502 52.0955 124.308 52.7422 126.066L50.9517 126.725ZM47.8789 115.554C47.526 113.66 47.2496 111.728 47.0572 109.812L48.9556 109.622C49.1426 111.485 49.4113 113.363 49.7546 115.204L47.8789 115.554ZM46.7195 104.023C46.713 103.641 46.7098 103.257 46.71 102.873C46.71 101.33 46.7621 99.7651 46.8648 98.2228L48.7685 98.3495C48.6686 99.8499 48.6179 101.372 48.6179 102.873C48.6179 103.247 48.6209 103.62 48.6269 103.992L46.7195 104.023ZM49.379 92.739L47.4925 92.4539C47.7808 90.5465 48.1528 88.6298 48.5983 86.7573L50.4545 87.1988C50.0211 89.0201 49.6594 90.8838 49.379 92.739V92.739ZM51.9865 81.7677L50.1731 81.1742C50.7731 79.3423 51.4569 77.514 52.2059 75.7403L53.9633 76.4828C53.2351 78.2081 52.5699 79.986 51.9865 81.7677ZM56.3713 71.3786L54.6809 70.4936C55.5733 68.7887 56.549 67.0988 57.5805 65.4704L59.1921 66.4914C58.1886 68.0756 57.2395 69.7199 56.3713 71.3786ZM62.4066 61.8545L60.8848 60.7039C62.0451 59.1691 63.2856 57.6628 64.5711 56.2262L65.9927 57.4988C64.7421 58.8962 63.5354 60.3616 62.4066 61.8545H62.4066ZM69.9264 53.4566L68.6152 52.0704C70.0156 50.7457 71.4875 49.4652 72.9897 48.2639L74.1812 49.7545C72.72 50.9227 71.2883 52.1682 69.9264 53.4566L69.9264 53.4566ZM78.7281 46.418L77.6646 44.8343C79.2611 43.7625 80.9245 42.7433 82.6086 41.8062L83.5367 43.4728C81.8987 44.3848 80.2808 45.3755 78.728 46.418H78.7281Z" fill="#25788E"/>
<path d="M118.782 58.7077C117.739 60.4998 115.878 63.688 112.363 64.8702C109.239 65.9187 107.206 64.5707 102.349 65.127C99.412 65.464 97.5664 65.6727 95.6728 66.9244C92.9231 68.7432 93.0889 70.7386 91.0508 72.8302C86.6535 77.3452 78.4101 75.751 77.9553 75.6547C74.4475 74.8627 71.2642 73.021 68.8291 70.3748C74.123 62.5818 81.2447 56.2037 89.5719 51.7976C97.8992 47.3915 107.179 45.0916 116.6 45.0986C118.044 45.0986 119.483 45.1522 120.901 45.2538C121.468 48.7791 121.559 53.9521 118.782 58.7077Z" fill="#25788E"/>
<path d="M101.065 81.0471C105.098 76.0608 109.249 70.9285 114.417 71.5465C118.491 72.0337 122.282 75.9863 123.147 80.02C124.228 85.0579 120.133 87.3714 121.607 92.0884C122.609 95.2959 124.692 94.8356 127.769 99.5348C129.223 101.755 131.677 105.503 131.364 110.319C131.292 111.421 130.709 118.223 124.945 121.104C121.156 122.997 116.413 122.556 113.39 120.333C109.898 117.766 111.019 114.526 107.741 112.887C104.751 111.393 103.011 113.683 97.9833 112.63C96.1299 112.242 92.7091 111.526 91.0504 109.035C88.7719 105.614 90.9837 100.591 94.3885 92.8587C96.3064 88.5032 97.8274 85.0494 101.065 81.0471Z" fill="#25788E"/>
<path d="M174.374 102.873C174.376 107.752 173.763 112.612 172.55 117.338C167.238 118.59 160.979 118.376 156.015 115.198C154.549 114.262 150.804 111.865 149.852 107.752C149.135 104.649 150.697 103.568 150.879 97.9941C150.959 95.4638 151.066 92.2007 149.595 88.7503C147.878 84.7221 145.792 84.6312 144.46 81.5606C142.47 76.9762 144.492 71.1667 146.771 67.9516C149.199 64.528 152.971 62.5808 157.095 61.6714C162.575 67.041 166.927 73.452 169.894 80.5275C172.862 87.603 174.385 95.2003 174.374 102.873Z" fill="#25788E"/>
<path d="M134.702 134.456C133.461 132.407 133.808 128.975 135.472 127.78C137 126.683 138.764 128.098 140.865 126.753C142.405 125.766 142.078 124.608 143.432 123.928C145.302 122.99 148.383 123.962 149.852 125.982C151.743 128.584 150.581 132.404 148.825 134.456C145.263 138.618 136.961 138.184 134.702 134.456Z" fill="#25788E"/>
<path d="M117.595 160.631C117.263 160.642 116.931 160.647 116.6 160.647C107.322 160.653 98.1792 158.423 89.9471 154.144C81.7149 149.864 74.636 143.663 69.3105 136.066C70.099 133.951 71.2908 132.009 72.8198 130.348C73.2905 129.839 79.1749 123.704 86.172 125.212C88.5987 125.805 90.8179 127.048 92.5914 128.807C94.8489 131.107 94.3139 132.396 96.1862 133.942C98.6416 135.97 100.755 134.734 105.944 135.74C108.875 136.307 112.999 137.109 115.701 140.105C118.472 143.176 118.499 147.166 118.526 151.146C118.542 153.067 118.568 157.041 117.595 160.631Z" fill="#25788E"/>
<path d="M45.5028 120.86C44.7588 121.861 44.046 122.883 43.3459 123.91C42.6439 124.936 41.9716 125.98 41.3289 127.041C41.2723 127.135 41.1806 127.202 41.0741 127.229C40.9676 127.255 40.855 127.238 40.761 127.181C40.6671 127.125 40.5995 127.033 40.5731 126.926C40.5468 126.82 40.5638 126.707 40.6205 126.613C40.6252 126.606 40.6307 126.597 40.6359 126.59C41.3566 125.56 42.1061 124.554 42.8843 123.571C43.6626 122.588 44.4803 121.639 45.3092 120.703C45.3305 120.679 45.3603 120.664 45.3924 120.661C45.4245 120.659 45.4564 120.669 45.4814 120.689C45.5064 120.709 45.5225 120.738 45.5265 120.77C45.5306 120.802 45.5221 120.835 45.5028 120.86Z" fill="#DBE8EC"/>
<path d="M37.9675 133.629C37.0158 135.865 36.3633 138.218 36.0269 140.625C36.0136 140.732 35.9793 140.835 35.9261 140.928C35.8729 141.022 35.8017 141.104 35.7167 141.171C35.6317 141.237 35.5345 141.285 35.4306 141.314C35.3268 141.343 35.2183 141.351 35.1114 141.337C35.0045 141.324 34.9013 141.29 34.8076 141.236C34.714 141.183 34.6317 141.112 34.5655 141.027C34.4994 140.942 34.4506 140.845 34.422 140.741C34.3934 140.637 34.3856 140.529 34.3989 140.422L34.4028 140.393C34.8497 137.863 35.6507 135.409 36.7822 133.103C36.8544 132.95 36.9837 132.831 37.1425 132.772C37.3013 132.713 37.4769 132.718 37.6317 132.787C37.7866 132.856 37.9084 132.982 37.9712 133.14C38.0339 133.297 38.0326 133.473 37.9675 133.629V133.629Z" fill="#DBE8EC"/>
<path d="M36.7658 147.543C37.0263 148.055 37.2331 148.592 37.5257 149.083C37.8205 149.574 38.1525 150.041 38.5187 150.48C39.2646 151.362 40.1292 152.135 41.0876 152.779C41.3165 152.935 41.4742 153.175 41.5259 153.447C41.5776 153.719 41.5191 154.001 41.3633 154.23C41.2075 154.459 40.9672 154.616 40.6952 154.668C40.4232 154.72 40.1418 154.661 39.9128 154.505L39.8917 154.491C38.7953 153.713 37.8122 152.787 36.9703 151.739C36.5507 151.209 36.1725 150.648 35.839 150.06C35.5077 149.47 35.2711 148.835 34.989 148.224C34.8852 147.999 34.8737 147.742 34.9569 147.509C35.0402 147.276 35.2116 147.084 35.4343 146.976C35.657 146.868 35.9133 146.851 36.1482 146.929C36.3831 147.008 36.5779 147.175 36.6908 147.396L36.7658 147.543Z" fill="#DBE8EC"/>
<path d="M47.5863 155.556C49.9448 156.118 52.3488 156.468 54.7697 156.601C55.0643 156.62 55.3393 156.754 55.5346 156.976C55.73 157.197 55.8297 157.487 55.812 157.781C55.7944 158.076 55.6607 158.351 55.4403 158.548C55.2199 158.744 54.9307 158.845 54.636 158.829C52.0713 158.7 49.526 158.313 47.0389 157.674C46.7581 157.601 46.5175 157.42 46.3702 157.17C46.2229 156.92 46.181 156.622 46.2535 156.341C46.3261 156.06 46.5073 155.82 46.7572 155.672C47.0072 155.525 47.3054 155.483 47.5863 155.556H47.5863Z" fill="#DBE8EC"/>
<path d="M62.1167 156.616C64.572 156.488 67.0277 156.273 69.4839 155.971C69.7261 155.941 69.9703 156.008 70.1644 156.156C70.3584 156.304 70.4869 156.522 70.5224 156.763C70.5579 157.005 70.4976 157.25 70.3544 157.448C70.2111 157.645 69.9963 157.779 69.7558 157.821C67.2698 158.256 64.7633 158.566 62.2461 158.749C61.9633 158.769 61.6844 158.675 61.4706 158.489C61.2568 158.303 61.1257 158.04 61.1061 157.757C61.0865 157.474 61.1799 157.195 61.366 156.982C61.552 156.768 61.8154 156.637 62.0981 156.617L62.1167 156.616Z" fill="#DBE8EC"/>
<path d="M76.8202 154.805L84.0933 153.204L84.1241 153.198C84.2749 153.165 84.4327 153.192 84.5637 153.273C84.6947 153.355 84.7886 153.485 84.8253 153.635C84.862 153.785 84.8386 153.943 84.7601 154.076C84.6816 154.209 84.5542 154.306 84.4051 154.346L77.1428 156.304C76.9465 156.356 76.7374 156.329 76.5613 156.227C76.3852 156.126 76.2565 155.959 76.2037 155.762C76.1508 155.566 76.178 155.357 76.2792 155.181C76.3805 155.005 76.5476 154.876 76.7438 154.823C76.7544 154.82 76.7651 154.817 76.7758 154.815L76.8202 154.805Z" fill="#DBE8EC"/>
<path d="M91.2801 151.205C93.6435 150.429 95.9962 149.618 98.3504 148.811L98.3657 148.806C98.4622 148.773 98.568 148.779 98.6599 148.824C98.7517 148.868 98.8221 148.948 98.8557 149.044C98.8892 149.14 98.8832 149.246 98.8389 149.338C98.7946 149.43 98.7156 149.501 98.6193 149.535C96.2626 150.367 93.9046 151.195 91.5571 152.059C91.5017 152.08 91.4428 152.089 91.3839 152.086C91.3249 152.084 91.267 152.07 91.2135 152.045C91.1599 152.021 91.1117 151.986 91.0717 151.942C91.0317 151.899 91.0006 151.848 90.9803 151.793C90.9599 151.737 90.9506 151.678 90.953 151.619C90.9554 151.561 90.9693 151.503 90.9941 151.449C91.0188 151.395 91.0539 151.347 91.0972 151.307C91.1406 151.267 91.1914 151.236 91.2468 151.216L91.26 151.211L91.2801 151.205Z" fill="#DBE8EC"/>
<path d="M105.297 146.069C107.578 145.07 109.841 144.032 112.112 143.015L112.127 143.008C112.182 142.984 112.241 142.97 112.301 142.968C112.361 142.967 112.421 142.977 112.477 142.998C112.533 143.02 112.584 143.052 112.628 143.093C112.671 143.134 112.706 143.184 112.731 143.238C112.756 143.293 112.769 143.352 112.771 143.412C112.772 143.472 112.762 143.532 112.741 143.588C112.72 143.644 112.687 143.696 112.646 143.739C112.605 143.783 112.556 143.818 112.501 143.842L112.494 143.846C110.194 144.829 107.888 145.791 105.598 146.793C105.551 146.814 105.5 146.825 105.448 146.826C105.397 146.828 105.346 146.819 105.298 146.8C105.249 146.781 105.206 146.753 105.168 146.717C105.131 146.682 105.101 146.639 105.081 146.592C105.06 146.544 105.049 146.494 105.048 146.442C105.047 146.39 105.056 146.339 105.075 146.291C105.094 146.243 105.122 146.199 105.158 146.162C105.194 146.125 105.237 146.095 105.284 146.075L105.297 146.069Z" fill="#DBE8EC"/>
<path d="M118.781 139.66L122.06 137.876C123.154 137.283 124.246 136.689 125.322 136.066C125.406 136.017 125.499 135.986 125.595 135.973C125.691 135.96 125.789 135.966 125.882 135.991C125.976 136.016 126.064 136.059 126.141 136.118C126.218 136.177 126.283 136.251 126.331 136.335C126.38 136.418 126.411 136.511 126.424 136.607C126.437 136.703 126.431 136.801 126.405 136.895C126.38 136.989 126.337 137.076 126.278 137.153C126.219 137.23 126.146 137.295 126.062 137.343L126.037 137.357L126.029 137.361C124.92 137.942 123.793 138.488 122.673 139.046L119.311 140.715C119.173 140.784 119.013 140.795 118.866 140.747C118.719 140.7 118.597 140.596 118.525 140.459C118.454 140.322 118.439 140.162 118.484 140.015C118.529 139.867 118.63 139.742 118.766 139.668L118.781 139.66Z" fill="#DBE8EC"/>
<path d="M131.725 132.242L138.008 128.238L138.039 128.218C138.151 128.147 138.277 128.098 138.409 128.074C138.54 128.051 138.675 128.054 138.805 128.083C138.936 128.112 139.059 128.166 139.169 128.243C139.278 128.319 139.371 128.417 139.443 128.53C139.515 128.642 139.564 128.768 139.587 128.899C139.61 129.031 139.607 129.166 139.578 129.296C139.549 129.427 139.495 129.55 139.419 129.66C139.342 129.769 139.244 129.862 139.132 129.934L139.105 129.951L132.64 133.79C132.437 133.911 132.195 133.947 131.966 133.89C131.737 133.834 131.539 133.69 131.416 133.489C131.292 133.288 131.252 133.047 131.304 132.817C131.357 132.587 131.498 132.387 131.696 132.26L131.725 132.242Z" fill="#DBE8EC"/>
<path d="M144.144 124.021L150.136 119.612L150.174 119.584C150.299 119.492 150.441 119.425 150.592 119.388C150.743 119.351 150.9 119.344 151.054 119.367C151.207 119.39 151.355 119.444 151.488 119.524C151.621 119.605 151.737 119.71 151.829 119.836C151.921 119.961 151.988 120.103 152.025 120.254C152.062 120.405 152.069 120.562 152.046 120.715C152.023 120.869 151.969 121.017 151.889 121.15C151.808 121.283 151.702 121.399 151.577 121.491L151.562 121.502L145.425 125.866C145.183 126.038 144.884 126.107 144.592 126.059C144.3 126.011 144.039 125.849 143.865 125.61C143.692 125.37 143.62 125.071 143.665 124.779C143.711 124.486 143.87 124.224 144.108 124.048L144.144 124.021Z" fill="#DBE8EC"/>
<path d="M155.933 114.962L161.501 110.053L161.55 110.01C161.81 109.781 162.15 109.665 162.495 109.687C162.84 109.709 163.163 109.867 163.392 110.127C163.62 110.386 163.737 110.726 163.715 111.071C163.694 111.416 163.536 111.739 163.277 111.968L163.261 111.982L157.517 116.881C157.268 117.094 156.944 117.199 156.617 117.175C156.29 117.15 155.986 116.997 155.771 116.75C155.556 116.502 155.448 116.179 155.469 115.852C155.491 115.525 155.641 115.219 155.887 115.002L155.933 114.962Z" fill="#DBE8EC"/>
<path d="M166.812 104.891C168.535 103.126 170.189 101.298 171.784 99.4278C172.012 99.1602 172.336 98.9937 172.687 98.9648C173.037 98.9359 173.385 99.0469 173.653 99.2736C173.922 99.5002 174.09 99.8241 174.121 100.174C174.151 100.525 174.042 100.873 173.817 101.142C172.194 103.085 170.477 104.941 168.717 106.748C168.471 107.001 168.134 107.145 167.782 107.15C167.429 107.155 167.089 107.019 166.836 106.773C166.583 106.527 166.439 106.19 166.434 105.837C166.43 105.485 166.565 105.145 166.811 104.892L166.812 104.891Z" fill="#DBE8EC"/>
<path d="M176.305 93.6253C177.709 91.6333 178.979 89.5503 180.108 87.3903C180.254 87.1063 180.507 86.8915 180.81 86.7922C181.114 86.693 181.445 86.7172 181.731 86.8598C182.017 87.0024 182.235 87.2517 182.338 87.554C182.442 87.8563 182.422 88.1872 182.283 88.475C181.158 90.7692 179.863 92.9769 178.412 95.0799C178.221 95.3603 177.926 95.5535 177.593 95.6169C177.26 95.6804 176.915 95.6089 176.634 95.4183C176.354 95.2276 176.16 94.9334 176.097 94.6002C176.033 94.267 176.104 93.9221 176.294 93.6413L176.305 93.6253Z" fill="#DBE8EC"/>
<path d="M182.691 80.6818C183.293 78.4159 183.379 76.0439 182.943 73.7402L182.942 73.7361C182.886 73.4791 182.934 73.2105 183.074 72.9881C183.214 72.7658 183.436 72.6074 183.692 72.5473C183.948 72.4872 184.218 72.5301 184.442 72.6667C184.667 72.8034 184.829 73.0228 184.893 73.2778C185.492 75.877 185.488 78.5787 184.882 81.1762C184.851 81.3207 184.793 81.4577 184.709 81.5794C184.625 81.7011 184.519 81.8052 184.395 81.8857C184.271 81.9661 184.133 82.0214 183.987 82.0483C183.842 82.0752 183.693 82.0732 183.549 82.0424C183.404 82.0117 183.268 81.9527 183.146 81.869C183.024 81.7853 182.92 81.6784 182.84 81.5545C182.76 81.4306 182.705 81.292 182.678 81.1468C182.651 81.0016 182.654 80.8525 182.685 80.7082L182.691 80.6818Z" fill="#DBE8EC"/>
<path d="M179.542 67.8444C177.746 66.2546 175.646 65.0452 173.369 64.2894C173.203 64.2309 173.067 64.1098 172.989 63.9519C172.911 63.794 172.898 63.612 172.953 63.4447C173.008 63.2774 173.126 63.1383 173.282 63.057C173.438 62.9758 173.62 62.959 173.788 63.0102C176.3 63.7184 178.641 64.9296 180.669 66.5702C180.755 66.6422 180.825 66.7303 180.877 66.8295C180.928 66.9287 180.959 67.0371 180.969 67.1485C180.978 67.2598 180.966 67.3719 180.932 67.4784C180.898 67.585 180.844 67.6838 180.772 67.7692C180.7 67.8547 180.612 67.9252 180.513 67.9766C180.413 68.028 180.305 68.0594 180.194 68.0689C180.082 68.0785 179.97 68.066 179.864 68.0322C179.757 67.9984 179.658 67.9439 179.573 67.8719C179.563 67.8637 179.551 67.8529 179.542 67.8444Z" fill="#DBE8EC"/>
<path d="M166.209 62.6594C163.746 62.3546 161.267 62.2092 158.785 62.2242C158.728 62.2241 158.673 62.2019 158.632 62.1623C158.591 62.1226 158.567 62.0685 158.565 62.0113C158.562 61.9542 158.583 61.8984 158.621 61.8558C158.659 61.8132 158.712 61.7869 158.769 61.7826C161.275 61.5906 163.791 61.5708 166.3 61.7234C166.361 61.7273 166.422 61.7433 166.477 61.7705C166.533 61.7977 166.582 61.8355 166.623 61.8819C166.664 61.9283 166.695 61.9822 166.715 62.0407C166.735 62.0991 166.744 62.161 166.74 62.2226C166.736 62.2843 166.72 62.3446 166.693 62.4001C166.665 62.4556 166.628 62.5052 166.581 62.546C166.535 62.5869 166.481 62.6182 166.422 62.6382C166.364 62.6582 166.302 62.6665 166.24 62.6626C166.23 62.6619 166.218 62.6608 166.209 62.6594Z" fill="#DBE8EC"/>
<path d="M156.874 41.6455C154.388 48.1832 136.099 64.3197 132.355 67.5762C132.291 67.6329 132.212 67.671 132.127 67.6862C132.042 67.7015 131.955 67.6934 131.874 67.6628C131.794 67.6321 131.723 67.5802 131.67 67.5125C131.617 67.4447 131.583 67.3638 131.572 67.2784C130.939 62.3574 127.993 38.1457 130.479 31.608C131.81 28.1078 134.477 25.2797 137.893 23.7458C141.309 22.212 145.195 22.0981 148.695 23.4291C152.196 24.7602 155.024 27.4272 156.558 30.8434C158.091 34.2597 158.205 38.1453 156.874 41.6455Z" fill="#D62828"/>
<path d="M143.677 43.216C147.316 43.216 150.266 40.2659 150.266 36.6268C150.266 32.9877 147.316 30.0376 143.677 30.0376C140.037 30.0376 137.087 32.9877 137.087 36.6268C137.087 40.2659 140.037 43.216 143.677 43.216Z" fill="#DBE8EC"/>
<path d="M98.1872 122.271C98.7308 126.259 93.9311 139.448 92.936 142.124C92.9189 142.171 92.8895 142.212 92.8508 142.243C92.8122 142.274 92.7658 142.294 92.7167 142.301C92.6676 142.307 92.6176 142.3 92.5721 142.281C92.5265 142.261 92.4872 142.23 92.4583 142.189C90.7834 139.877 82.6292 128.453 82.0857 124.465C81.7947 122.33 82.3638 120.167 83.6679 118.451C84.9719 116.736 86.904 115.608 89.0392 115.317C91.1744 115.026 93.3378 115.595 95.0534 116.9C96.7689 118.204 97.8962 120.136 98.1872 122.271H98.1872Z" fill="#D62828"/>
<path d="M90.1365 127.16C92.2306 127.16 93.9282 125.462 93.9282 123.368C93.9282 121.274 92.2306 119.576 90.1365 119.576C88.0424 119.576 86.3447 121.274 86.3447 123.368C86.3447 125.462 88.0424 127.16 90.1365 127.16Z" fill="#DBE8EC"/>
<path d="M139.735 208.473L162.8 220.173L185.865 208.473L208.929 220.173L231.994 208.473L255.063 220.173L278.132 208.473L261.487 162.444L243.967 171.33L226.448 162.444L208.93 171.33L191.413 162.444L173.896 171.33L156.38 162.444L139.735 208.473Z" fill="#409CB5"/>
<path d="M139.735 208.473L162.8 220.173L185.865 208.473L208.929 220.173L231.994 208.473L255.063 220.173L278.132 208.473L261.487 162.444L243.967 171.33L226.448 162.444L208.93 171.33L191.413 162.444L173.896 171.33L156.38 162.444L139.735 208.473Z" fill="#409CB5"/>
<path d="M151.025 177.25C154.13 178.68 157.214 180.148 160.299 181.618L164.927 183.818L169.543 186.043H169.055C172.273 184.327 175.499 182.626 178.731 180.939C181.958 179.241 185.192 177.557 188.433 175.886L188.804 175.695L189.186 175.886L198.971 180.77L208.737 185.691H207.892L217.659 180.766C220.912 179.119 224.173 177.489 227.444 175.875L227.833 175.682L228.207 175.875C231.446 177.551 234.686 179.222 237.912 180.923C241.142 182.616 244.374 184.304 247.591 186.021L247.082 186.021C250.328 184.44 253.585 182.879 256.852 181.339L261.746 179.015C263.375 178.235 265.021 177.488 266.657 176.724C265.073 177.592 263.499 178.479 261.907 179.332L257.141 181.908C253.966 183.631 250.783 185.337 247.591 187.026L247.348 187.154L247.081 187.026C243.795 185.445 240.524 183.834 237.25 182.229C233.972 180.631 230.709 179.005 227.444 177.381H228.207C224.97 179.06 221.728 180.728 218.481 182.386L208.737 187.356L208.314 187.571L207.892 187.356L198.153 182.382L188.433 177.371H189.186C185.924 179 182.654 180.614 179.377 182.213C176.106 183.824 172.828 185.421 169.543 187.004L169.286 187.128L169.055 187.004L164.534 184.593L160.025 182.156C157.018 180.535 154.012 178.912 151.025 177.25Z" fill="#3086A3"/>
<path d="M272.427 192.96L267.215 195.8L261.986 198.608C258.503 200.485 255.011 202.346 251.512 204.192L251.268 204.32L251.006 204.192L240.346 198.975L229.712 193.708H230.471C226.956 195.523 223.444 197.344 219.917 199.134L209.347 204.526L208.924 204.742L208.501 204.526L197.933 199.135C194.407 197.344 190.895 195.526 187.382 193.71H188.143L177.509 198.977L166.849 204.194L166.586 204.323L166.34 204.194C162.84 202.353 159.35 200.492 155.87 198.61L150.644 195.801L145.434 192.96L150.804 195.484L156.158 198.042C159.73 199.742 163.294 201.458 166.849 203.191H166.341L176.849 197.675L187.382 192.209L187.755 192.016L188.143 192.209C191.684 193.971 195.226 195.73 198.753 197.517L209.347 202.859H208.501L219.098 197.518C222.626 195.731 226.171 193.974 229.712 192.211L230.099 192.018L230.471 192.211L241.004 197.677L251.512 203.193H251.006C254.56 201.456 258.124 199.739 261.7 198.044L267.055 195.485L272.427 192.96Z" fill="#3086A3"/>
<path d="M173.896 171.33C173.349 175.486 172.622 179.601 171.831 183.702C171.453 185.756 171.009 187.795 170.596 189.842L169.26 195.959L167.825 202.053C167.312 204.077 166.833 206.108 166.286 208.124C165.227 212.164 164.104 216.189 162.8 220.173C163.345 216.017 164.071 211.901 164.862 207.801C165.24 205.746 165.686 203.708 166.097 201.661L167.436 195.545L168.874 189.45C169.386 187.427 169.867 185.396 170.413 183.38C171.472 179.34 172.594 175.314 173.896 171.33Z" fill="#3086A3"/>
<path d="M191.413 162.444C191.335 166.326 191.074 170.186 190.748 174.038C190.602 175.966 190.39 177.887 190.209 179.811L189.567 185.57L188.824 191.318C188.541 193.23 188.294 195.146 187.976 197.053C187.378 200.873 186.713 204.684 185.864 208.473C185.94 204.591 186.2 200.731 186.527 196.878C186.672 194.95 186.886 193.03 187.066 191.106L187.71 185.347L188.455 179.599C188.737 177.687 188.987 175.772 189.304 173.864C189.903 170.045 190.566 166.233 191.413 162.444Z" fill="#3086A3"/>
<path d="M208.93 171.33C209.317 175.4 209.519 179.47 209.657 183.541C209.743 185.576 209.762 187.611 209.813 189.646L209.864 195.752L209.815 201.857C209.763 203.892 209.746 205.927 209.659 207.962C209.522 212.033 209.318 216.103 208.929 220.173C208.54 216.103 208.336 212.033 208.199 207.962C208.112 205.927 208.096 203.892 208.044 201.857L207.995 195.752L208.046 189.646C208.097 187.611 208.116 185.576 208.203 183.541C208.34 179.47 208.543 175.4 208.93 171.33Z" fill="#3086A3"/>
<path d="M226.447 162.444C227.294 166.233 227.957 170.045 228.556 173.864C228.872 175.772 229.123 177.687 229.404 179.599L230.149 185.347L230.793 191.106C230.973 193.03 231.187 194.95 231.332 196.879C231.658 200.731 231.918 204.591 231.994 208.473C231.145 204.684 230.481 200.873 229.883 197.053C229.565 195.146 229.317 193.23 229.035 191.318L228.292 185.57L227.65 179.811C227.47 177.887 227.258 175.967 227.112 174.038C226.786 170.186 226.525 166.326 226.447 162.444Z" fill="#3086A3"/>
<path d="M243.967 171.33C245.269 175.314 246.391 179.34 247.45 183.38C247.997 185.396 248.478 187.427 248.989 189.451L250.427 195.545L251.766 201.661C252.177 203.708 252.623 205.746 253.001 207.801C253.792 211.901 254.518 216.017 255.063 220.173C253.758 216.189 252.635 212.164 251.577 208.124C251.03 206.108 250.551 204.077 250.038 202.053L248.603 195.959L247.267 189.842C246.854 187.795 246.41 185.756 246.032 183.702C245.242 179.601 244.514 175.486 243.967 171.33Z" fill="#3086A3"/>
<path d="M166.283 190.719L161.944 189.663C161.61 189.581 161.272 189.786 161.191 190.121L159.804 195.818C159.722 196.153 159.927 196.49 160.262 196.571L164.6 197.628C164.935 197.709 165.272 197.504 165.354 197.17L166.741 191.473C166.823 191.138 166.617 190.801 166.283 190.719Z" fill="#F9AE2B"/>
<path d="M240.775 177.826L236.347 178.404C236.005 178.448 235.765 178.761 235.809 179.103L236.567 184.917C236.611 185.258 236.924 185.499 237.266 185.455L241.694 184.878C242.035 184.833 242.276 184.52 242.231 184.179L241.474 178.364C241.429 178.023 241.116 177.782 240.775 177.826Z" fill="#F9AE2B"/>
<path d="M269.144 190.385L264.909 191.8C264.583 191.91 264.406 192.263 264.515 192.59L266.374 198.151C266.483 198.477 266.836 198.654 267.163 198.545L271.398 197.13C271.724 197.02 271.901 196.667 271.792 196.34L269.933 190.779C269.824 190.453 269.471 190.276 269.144 190.385Z" fill="#F9AE2B"/>
<path d="M193.971 200.49L189.57 199.876C189.404 199.853 189.234 199.896 189.1 199.998C188.966 200.099 188.877 200.25 188.854 200.417L187.606 209.357L192.992 212.089L194.511 201.206C194.535 201.04 194.491 200.871 194.389 200.736C194.288 200.602 194.137 200.513 193.971 200.49Z" fill="#F9AE2B"/>
<path d="M147.918 185.839C148.825 185.321 149.775 184.882 150.759 184.529C151.252 184.354 151.752 184.195 152.26 184.062L153.81 183.733C153.842 183.727 153.874 183.726 153.906 183.732C153.937 183.738 153.967 183.749 153.994 183.767C154.021 183.784 154.044 183.807 154.062 183.833C154.081 183.86 154.093 183.889 154.1 183.921C154.107 183.952 154.107 183.984 154.101 184.016C154.095 184.047 154.083 184.077 154.066 184.104C154.048 184.131 154.026 184.154 153.999 184.172C153.973 184.19 153.943 184.203 153.911 184.21L153.895 184.212L153.864 184.217L152.345 184.43C151.839 184.525 151.337 184.646 150.84 184.784C149.842 185.066 148.866 185.419 147.918 185.839Z" fill="#F9AE2B"/>
<path d="M160.079 183.533L166.313 183.533C166.454 183.532 166.59 183.588 166.69 183.687C166.79 183.786 166.847 183.921 166.848 184.062C166.848 184.203 166.793 184.338 166.694 184.439C166.595 184.539 166.46 184.596 166.319 184.597C166.313 184.597 166.302 184.596 166.297 184.596L160.06 184.372C159.95 184.368 159.846 184.321 159.77 184.242C159.694 184.162 159.652 184.055 159.654 183.945C159.656 183.835 159.701 183.73 159.78 183.653C159.858 183.576 159.964 183.533 160.074 183.533L160.079 183.533Z" fill="#F9AE2B"/>
<path d="M172.543 183.534L175.638 183.457L177.185 183.419C177.7 183.416 178.218 183.364 178.735 183.337L178.753 183.336C178.917 183.328 179.078 183.385 179.2 183.495C179.322 183.606 179.395 183.76 179.403 183.924C179.412 184.088 179.355 184.249 179.245 184.371C179.135 184.493 178.981 184.567 178.817 184.576L178.812 184.576C178.291 184.599 177.774 184.647 177.249 184.647L175.679 184.675L172.541 184.73C172.383 184.733 172.23 184.673 172.116 184.563C172.002 184.453 171.937 184.303 171.933 184.145C171.93 183.987 171.989 183.834 172.098 183.72C172.207 183.605 172.357 183.539 172.515 183.535L172.543 183.534Z" fill="#F9AE2B"/>
<path d="M184.875 182.701C186.902 182.387 188.906 181.937 190.873 181.353C191.011 181.31 191.161 181.324 191.289 181.391C191.417 181.458 191.513 181.574 191.557 181.711C191.601 181.849 191.588 181.999 191.522 182.128C191.456 182.256 191.341 182.354 191.204 182.398C189.2 183.054 187.148 183.553 185.068 183.893C184.91 183.918 184.748 183.88 184.618 183.786C184.489 183.692 184.402 183.551 184.376 183.393C184.35 183.235 184.388 183.074 184.482 182.944C184.575 182.814 184.716 182.727 184.874 182.701H184.875Z" fill="#F9AE2B"/>
<path d="M196.573 179.079C198.404 178.143 200.141 177.033 201.76 175.765C201.82 175.718 201.896 175.696 201.973 175.704C202.049 175.712 202.119 175.749 202.168 175.808C202.217 175.867 202.241 175.943 202.235 176.019C202.229 176.095 202.194 176.166 202.136 176.217C200.557 177.613 198.834 178.838 196.997 179.87C196.893 179.929 196.77 179.943 196.656 179.911C196.541 179.878 196.444 179.802 196.386 179.698C196.328 179.594 196.313 179.471 196.345 179.357C196.378 179.242 196.454 179.145 196.558 179.087L196.573 179.079Z" fill="#F9AE2B"/>
<path d="M206.288 171.531L207.22 170.467L206.39 171.616C206.38 171.63 206.364 171.639 206.347 171.642C206.33 171.644 206.312 171.64 206.298 171.63C206.284 171.62 206.275 171.604 206.272 171.587C206.268 171.57 206.272 171.552 206.282 171.538L206.288 171.531Z" fill="#F9AE2B"/>
<path d="M155.008 216.217L157.43 214.252C157.437 214.246 157.446 214.242 157.455 214.239C157.464 214.237 157.474 214.236 157.483 214.237C157.493 214.238 157.502 214.24 157.51 214.245C157.519 214.25 157.526 214.256 157.532 214.263C157.538 214.271 157.543 214.279 157.545 214.288C157.548 214.297 157.549 214.307 157.548 214.317C157.547 214.326 157.544 214.335 157.54 214.344C157.535 214.352 157.529 214.36 157.521 214.366L157.518 214.368L155.008 216.217Z" fill="#F9AE2B"/>
<path d="M162.529 210.34L167.756 206.594C167.789 206.571 167.825 206.554 167.864 206.545C167.903 206.536 167.943 206.535 167.982 206.541C168.021 206.548 168.059 206.562 168.093 206.583C168.127 206.604 168.156 206.631 168.179 206.664C168.202 206.696 168.219 206.733 168.228 206.771C168.237 206.81 168.238 206.85 168.232 206.89C168.225 206.929 168.211 206.966 168.19 207C168.169 207.034 168.141 207.063 168.109 207.086L168.101 207.092L168.092 207.098L162.751 210.651L162.746 210.654C162.704 210.682 162.653 210.692 162.604 210.683C162.555 210.673 162.511 210.645 162.483 210.604C162.455 210.562 162.443 210.512 162.452 210.462C162.461 210.413 162.488 210.369 162.529 210.34H162.529Z" fill="#F9AE2B"/>
<path d="M173.137 203.063L178.656 199.745C178.705 199.715 178.761 199.696 178.818 199.687C178.876 199.678 178.934 199.681 178.991 199.695C179.047 199.709 179.1 199.734 179.147 199.769C179.194 199.803 179.233 199.847 179.263 199.897C179.293 199.947 179.313 200.002 179.322 200.059C179.33 200.117 179.328 200.175 179.314 200.232C179.3 200.288 179.274 200.341 179.24 200.388C179.205 200.435 179.162 200.474 179.112 200.504L179.106 200.508L179.088 200.518L173.529 203.702L173.516 203.709C173.43 203.758 173.329 203.772 173.233 203.746C173.138 203.721 173.057 203.659 173.007 203.574C172.957 203.489 172.942 203.387 172.967 203.292C172.991 203.196 173.052 203.114 173.137 203.063V203.063Z" fill="#F9AE2B"/>
<path d="M184.32 196.672C186.24 195.679 188.217 194.801 190.241 194.043C190.308 194.017 190.38 194.006 190.451 194.008C190.523 194.011 190.593 194.027 190.658 194.057C190.723 194.086 190.782 194.129 190.831 194.181C190.88 194.234 190.918 194.295 190.943 194.362C190.968 194.429 190.979 194.501 190.976 194.572C190.974 194.644 190.957 194.714 190.927 194.779C190.897 194.844 190.854 194.903 190.801 194.951C190.749 195 190.687 195.038 190.62 195.062L190.614 195.064C188.625 195.803 186.676 196.645 184.775 197.588C184.654 197.646 184.515 197.654 184.388 197.61C184.261 197.567 184.156 197.475 184.096 197.354C184.036 197.234 184.026 197.095 184.068 196.967C184.11 196.839 184.201 196.733 184.32 196.672Z" fill="#F9AE2B"/>
<path d="M196.525 192.328L199.765 191.928C200.858 191.823 201.957 191.806 203.052 191.877C203.208 191.887 203.353 191.958 203.457 192.075C203.56 192.192 203.613 192.345 203.603 192.501C203.594 192.656 203.523 192.802 203.407 192.905C203.29 193.009 203.137 193.062 202.981 193.053L202.978 193.053C202.456 193.018 201.936 193 201.417 193.003C200.898 193.011 200.376 193.022 199.852 193.08L196.717 193.445L196.66 193.451C196.512 193.468 196.363 193.425 196.246 193.332C196.129 193.24 196.054 193.105 196.036 192.957C196.018 192.809 196.06 192.66 196.151 192.542C196.243 192.424 196.377 192.347 196.525 192.328V192.328Z" fill="#F9AE2B"/>
<path d="M209.481 192.708C211.593 193.082 213.708 193.452 215.812 193.86C215.972 193.891 216.112 193.984 216.203 194.118C216.294 194.253 216.328 194.417 216.297 194.577C216.267 194.736 216.175 194.877 216.041 194.968C215.907 195.06 215.742 195.094 215.583 195.065L209.277 193.914L209.265 193.912C209.106 193.883 208.965 193.791 208.872 193.658C208.78 193.525 208.745 193.361 208.773 193.202C208.802 193.043 208.893 192.901 209.025 192.809C209.158 192.716 209.322 192.68 209.481 192.708Z" fill="#F9AE2B"/>
<path d="M222.118 195.131L228.404 196.5C228.551 196.532 228.679 196.621 228.761 196.747C228.842 196.873 228.87 197.027 228.839 197.173C228.807 197.32 228.719 197.449 228.593 197.531C228.467 197.612 228.314 197.641 228.167 197.61L228.159 197.609L221.88 196.287L221.87 196.285C221.794 196.269 221.722 196.239 221.658 196.195C221.594 196.151 221.539 196.095 221.496 196.03C221.454 195.965 221.424 195.893 221.41 195.816C221.396 195.74 221.397 195.662 221.413 195.586C221.429 195.51 221.459 195.438 221.503 195.373C221.547 195.309 221.603 195.255 221.668 195.212C221.734 195.17 221.806 195.141 221.883 195.127C221.959 195.113 222.038 195.114 222.113 195.13L222.118 195.131Z" fill="#F9AE2B"/>
<path d="M234.648 197.789C235.676 197.931 236.716 197.972 237.753 197.911C238.277 197.896 238.797 197.801 239.319 197.751L240.886 197.576L240.937 197.571C241.071 197.556 241.206 197.594 241.312 197.678C241.418 197.762 241.487 197.885 241.503 198.019C241.519 198.153 241.481 198.289 241.398 198.395C241.315 198.502 241.194 198.572 241.059 198.589L239.438 198.799C238.895 198.856 238.358 198.956 237.811 198.977C236.708 199.048 235.601 199.012 234.505 198.869L234.501 198.869C234.358 198.85 234.228 198.775 234.14 198.66C234.052 198.545 234.014 198.4 234.033 198.257C234.052 198.114 234.127 197.984 234.241 197.896C234.356 197.808 234.501 197.77 234.644 197.789L234.648 197.789Z" fill="#F9AE2B"/>
<path d="M246.98 195.923C248.956 195.159 250.858 194.216 252.662 193.106C252.747 193.054 252.848 193.037 252.945 193.06C253.042 193.082 253.125 193.142 253.178 193.226C253.231 193.31 253.248 193.411 253.227 193.508C253.205 193.605 253.146 193.689 253.063 193.742C251.24 194.918 249.314 195.924 247.308 196.75C247.254 196.772 247.196 196.784 247.137 196.784C247.079 196.784 247.021 196.772 246.967 196.75C246.913 196.727 246.864 196.694 246.822 196.653C246.781 196.611 246.748 196.562 246.726 196.508C246.704 196.454 246.693 196.396 246.693 196.337C246.693 196.278 246.705 196.22 246.728 196.166C246.75 196.113 246.784 196.064 246.825 196.022C246.867 195.981 246.916 195.949 246.971 195.927L246.98 195.923Z" fill="#F9AE2B"/>
<path d="M257.752 189.305C259.33 187.88 260.756 186.295 262.006 184.574C262.035 184.533 262.08 184.506 262.129 184.497C262.179 184.489 262.23 184.501 262.271 184.53C262.312 184.559 262.341 184.602 262.35 184.652C262.359 184.701 262.348 184.753 262.32 184.794C261.112 186.586 259.72 188.247 258.167 189.75C258.138 189.778 258.104 189.8 258.067 189.815C258.03 189.829 257.99 189.837 257.95 189.836C257.91 189.835 257.871 189.827 257.834 189.811C257.798 189.795 257.764 189.772 257.737 189.743C257.709 189.715 257.687 189.681 257.672 189.643C257.657 189.606 257.65 189.567 257.651 189.527C257.652 189.487 257.66 189.447 257.676 189.41C257.692 189.374 257.715 189.34 257.744 189.313L257.752 189.305Z" fill="#F9AE2B"/>
<path d="M265.245 179.061L266.457 176.198V176.198L266.457 176.192L266.458 176.198V176.198L265.379 179.121C265.376 179.13 265.371 179.138 265.364 179.145C265.358 179.152 265.35 179.158 265.341 179.162C265.332 179.166 265.323 179.169 265.313 179.169C265.303 179.17 265.294 179.168 265.285 179.165C265.276 179.161 265.267 179.156 265.26 179.15C265.253 179.143 265.247 179.135 265.243 179.126C265.239 179.118 265.237 179.108 265.237 179.098C265.237 179.089 265.238 179.079 265.242 179.07L265.243 179.067L265.245 179.061Z" fill="#F9AE2B"/>
<path d="M268.152 180.882L265.601 181.218L264.329 181.374C263.907 181.441 263.487 181.523 263.069 181.608C261.398 181.943 259.753 182.397 258.148 182.969C256.559 183.572 255.019 184.293 253.538 185.126C252.036 185.939 250.538 186.766 249.042 187.608C246.056 189.292 243.05 190.947 240.044 192.599L230.993 197.502C229.483 198.315 227.92 199.059 226.386 199.84L224.075 200.999C223.31 201.397 222.526 201.753 221.726 202.08C218.53 203.414 215.267 204.505 212.01 205.581C205.494 207.738 198.949 209.788 192.38 211.78C198.791 209.33 205.228 206.957 211.692 204.662C214.909 203.477 218.151 202.368 221.26 200.994C222.834 200.34 224.325 199.499 225.854 198.744C227.372 197.96 228.902 197.22 230.409 196.401C236.455 193.167 242.513 189.952 248.581 186.755C250.103 185.963 251.62 185.16 253.167 184.402C254.709 183.611 256.309 182.939 257.954 182.393C259.611 181.902 261.301 181.531 263.012 181.284C263.438 181.222 263.864 181.162 264.292 181.117L265.581 181.031L268.152 180.882Z" fill="#F9AE2B"/>
<path d="M226.448 153.854C226.448 159.21 217.749 175.738 215.956 179.088C215.925 179.146 215.879 179.195 215.823 179.229C215.766 179.263 215.701 179.28 215.635 179.28C215.57 179.28 215.505 179.263 215.448 179.229C215.392 179.195 215.346 179.146 215.315 179.088C213.522 175.738 204.823 159.21 204.823 153.854C204.823 150.987 205.962 148.237 207.99 146.209C210.018 144.181 212.768 143.042 215.635 143.042C218.503 143.042 221.253 144.181 223.281 146.209C225.309 148.237 226.448 150.987 226.448 153.854H226.448Z" fill="#D62828"/>
<path d="M215.635 158.9C218.422 158.9 220.681 156.641 220.681 153.854C220.681 151.068 218.422 148.808 215.635 148.808C212.848 148.808 210.589 151.068 210.589 153.854C210.589 156.641 212.848 158.9 215.635 158.9Z" fill="#DBE8EC"/>
<path d="M278.008 178.135C277.347 181.726 269.476 191.734 267.86 193.759C267.832 193.794 267.795 193.821 267.753 193.837C267.711 193.853 267.666 193.857 267.622 193.849C267.577 193.841 267.536 193.821 267.502 193.791C267.469 193.761 267.444 193.723 267.43 193.68C266.641 191.213 262.849 179.058 263.51 175.466C263.863 173.544 264.967 171.84 266.576 170.731C268.186 169.622 270.17 169.197 272.093 169.551C274.016 169.905 275.719 171.008 276.829 172.618C277.938 174.228 278.362 176.212 278.008 178.135L278.008 178.135Z" fill="#D62828"/>
<path d="M270.759 180.24C272.659 180.24 274.199 178.7 274.199 176.801C274.199 174.901 272.659 173.361 270.759 173.361C268.859 173.361 267.319 174.901 267.319 176.801C267.319 178.7 268.859 180.24 270.759 180.24Z" fill="#DBE8EC"/>
<path d="M174.828 37.7678H193.736" stroke="#B9D4DB" stroke-width="3" stroke-miterlimit="10" stroke-linecap="round"/>
<path d="M174.828 43.2178H193.736" stroke="#B9D4DB" stroke-width="3" stroke-miterlimit="10" stroke-linecap="round"/>
<path d="M174.828 48.6677H193.736" stroke="#B9D4DB" stroke-width="3" stroke-miterlimit="10" stroke-linecap="round"/>
<path d="M267.233 126.427H286.142" stroke="#B9D4DB" stroke-width="3" stroke-miterlimit="10" stroke-linecap="round"/>
<path d="M267.233 131.877H286.142" stroke="#B9D4DB" stroke-width="3" stroke-miterlimit="10" stroke-linecap="round"/>
<path d="M267.233 137.327H286.142" stroke="#B9D4DB" stroke-width="3" stroke-miterlimit="10" stroke-linecap="round"/>
<path d="M2 208.873H20.9083" stroke="#B9D4DB" stroke-width="3" stroke-miterlimit="10" stroke-linecap="round"/>
<path d="M2 214.323H20.9083" stroke="#B9D4DB" stroke-width="3" stroke-miterlimit="10" stroke-linecap="round"/>
<path d="M2 219.773H20.9083" stroke="#B9D4DB" stroke-width="3" stroke-miterlimit="10" stroke-linecap="round"/>
<path d="M218.168 111.019C222.632 111.019 226.25 107.4 226.25 102.937C226.25 98.4729 222.632 94.8545 218.168 94.8545C213.705 94.8545 210.086 98.4729 210.086 102.937C210.086 107.4 213.705 111.019 218.168 111.019Z" fill="#B9D4DB"/>
<path d="M204.893 124.809C207.208 124.809 209.084 122.933 209.084 120.619C209.084 118.304 207.208 116.428 204.893 116.428C202.579 116.428 200.703 118.304 200.703 120.619C200.703 122.933 202.579 124.809 204.893 124.809Z" fill="#B9D4DB"/>
<path d="M197.602 99.8495C200.909 99.8495 203.589 97.1691 203.589 93.8628C203.589 90.5564 200.909 87.8761 197.602 87.8761C194.296 87.8761 191.616 90.5564 191.616 93.8628C191.616 97.1691 194.296 99.8495 197.602 99.8495Z" fill="#B9D4DB"/>
<path d="M67.1986 209.582C72.5094 209.582 76.8146 205.277 76.8146 199.966C76.8146 194.655 72.5094 190.35 67.1986 190.35C61.8878 190.35 57.5825 194.655 57.5825 199.966C57.5825 205.277 61.8878 209.582 67.1986 209.582Z" fill="#B9D4DB"/>
<path d="M48.8238 198.126C51.5901 198.126 53.8326 195.883 53.8326 193.117C53.8326 190.351 51.5901 188.108 48.8238 188.108C46.0575 188.108 43.8149 190.351 43.8149 193.117C43.8149 195.883 46.0575 198.126 48.8238 198.126Z" fill="#B9D4DB"/>
<path d="M53.4244 178.98C55.0201 178.98 56.3136 177.686 56.3136 176.091C56.3136 174.495 55.0201 173.201 53.4244 173.201C51.8287 173.201 50.5352 174.495 50.5352 176.091C50.5352 177.686 51.8287 178.98 53.4244 178.98Z" fill="#B9D4DB"/>
<path d="M69.4184 185.061C73.2436 185.061 76.3445 181.96 76.3445 178.135C76.3445 174.31 73.2436 171.209 69.4184 171.209C65.5931 171.209 62.4922 174.31 62.4922 178.135C62.4922 181.96 65.5931 185.061 69.4184 185.061Z" fill="#B9D4DB"/>
<path d="M97.4456 34.0126C102.756 34.0126 107.062 29.7074 107.062 24.3966C107.062 19.0858 102.756 14.7805 97.4456 14.7805C92.1348 14.7805 87.8296 19.0858 87.8296 24.3966C87.8296 29.7074 92.1348 34.0126 97.4456 34.0126Z" fill="#B9D4DB"/>
<path d="M100.39 10.0177C103.156 10.0177 105.399 7.77515 105.399 5.00884C105.399 2.24254 103.156 0 100.39 0C97.6234 0 95.3809 2.24254 95.3809 5.00884C95.3809 7.77515 97.6234 10.0177 100.39 10.0177Z" fill="#B9D4DB"/>
<path d="M133.085 16.5971C135.479 16.5971 137.42 14.6561 137.42 12.2619C137.42 9.86767 135.479 7.92676 133.085 7.92676C130.69 7.92676 128.75 9.86767 128.75 12.2619C128.75 14.6561 130.69 16.5971 133.085 16.5971Z" fill="#B9D4DB"/>
<path d="M117.998 8.91725C119.593 8.91725 120.887 7.6237 120.887 6.02802C120.887 4.43235 119.593 3.13879 117.998 3.13879C116.402 3.13879 115.108 4.43235 115.108 6.02802C115.108 7.6237 116.402 8.91725 117.998 8.91725Z" fill="#B9D4DB"/>
<path d="M119.269 29.0282C123.095 29.0282 126.196 25.9273 126.196 22.1021C126.196 18.2769 123.095 15.1759 119.269 15.1759C115.444 15.1759 112.343 18.2769 112.343 22.1021C112.343 25.9273 115.444 29.0282 119.269 29.0282Z" fill="#B9D4DB"/>
<path d="M213.91 74.551C212.215 79.0081 199.746 90.009 197.194 92.2291C197.15 92.2678 197.096 92.2938 197.038 92.3042C196.98 92.3145 196.921 92.309 196.866 92.2881C196.811 92.2673 196.763 92.2319 196.727 92.1857C196.69 92.1395 196.667 92.0843 196.66 92.0261C196.228 88.6713 194.22 72.165 195.915 67.708C196.822 65.3217 198.64 63.3936 200.969 62.3479C203.298 61.3022 205.947 61.2246 208.334 62.132C210.72 63.0395 212.648 64.8577 213.694 67.1867C214.739 69.5157 214.817 72.1647 213.91 74.551Z" fill="#409CB5"/>
<path d="M204.912 75.6216C207.393 75.6216 209.404 73.6104 209.404 71.1295C209.404 68.6485 207.393 66.6373 204.912 66.6373C202.431 66.6373 200.42 68.6485 200.42 71.1295C200.42 73.6104 202.431 75.6216 204.912 75.6216Z" fill="#DBE8EC"/>
<path d="M55.5854 170.479C56.2017 175.208 50.4242 190.8 49.2268 193.963C49.2062 194.018 49.171 194.067 49.125 194.103C49.079 194.14 49.024 194.163 48.9657 194.171C48.9075 194.178 48.8483 194.17 48.7945 194.146C48.7407 194.123 48.6943 194.085 48.6603 194.037C46.6921 191.286 37.1111 177.696 36.4948 172.968C36.3314 171.714 36.4165 170.441 36.7453 169.22C37.0741 167.999 37.64 166.856 38.4109 165.854C39.9676 163.83 42.2645 162.508 44.796 162.178C47.3276 161.848 49.8866 162.537 51.91 164.094C53.9334 165.651 55.2555 167.948 55.5854 170.479Z" fill="#409CB5"/>
<path d="M46.04 176.216C48.521 176.216 50.5322 174.204 50.5322 171.723C50.5322 169.243 48.521 167.231 46.04 167.231C43.5591 167.231 41.5479 169.243 41.5479 171.723C41.5479 174.204 43.5591 176.216 46.04 176.216Z" fill="#DBE8EC"/>
</svg>
