<svg width="18" height="19" viewBox="0 0 18 19" fill="none" xmlns="http://www.w3.org/2000/svg">
<path d="M9 2.33672C10.305 2.33672 11.3625 3.39422 11.3625 4.69922C11.3625 6.00422 10.305 7.06172 9 7.06172C7.695 7.06172 6.6375 6.00422 6.6375 4.69922C6.6375 3.39422 7.695 2.33672 9 2.33672ZM9 12.4617C12.3413 12.4617 15.8625 14.1042 15.8625 14.8242V16.0617H2.1375V14.8242C2.1375 14.1042 5.65875 12.4617 9 12.4617ZM9 0.199219C6.51375 0.199219 4.5 2.21297 4.5 4.69922C4.5 7.18547 6.51375 9.19922 9 9.19922C11.4862 9.19922 13.5 7.18547 13.5 4.69922C13.5 2.21297 11.4862 0.199219 9 0.199219ZM9 10.3242C5.99625 10.3242 0 11.8317 0 14.8242V18.1992H18V14.8242C18 11.8317 12.0037 10.3242 9 10.3242Z" fill="#686B6F"/>
</svg>
