<svg width="568" height="394" viewBox="0 0 568 394" fill="none" xmlns="http://www.w3.org/2000/svg">
<path d="M369.836 164.679C324.362 164.679 287.497 127.814 287.497 82.3394C287.497 36.8646 324.362 0 369.836 0C415.311 0 452.176 36.8646 452.176 82.3394C452.176 127.814 415.311 164.679 369.836 164.679Z" fill="#DBE8EC"/>
<path d="M423.607 55.4866H391.305" stroke="#B9D4DB" stroke-width="3" stroke-miterlimit="10" stroke-linecap="round"/>
<path d="M423.607 64.7971H391.305" stroke="#B9D4DB" stroke-width="3" stroke-miterlimit="10" stroke-linecap="round"/>
<path d="M423.607 74.1077H391.305" stroke="#B9D4DB" stroke-width="3" stroke-miterlimit="10" stroke-linecap="round"/>
<path d="M0.000244141 202.31V184.119C0.000244141 180.65 1.3783 177.323 3.83118 174.87C6.28406 172.417 9.61084 171.039 13.0797 171.039H59.2458C60.9634 171.039 62.6642 170.701 64.2511 170.044C65.838 169.387 67.2798 168.423 68.4943 167.209C69.7088 165.994 70.6723 164.552 71.3296 162.965C71.9869 161.378 72.3252 159.678 72.3252 157.96V139.769C72.3252 138.051 71.9869 136.35 71.3296 134.764C70.6723 133.177 69.7088 131.735 68.4943 130.52C67.2798 129.306 65.838 128.342 64.2511 127.685C62.6642 127.028 60.9634 126.689 59.2458 126.689H57.7881C54.3192 126.689 50.9924 125.311 48.5395 122.859C46.0866 120.406 44.7086 117.079 44.7086 113.61V95.4188C44.7086 91.9499 46.0866 88.6231 48.5395 86.1702C50.9924 83.7174 54.3192 82.3394 57.7881 82.3394H479.695C483.164 82.3394 486.491 83.7174 488.944 86.1702C491.397 88.6231 492.775 91.9499 492.775 95.4188V113.61C492.775 117.079 491.397 120.406 488.944 122.859C486.491 125.311 483.164 126.689 479.695 126.689C476.226 126.689 472.9 128.067 470.447 130.52C467.994 132.973 466.616 136.3 466.616 139.769V157.96C466.616 161.429 467.994 164.756 470.447 167.209C472.9 169.661 476.226 171.039 479.695 171.039H530.275C533.744 171.039 537.07 172.417 539.523 174.87C541.976 177.323 543.354 180.65 543.354 184.119V202.31C543.354 205.779 541.976 209.106 539.523 211.559C537.07 214.012 533.744 215.39 530.275 215.39H510.428C506.959 215.39 503.632 216.768 501.179 219.22C498.727 221.673 497.349 225 497.349 228.469V246.66C497.349 250.129 498.727 253.456 501.179 255.909C503.632 258.362 506.959 259.74 510.428 259.74H510.476C513.945 259.74 517.272 261.118 519.725 263.571C522.177 266.023 523.555 269.35 523.555 272.819V291.01C523.555 294.479 522.177 297.806 519.725 300.259C517.272 302.712 513.945 304.09 510.476 304.09H507.605C505.887 304.09 504.186 304.428 502.599 305.085C501.012 305.743 499.571 306.706 498.356 307.921C497.141 309.135 496.178 310.577 495.521 312.164C494.863 313.751 494.525 315.452 494.525 317.169V335.36C494.525 337.078 494.863 338.779 495.521 340.366C496.178 341.953 497.141 343.394 498.356 344.609C499.571 345.824 501.012 346.787 502.599 347.444C504.186 348.102 505.887 348.44 507.605 348.44H554.729C558.198 348.44 561.525 349.818 563.978 352.271C566.431 354.724 567.809 358.05 567.809 361.519V379.71C567.809 381.428 567.47 383.129 566.813 384.716C566.156 386.303 565.192 387.744 563.978 388.959C562.763 390.174 561.321 391.137 559.734 391.794C558.148 392.452 556.447 392.79 554.729 392.79H50.7661C47.2972 392.79 43.9705 391.412 41.5176 388.959C39.0647 386.506 37.6866 383.179 37.6866 379.71V361.519C37.6866 358.05 39.0647 354.724 41.5176 352.271C43.9705 349.818 47.2972 348.44 50.7661 348.44H62.1067C63.8243 348.44 65.5251 348.102 67.112 347.444C68.6989 346.787 70.1407 345.823 71.3553 344.609C72.5698 343.394 73.5332 341.953 74.1905 340.366C74.8478 338.779 75.1861 337.078 75.1861 335.36V317.169C75.1861 315.452 74.8478 313.751 74.1905 312.164C73.5332 310.577 72.5698 309.135 71.3553 307.921C70.1407 306.706 68.6989 305.743 67.112 305.085C65.5251 304.428 63.8243 304.09 62.1067 304.09H35.3668C31.8979 304.09 28.5711 302.712 26.1182 300.259C23.6653 297.806 22.2873 294.479 22.2873 291.01V272.819C22.2873 271.102 22.6257 269.401 23.283 267.814C23.9402 266.227 24.9037 264.785 26.1182 263.571C27.3328 262.356 28.7746 261.393 30.3615 260.735C31.9483 260.078 33.6492 259.74 35.3668 259.74H43.4784C46.9473 259.74 50.2741 258.362 52.727 255.909C55.1799 253.456 56.5579 250.129 56.5579 246.66V228.469C56.5579 225 55.1799 221.673 52.727 219.22C50.2741 216.768 46.9473 215.39 43.4784 215.39H13.0797C9.61084 215.39 6.28406 214.012 3.83118 211.559C1.3783 209.106 0.000244141 205.779 0.000244141 202.31Z" fill="#DBE8EC"/>
<path d="M546.854 361.693H514.551" stroke="#B9D4DB" stroke-width="3" stroke-miterlimit="10" stroke-linecap="round"/>
<path d="M546.854 371.004H514.551" stroke="#B9D4DB" stroke-width="3" stroke-miterlimit="10" stroke-linecap="round"/>
<path d="M546.854 380.314H514.551" stroke="#B9D4DB" stroke-width="3" stroke-miterlimit="10" stroke-linecap="round"/>
<path d="M116.071 216.733H83.7685" stroke="#B9D4DB" stroke-width="3" stroke-miterlimit="10" stroke-linecap="round"/>
<path d="M116.071 226.043H83.7685" stroke="#B9D4DB" stroke-width="3" stroke-miterlimit="10" stroke-linecap="round"/>
<path d="M116.071 235.354H83.7685" stroke="#B9D4DB" stroke-width="3" stroke-miterlimit="10" stroke-linecap="round"/>
<path d="M472.525 253.043C463.452 253.043 456.097 245.688 456.097 236.615C456.097 227.542 463.452 220.187 472.525 220.187C481.598 220.187 488.953 227.542 488.953 236.615C488.953 245.688 481.598 253.043 472.525 253.043Z" fill="#B9D4DB"/>
<path d="M471.859 211.677C467.133 211.677 463.302 207.846 463.302 203.12C463.302 198.394 467.133 194.563 471.859 194.563C476.585 194.563 480.416 198.394 480.416 203.12C480.416 207.846 476.585 211.677 471.859 211.677Z" fill="#B9D4DB"/>
<path d="M414.863 215.526C410.773 215.526 407.457 212.21 407.457 208.12C407.457 204.03 410.773 200.714 414.863 200.714C418.954 200.714 422.27 204.03 422.27 208.12C422.27 212.21 418.954 215.526 414.863 215.526Z" fill="#B9D4DB"/>
<path d="M441.808 205.859C439.082 205.859 436.872 203.649 436.872 200.923C436.872 198.197 439.082 195.987 441.808 195.987C444.534 195.987 446.744 198.197 446.744 200.923C446.744 203.649 444.534 205.859 441.808 205.859Z" fill="#B9D4DB"/>
<path d="M436.072 239.698C429.537 239.698 424.239 234.401 424.239 227.866C424.239 221.331 429.537 216.033 436.072 216.033C442.607 216.033 447.904 221.331 447.904 227.866C447.904 234.401 442.607 239.698 436.072 239.698Z" fill="#B9D4DB"/>
<path d="M76.9812 374.997C67.9083 374.997 60.5532 367.642 60.5532 358.569C60.5532 349.496 67.9083 342.141 76.9812 342.141C86.0541 342.141 93.4092 349.496 93.4092 358.569C93.4092 367.642 86.0541 374.997 76.9812 374.997Z" fill="#B9D4DB"/>
<path d="M111.753 375.223C107.028 375.223 103.196 371.391 103.196 366.665C103.196 361.94 107.028 358.108 111.753 358.108C116.479 358.108 120.311 361.94 120.311 366.665C120.311 371.391 116.479 375.223 111.753 375.223Z" fill="#B9D4DB"/>
<path d="M111.753 343.859C105.218 343.859 99.9207 338.561 99.9207 332.026C99.9207 325.491 105.218 320.194 111.753 320.194C118.288 320.194 123.586 325.491 123.586 332.026C123.586 338.561 118.288 343.859 111.753 343.859Z" fill="#B9D4DB"/>
<path d="M75.6414 83.6514C66.5684 83.6514 59.2134 76.2963 59.2134 67.2234C59.2134 58.1505 66.5684 50.7954 75.6414 50.7954C84.7143 50.7954 92.0693 58.1505 92.0693 67.2234C92.0693 76.2963 84.7143 83.6514 75.6414 83.6514Z" fill="#B9D4DB"/>
<path d="M108.229 91.0579C104.138 91.0579 100.823 87.742 100.823 83.6517C100.823 79.5614 104.138 76.2456 108.229 76.2456C112.319 76.2456 115.635 79.5614 115.635 83.6517C115.635 87.742 112.319 91.0579 108.229 91.0579Z" fill="#B9D4DB"/>
<path d="M117.308 67.2233C110.773 67.2233 105.475 61.9257 105.475 55.3907C105.475 48.8557 110.773 43.5581 117.308 43.5581C123.843 43.5581 129.141 48.8557 129.141 55.3907C129.141 61.9257 123.843 67.2233 117.308 67.2233Z" fill="#B9D4DB"/>
<path d="M330.005 347.949H253.523V387.451H330.005V347.949Z" fill="#A0C5FF"/>
<g opacity="0.3">
<path d="M330.004 373.585L253.522 365.075V347.949H330.004V373.585Z" fill="#000141"/>
</g>
<path d="M439.475 380.519H141.952C135.686 380.519 130.606 385.599 130.606 391.865H450.822C450.821 385.598 445.742 380.519 439.475 380.519Z" fill="#A0C5FF"/>
<path d="M516.935 85.6493V338.124C516.935 348.416 508.578 356.773 498.286 356.773H98.3191C89.6075 356.773 82.2863 350.777 80.2415 342.684C79.8696 341.221 79.6782 339.696 79.6782 338.124V85.6493C79.6782 75.3478 88.0349 67 98.3176 67H498.285C508.578 67 516.935 75.3478 516.935 85.6493Z" fill="#A0C5FF"/>
<path d="M491.192 77.6149H105.419C97.0643 77.6149 90.291 84.3885 90.291 92.744V331.024C90.291 339.38 97.0643 346.154 105.419 346.154H491.192C499.547 346.154 506.32 339.38 506.32 331.024V92.744C506.32 84.3885 499.547 77.6149 491.192 77.6149Z" fill="#E7F0FE"/>
<path d="M491.192 77.6149H105.419C97.0643 77.6149 90.291 84.3885 90.291 92.744V331.024C90.291 339.38 97.0643 346.154 105.419 346.154H491.192C499.547 346.154 506.32 339.38 506.32 331.024V92.744C506.32 84.3885 499.547 77.6149 491.192 77.6149Z" fill="#E7F0FE"/>
<path d="M491.191 86.699H321.693V337.068H491.191C494.524 337.068 497.236 334.357 497.236 331.025V92.7441C497.236 89.4106 494.523 86.699 491.191 86.699Z" fill="white"/>
<path d="M87.4318 393.107H509.18C510.333 393.107 511.268 392.172 511.268 391.019C511.268 389.866 510.333 388.931 509.18 388.931H87.4318C86.279 388.931 85.3438 389.866 85.3438 391.019C85.3438 392.173 86.2774 393.107 87.4318 393.107Z" fill="#708AC6"/>
<path d="M359.243 131.597C353.344 131.597 348.565 136.376 348.565 142.275C348.565 148.173 353.346 152.953 359.243 152.953C365.141 152.953 369.92 148.173 369.92 142.275C369.92 136.378 365.141 131.597 359.243 131.597ZM359.243 151.198C354.314 151.198 350.31 147.206 350.31 142.276C350.31 137.347 354.314 133.354 359.243 133.354C364.172 133.354 368.164 137.347 368.164 142.276C368.164 147.206 364.172 151.198 359.243 151.198Z" fill="#A0C5FF"/>
<path d="M410.422 134.075H382.326C381.634 134.075 380.994 134.547 380.883 135.23C380.741 136.098 381.409 136.85 382.252 136.85H410.422C411.189 136.85 411.81 136.228 411.81 135.463C411.81 134.697 411.188 134.075 410.422 134.075Z" fill="#A0C5FF"/>
<path d="M464.08 134.075H415.083C414.316 134.075 413.696 134.697 413.696 135.463C413.696 136.23 414.318 136.85 415.083 136.85H464.154C464.996 136.85 465.665 136.098 465.523 135.23C465.412 134.547 464.771 134.075 464.08 134.075Z" fill="#A0C5FF"/>
<path d="M422.535 140.887H382.328C381.637 140.887 380.996 141.36 380.885 142.042C380.743 142.911 381.412 143.662 382.254 143.662H422.536C423.303 143.662 423.923 143.04 423.923 142.275C423.922 141.509 423.3 140.887 422.535 140.887Z" fill="#A0C5FF"/>
<path d="M422.535 147.701H382.328C381.637 147.701 380.996 148.173 380.885 148.855C380.743 149.724 381.412 150.477 382.254 150.477H422.536C423.303 150.477 423.923 149.855 423.923 149.09C423.922 148.321 423.3 147.701 422.535 147.701Z" fill="#A0C5FF"/>
<path d="M464.079 140.887H427.193C426.427 140.887 425.805 141.509 425.805 142.275C425.805 143.042 426.427 143.662 427.193 143.662H464.152C464.994 143.662 465.663 142.911 465.521 142.042C465.411 141.361 464.771 140.887 464.079 140.887Z" fill="#A0C5FF"/>
<path d="M359.087 147.604C358.914 147.604 358.741 147.587 358.57 147.551C357.897 147.412 357.309 147.009 356.937 146.432L353.158 140.582C352.391 139.395 352.732 137.81 353.92 137.043C355.108 136.273 356.692 136.617 357.46 137.804L359.826 141.469L372.047 133.288C373.222 132.498 374.811 132.814 375.598 133.992C376.385 135.165 376.07 136.754 374.894 137.541L360.511 147.17C360.087 147.455 359.59 147.604 359.087 147.604Z" fill="#A0C5FF"/>
<path d="M444.184 178.418C444.184 184.316 448.964 189.096 454.862 189.096C460.76 189.096 465.54 184.316 465.54 178.418C465.54 172.519 460.76 167.739 454.862 167.739C448.964 167.739 444.184 172.519 444.184 178.418ZM445.94 178.418C445.94 173.488 449.933 169.496 454.862 169.496C459.791 169.496 463.794 173.488 463.794 178.418C463.794 183.347 459.791 187.339 454.862 187.339C449.933 187.339 445.94 183.347 445.94 178.418Z" fill="#A0C5FF"/>
<path d="M403.684 170.218H431.78C432.472 170.218 433.112 170.69 433.223 171.373C433.365 172.241 432.697 172.993 431.854 172.993H403.684C402.917 172.993 402.296 172.371 402.296 171.606C402.296 170.839 402.918 170.218 403.684 170.218Z" fill="#A0C5FF"/>
<path d="M350.027 170.218H399.024C399.791 170.218 400.411 170.84 400.411 171.606C400.411 172.373 399.789 172.993 399.024 172.993H349.953C349.11 172.993 348.442 172.241 348.584 171.373C348.695 170.69 349.336 170.218 350.027 170.218Z" fill="#A0C5FF"/>
<path d="M391.573 177.03H431.779C432.471 177.03 433.111 177.503 433.222 178.185C433.364 179.054 432.696 179.805 431.853 179.805H391.571C390.804 179.805 390.184 179.183 390.184 178.418C390.186 177.652 390.808 177.03 391.573 177.03Z" fill="#A0C5FF"/>
<path d="M391.573 183.842H431.779C432.471 183.842 433.111 184.315 433.222 184.997C433.364 185.866 432.696 186.619 431.853 186.619H391.571C390.804 186.619 390.184 185.997 390.184 185.231C390.186 184.464 390.808 183.842 391.573 183.842Z" fill="#A0C5FF"/>
<path d="M350.029 177.03H386.914C387.679 177.03 388.301 177.652 388.301 178.418C388.301 179.185 387.679 179.805 386.914 179.805H349.953C349.11 179.805 348.442 179.054 348.584 178.185C348.695 177.503 349.337 177.03 350.029 177.03Z" fill="#A0C5FF"/>
<path d="M456.052 182.489C455.879 182.489 455.706 182.472 455.535 182.436C454.862 182.297 454.274 181.895 453.902 181.317L450.123 175.467C449.356 174.28 449.697 172.695 450.885 171.928C452.073 171.158 453.657 171.502 454.425 172.689L456.791 176.354L469.012 168.173C470.186 167.383 471.776 167.699 472.563 168.877C473.35 170.05 473.035 171.639 471.859 172.426L457.476 182.055C457.052 182.341 456.555 182.489 456.052 182.489Z" fill="#A0C5FF"/>
<path d="M435.016 309.952C435.016 309.952 428.522 326.895 423.061 336.668C432.599 336.668 439.836 336.668 439.836 336.668V315.045L435.016 309.952Z" fill="#FECECC"/>
<path d="M455.333 285.282C455.333 285.282 440.021 295.948 433.362 309.804C433.362 309.804 442.512 327.57 447.973 324.711C455.949 320.533 455.333 285.282 455.333 285.282Z" fill="#A0C5FF"/>
<path d="M485.173 336.668C484.911 314.219 478.196 284.875 460.208 284.464C445.827 284.137 436.701 313.23 435.015 336.668H485.173Z" fill="#5D74E4"/>
<path d="M448.499 298.8C448.432 298.8 448.365 298.766 448.327 298.702C448.268 298.607 448.299 298.483 448.395 298.425C449.351 297.843 449.109 296.888 449.098 296.847C449.069 296.739 449.134 296.628 449.24 296.599C449.347 296.57 449.458 296.633 449.489 296.739C449.611 297.181 449.583 298.175 448.606 298.769C448.572 298.79 448.535 298.8 448.499 298.8Z" fill="#A0C5FF"/>
<path d="M453.378 308.154C453.31 308.154 453.244 308.12 453.205 308.057C453.146 307.961 453.177 307.836 453.273 307.779C454.23 307.197 453.987 306.242 453.977 306.202C453.947 306.094 454.012 305.983 454.119 305.953C454.225 305.924 454.336 305.987 454.367 306.094C454.489 306.535 454.461 307.527 453.484 308.123C453.45 308.145 453.415 308.154 453.378 308.154Z" fill="#A0C5FF"/>
<path d="M463.46 300.241C463.392 300.241 463.326 300.207 463.287 300.144C463.228 300.048 463.259 299.923 463.355 299.866C464.312 299.284 464.07 298.329 464.059 298.289C464.029 298.181 464.094 298.07 464.201 298.04C464.307 298.011 464.418 298.074 464.449 298.181C464.571 298.622 464.543 299.614 463.566 300.21C463.532 300.232 463.495 300.241 463.46 300.241Z" fill="#A0C5FF"/>
<path d="M449.402 313.541C449.402 313.609 449.368 313.676 449.305 313.714C449.209 313.773 449.084 313.742 449.027 313.646C448.445 312.689 447.49 312.932 447.45 312.943C447.342 312.972 447.23 312.907 447.201 312.801C447.17 312.694 447.235 312.583 447.342 312.552C447.783 312.43 448.775 312.458 449.371 313.435C449.392 313.469 449.402 313.506 449.402 313.541Z" fill="#A0C5FF"/>
<path d="M440.038 322.179C439.97 322.179 439.904 322.145 439.865 322.082C439.807 321.986 439.837 321.861 439.933 321.804C440.89 321.222 440.648 320.267 440.637 320.227C440.607 320.119 440.672 320.008 440.779 319.978C440.885 319.949 440.996 320.012 441.027 320.119C441.149 320.56 441.121 321.553 440.145 322.148C440.111 322.17 440.074 322.179 440.038 322.179Z" fill="#A0C5FF"/>
<path d="M447.286 302.991C447.28 302.923 447.308 302.854 447.367 302.809C447.456 302.743 447.583 302.76 447.649 302.849C448.319 303.746 449.246 303.414 449.285 303.4C449.39 303.362 449.506 303.414 449.546 303.519C449.586 303.623 449.533 303.74 449.429 303.78C448.999 303.944 448.01 304.01 447.324 303.093C447.303 303.062 447.291 303.027 447.286 302.991Z" fill="#A0C5FF"/>
<path d="M458.82 295.852C458.814 295.784 458.841 295.714 458.9 295.67C458.989 295.603 459.116 295.622 459.184 295.711C459.854 296.608 460.781 296.276 460.82 296.262C460.925 296.224 461.04 296.276 461.081 296.381C461.121 296.485 461.068 296.602 460.963 296.642C460.536 296.806 459.545 296.872 458.858 295.955C458.837 295.923 458.824 295.887 458.82 295.852Z" fill="#A0C5FF"/>
<path d="M451.713 321.503C451.707 321.435 451.734 321.366 451.793 321.321C451.883 321.255 452.009 321.273 452.075 321.363C452.745 322.259 453.673 321.928 453.711 321.914C453.816 321.875 453.932 321.928 453.972 322.033C454.012 322.136 453.96 322.253 453.855 322.293C453.426 322.457 452.435 322.523 451.75 321.607C451.73 321.574 451.716 321.539 451.713 321.503Z" fill="#A0C5FF"/>
<path d="M461.605 306.717C461.599 306.649 461.627 306.58 461.686 306.535C461.775 306.469 461.902 306.487 461.97 306.575C462.639 307.472 463.567 307.14 463.605 307.126C463.71 307.087 463.826 307.14 463.866 307.245C463.906 307.348 463.854 307.466 463.749 307.506C463.32 307.669 462.331 307.736 461.644 306.819C461.621 306.788 461.608 306.753 461.605 306.717Z" fill="#A0C5FF"/>
<path d="M439.22 314.416C439.214 314.349 439.242 314.279 439.3 314.234C439.39 314.168 439.516 314.187 439.583 314.276C440.253 315.173 441.18 314.841 441.219 314.827C441.324 314.788 441.439 314.841 441.479 314.946C441.52 315.049 441.467 315.167 441.362 315.207C440.933 315.37 439.944 315.437 439.257 314.52C439.237 314.487 439.223 314.452 439.22 314.416Z" fill="#A0C5FF"/>
<path d="M456.763 301.263C456.392 301.263 456.139 301.044 455.815 300.761C455.667 300.633 455.5 300.488 455.291 300.334C454.815 299.987 454.749 300.047 454.428 300.335C454.252 300.494 454.01 300.71 453.635 300.903C453.287 301.081 452.962 301.11 452.664 300.991C452.135 300.778 451.917 300.167 451.909 300.141C451.872 300.036 451.929 299.92 452.034 299.883C452.139 299.846 452.255 299.902 452.292 300.007C452.294 300.011 452.46 300.473 452.818 300.616C453.005 300.69 453.212 300.667 453.453 300.544C453.781 300.375 453.991 300.187 454.159 300.036C454.551 299.684 454.828 299.494 455.531 300.008C455.755 300.172 455.929 300.323 456.082 300.456C456.562 300.872 456.707 300.999 457.321 300.681C457.42 300.63 457.542 300.669 457.595 300.767C457.646 300.866 457.607 300.988 457.508 301.041C457.203 301.198 456.965 301.263 456.763 301.263Z" fill="#A0C5FF"/>
<path d="M460.426 320.758C460.055 320.758 459.802 320.539 459.478 320.256C459.33 320.128 459.163 319.983 458.953 319.829C458.478 319.482 458.412 319.542 458.091 319.83C457.915 319.989 457.672 320.206 457.297 320.398C456.95 320.576 456.625 320.605 456.327 320.485C455.797 320.272 455.58 319.661 455.572 319.634C455.535 319.53 455.591 319.414 455.697 319.377C455.802 319.34 455.918 319.395 455.955 319.5C455.956 319.505 456.123 319.966 456.481 320.11C456.668 320.184 456.875 320.161 457.115 320.037C457.444 319.869 457.654 319.681 457.822 319.53C458.214 319.178 458.49 318.988 459.194 319.502C459.418 319.665 459.592 319.817 459.745 319.949C460.225 320.366 460.37 320.493 460.984 320.175C461.083 320.124 461.205 320.162 461.257 320.261C461.308 320.36 461.27 320.482 461.171 320.534C460.865 320.692 460.628 320.758 460.426 320.758Z" fill="#A0C5FF"/>
<path d="M442.446 309.952C442.429 309.952 442.412 309.95 442.395 309.946C441.858 309.807 441.624 309.473 441.522 309.219C441.331 308.74 441.46 308.182 441.673 307.839C442.05 307.234 442.186 306.734 441.627 306.262C441.343 306.021 441.301 305.772 441.317 305.606C441.365 305.087 442.002 304.711 442.074 304.669C442.172 304.613 442.295 304.647 442.351 304.745C442.406 304.842 442.372 304.965 442.275 305.021C442.139 305.1 441.744 305.38 441.72 305.643C441.716 305.681 441.706 305.799 441.888 305.951C442.829 306.748 442.24 307.695 442.017 308.052C441.863 308.299 441.76 308.723 441.899 309.067C441.996 309.311 442.198 309.475 442.497 309.552C442.605 309.58 442.67 309.691 442.642 309.799C442.619 309.892 442.536 309.952 442.446 309.952Z" fill="#A0C5FF"/>
<path d="M446.586 334.475C446.569 334.475 446.552 334.473 446.535 334.469C445.998 334.33 445.764 333.996 445.662 333.742C445.47 333.263 445.6 332.705 445.813 332.362C446.189 331.757 446.325 331.257 445.767 330.785C445.483 330.544 445.441 330.296 445.456 330.129C445.504 329.61 446.142 329.234 446.214 329.192C446.311 329.136 446.435 329.17 446.49 329.268C446.546 329.365 446.512 329.488 446.415 329.544C446.279 329.623 445.884 329.904 445.861 330.166C445.858 330.204 445.847 330.322 446.029 330.475C446.97 331.271 446.381 332.218 446.159 332.575C446.004 332.822 445.901 333.246 446.04 333.59C446.137 333.834 446.339 333.998 446.639 334.075C446.747 334.103 446.811 334.214 446.784 334.322C446.757 334.415 446.676 334.475 446.586 334.475Z" fill="#A0C5FF"/>
<path d="M444.622 328.445C444.605 328.445 444.588 328.443 444.571 328.439C444.034 328.3 443.799 327.966 443.697 327.712C443.506 327.233 443.636 326.675 443.849 326.332C444.225 325.727 444.361 325.227 443.802 324.755C443.518 324.514 443.477 324.266 443.492 324.099C443.54 323.58 444.177 323.204 444.25 323.162C444.347 323.107 444.47 323.141 444.526 323.238C444.582 323.335 444.548 323.459 444.45 323.514C444.315 323.593 443.92 323.874 443.896 324.136C443.893 324.175 443.882 324.292 444.065 324.445C445.006 325.241 444.416 326.189 444.194 326.545C444.04 326.792 443.936 327.216 444.075 327.561C444.173 327.804 444.375 327.968 444.674 328.045C444.782 328.073 444.847 328.184 444.819 328.292C444.793 328.383 444.711 328.445 444.622 328.445Z" fill="#A0C5FF"/>
<path d="M458.968 311.885C458.978 311.899 458.985 311.915 458.991 311.932C459.178 312.455 459.035 312.836 458.882 313.063C458.595 313.489 458.058 313.697 457.655 313.713C456.944 313.74 456.453 313.909 456.377 314.639C456.339 315.009 456.155 315.183 456.008 315.264C455.552 315.515 454.883 315.2 454.808 315.163C454.707 315.114 454.666 314.994 454.715 314.893C454.765 314.793 454.885 314.751 454.985 314.801C455.126 314.87 455.581 315.037 455.812 314.91C455.846 314.892 455.948 314.835 455.974 314.597C456.104 313.37 457.22 313.325 457.64 313.31C457.931 313.297 458.339 313.146 458.547 312.838C458.694 312.62 458.715 312.361 458.612 312.069C458.575 311.964 458.629 311.848 458.734 311.81C458.822 311.777 458.917 311.811 458.968 311.885Z" fill="#A0C5FF"/>
<path d="M455.505 330.387C455.505 330.404 455.503 330.421 455.498 330.438C455.359 330.975 455.026 331.209 454.772 331.311C454.293 331.502 453.734 331.373 453.392 331.16C452.787 330.783 452.287 330.647 451.815 331.206C451.574 331.49 451.325 331.532 451.159 331.516C450.64 331.468 450.264 330.831 450.222 330.759C450.166 330.661 450.2 330.538 450.298 330.482C450.395 330.427 450.518 330.461 450.574 330.558C450.653 330.694 450.933 331.089 451.196 331.114C451.234 331.117 451.352 331.127 451.504 330.945C452.301 330.004 453.248 330.593 453.605 330.816C453.852 330.97 454.276 331.073 454.62 330.934C454.864 330.837 455.028 330.635 455.105 330.336C455.133 330.228 455.244 330.163 455.352 330.191C455.443 330.215 455.505 330.297 455.505 330.387Z" fill="#A0C5FF"/>
<path d="M446.621 322.122C446.043 322.122 445.574 321.653 445.574 321.076C445.574 320.5 446.043 320.031 446.621 320.031C447.198 320.031 447.667 320.5 447.667 321.076C447.665 321.653 447.196 322.122 446.621 322.122ZM446.621 320.435C446.267 320.435 445.98 320.722 445.98 321.076C445.98 321.429 446.267 321.716 446.621 321.716C446.974 321.716 447.261 321.429 447.261 321.076C447.261 320.722 446.974 320.435 446.621 320.435Z" fill="#A0C5FF"/>
<path d="M462.325 304.862C461.748 304.862 461.279 304.393 461.279 303.815C461.279 303.238 461.748 302.769 462.325 302.769C462.902 302.769 463.371 303.238 463.371 303.815C463.37 304.393 462.901 304.862 462.325 304.862ZM462.325 303.175C461.972 303.175 461.685 303.462 461.685 303.815C461.685 304.169 461.972 304.456 462.325 304.456C462.679 304.456 462.966 304.169 462.966 303.815C462.966 303.462 462.679 303.175 462.325 303.175Z" fill="#A0C5FF"/>
<path d="M446.119 306.992C445.541 306.992 445.072 306.523 445.072 305.945C445.072 305.368 445.541 304.901 446.119 304.901C446.696 304.901 447.165 305.37 447.165 305.945C447.163 306.523 446.696 306.992 446.119 306.992ZM446.119 305.305C445.765 305.305 445.478 305.592 445.478 305.945C445.478 306.299 445.765 306.586 446.119 306.586C446.472 306.586 446.759 306.299 446.759 305.945C446.759 305.592 446.472 305.305 446.119 305.305Z" fill="#A0C5FF"/>
<path d="M438.643 334.477C438.066 334.477 437.597 334.008 437.597 333.43C437.597 332.855 438.066 332.385 438.643 332.385C439.221 332.385 439.69 332.855 439.69 333.43C439.69 334.008 439.221 334.477 438.643 334.477ZM438.643 332.791C438.29 332.791 438.003 333.078 438.003 333.432C438.003 333.785 438.29 334.072 438.643 334.072C438.997 334.072 439.284 333.785 439.284 333.432C439.285 333.078 438.997 332.791 438.643 332.791Z" fill="#A0C5FF"/>
<path d="M454.951 296.185C454.373 296.185 453.904 295.716 453.904 295.139C453.904 294.563 454.373 294.094 454.951 294.094C455.528 294.094 455.997 294.563 455.997 295.139C455.995 295.716 455.526 296.185 454.951 296.185ZM454.951 294.498C454.597 294.498 454.31 294.786 454.31 295.139C454.31 295.492 454.597 295.779 454.951 295.779C455.304 295.779 455.591 295.492 455.591 295.139C455.591 294.786 455.304 294.498 454.951 294.498Z" fill="#A0C5FF"/>
<path d="M462.965 330.852C462.388 330.852 461.918 330.383 461.918 329.806C461.918 329.229 462.388 328.76 462.965 328.76C463.542 328.76 464.011 329.229 464.011 329.806C464.011 330.383 463.542 330.852 462.965 330.852ZM462.965 329.166C462.611 329.166 462.324 329.453 462.324 329.806C462.324 330.16 462.611 330.447 462.965 330.447C463.318 330.447 463.605 330.16 463.605 329.806C463.605 329.453 463.318 329.166 462.965 329.166Z" fill="#A0C5FF"/>
<path d="M456.496 278.621L455.345 285.422C455.345 285.422 456.607 291.818 465.308 286.953L463.183 277.232L456.496 278.621Z" fill="#FECECC"/>
<path opacity="0.1" d="M463.182 277.234L456.497 278.621L455.997 281.572C456.156 281.618 456.316 281.663 456.477 281.705C457.244 281.907 458.026 282.077 458.774 282.313C459.361 282.498 459.946 282.736 460.379 283.086C460.835 283.455 461.06 283.915 461.091 284.409C461.143 285.217 460.569 285.924 460.163 286.648C459.903 287.112 459.762 287.737 459.188 288.06C458.771 288.295 458.225 288.379 457.686 288.372C459.165 289.057 461.537 289.065 465.309 286.957L463.182 277.234Z" fill="#201135"/>
<path d="M450.484 259.867C450.484 259.867 446.474 281.716 454.647 282.229C462.822 282.743 468.426 274.055 468.426 274.055C468.426 274.055 471.819 273.514 472.051 269.428C472.237 266.133 470.2 266.728 470.2 266.728C470.2 266.728 471.768 258.322 465.909 256.677C460.046 255.035 450.484 259.867 450.484 259.867Z" fill="#FECECC"/>
<path opacity="0.1" d="M462.505 271.162C462.594 271.693 462.015 272.235 461.211 272.371C460.407 272.507 459.684 272.186 459.594 271.653C459.505 271.122 460.083 270.581 460.887 270.445C461.691 270.31 462.415 270.632 462.505 271.162Z" fill="#201135"/>
<path opacity="0.1" d="M453.397 271.213C453.487 271.744 452.908 272.286 452.104 272.42C451.3 272.556 450.576 272.235 450.487 271.702C450.397 271.172 450.976 270.63 451.78 270.496C452.582 270.36 453.306 270.681 453.397 271.213Z" fill="#201135"/>
<path d="M453.784 266.216C453.706 266.216 453.631 266.176 453.589 266.103C453.552 266.04 452.683 264.605 450.55 265.549C450.436 265.6 450.304 265.548 450.254 265.435C450.203 265.322 450.254 265.188 450.368 265.139C452.882 264.024 453.967 265.862 453.978 265.879C454.04 265.987 454.003 266.125 453.895 266.186C453.859 266.207 453.821 266.216 453.784 266.216Z" fill="#000141"/>
<path d="M458.143 266.256C458.115 266.256 458.087 266.252 458.06 266.241C457.944 266.194 457.887 266.065 457.933 265.949C457.941 265.929 458.759 263.967 461.714 264.6C461.836 264.626 461.913 264.745 461.887 264.867C461.861 264.988 461.743 265.066 461.62 265.04C459.03 264.484 458.357 266.099 458.351 266.116C458.316 266.202 458.232 266.256 458.143 266.256Z" fill="#000141"/>
<path d="M455.583 271.881C455.506 271.881 455.428 271.871 455.353 271.849C454.876 271.71 454.675 271.173 454.666 271.151C454.641 271.085 454.651 271.011 454.689 270.951C455.496 269.713 455.282 268.042 455.279 268.025C455.262 267.901 455.348 267.789 455.472 267.772C455.598 267.753 455.708 267.841 455.725 267.964C455.735 268.037 455.952 269.73 455.132 271.09C455.197 271.207 455.317 271.371 455.479 271.418C455.631 271.462 455.816 271.401 456.029 271.239C456.127 271.164 456.268 271.182 456.344 271.281C456.419 271.38 456.401 271.52 456.302 271.596C456.055 271.786 455.813 271.881 455.583 271.881Z" fill="#000141"/>
<path d="M452.699 274.809C452.699 274.809 455.262 275.971 458.134 274.635C458.785 275.829 455.382 278.936 452.699 274.809Z" fill="#FCFAF7"/>
<path d="M453.102 268.028C453.102 268.728 452.713 269.296 452.235 269.296C451.757 269.296 451.368 268.728 451.368 268.028C451.368 267.327 451.757 266.761 452.235 266.761C452.713 266.761 453.102 267.329 453.102 268.028Z" fill="#000141"/>
<path d="M460.908 268.028C460.908 268.728 460.521 269.296 460.041 269.296C459.562 269.296 459.173 268.728 459.173 268.028C459.173 267.327 459.562 266.761 460.041 266.761C460.521 266.761 460.908 267.329 460.908 268.028Z" fill="#000141"/>
<path opacity="0.1" d="M456.023 277.993C455.785 277.993 455.63 277.958 455.615 277.954C455.555 277.941 455.518 277.88 455.532 277.82C455.546 277.76 455.607 277.723 455.668 277.737C455.677 277.74 456.663 277.959 457.558 277.183C457.606 277.144 457.677 277.149 457.717 277.195C457.757 277.241 457.752 277.312 457.706 277.354C457.083 277.891 456.43 277.993 456.023 277.993Z" fill="#201135"/>
<path opacity="0.1" d="M469.812 268.067C469.812 268.067 471.123 267.449 471.38 268.375C471.638 269.301 470.815 271.64 469.556 272.18C469.556 272.18 471.843 269.97 471.098 268.632C470.352 267.295 469.889 268.709 469.812 268.067Z" fill="#201135"/>
<path d="M464.946 285.027C464.946 285.027 466.906 286.833 465.846 289.606C464.946 291.96 463.781 294.03 460.488 293.459C457.194 292.888 457.077 289.606 457.077 289.606C457.077 289.606 454.231 293.381 451.856 291.398C447.822 288.028 455.457 284.767 455.457 284.767C455.457 284.767 455.345 286.683 458.234 287.542C461.123 288.401 464.946 285.027 464.946 285.027Z" fill="#A0C5FF"/>
<path d="M462.763 258.044C462.763 258.044 460.401 262.342 457.867 262.159C455.333 261.975 455.096 261.504 455.096 261.504C455.096 261.504 453.627 263.755 449.875 263.571C446.123 263.387 445.816 260.813 445.816 260.813C445.816 260.813 443.034 259.939 443.852 256.816C444.67 253.692 447.302 254.666 447.302 254.666C447.302 254.666 445.9 252.762 448.589 250.675C451.281 248.587 453.887 252.332 453.887 252.332C453.887 252.332 454.608 251.251 458.318 250.042C462.028 248.832 464.571 252.825 464.571 252.825C464.571 252.825 469.703 251.167 470.747 256.08C470.747 256.08 474.186 258.106 472.652 261.115C472.652 261.115 475.248 267.133 469.916 267.164C469.916 267.164 469.028 270.195 466.878 270.016C464.729 269.837 465.97 266.852 465.503 265.673C465.034 264.492 461.596 263.449 462.763 258.044Z" fill="#000141"/>
<path d="M483.488 315.36C483.488 315.36 489.988 333.441 486.878 336.67H461.279C461.279 336.67 471.799 333.131 472.062 329.166C472.324 325.201 468.509 319.187 468.509 319.187L483.488 315.36Z" fill="#FECECC"/>
<path d="M466.873 322.291C466.873 322.291 478.858 325.866 485.364 317.526C485.364 317.526 482.384 296.877 470.134 287.947C462.822 289.66 466.873 322.291 466.873 322.291Z" fill="#A0C5FF"/>
<path opacity="0.1" d="M425.187 205.811H311.372C308.309 205.811 305.826 208.297 305.831 211.361L305.902 268.162C305.905 271.221 308.386 273.698 311.443 273.698H407.713L419.222 277.635L421.631 273.698H425.189C432.709 273.698 438.805 267.602 438.805 260.082V219.429C438.803 211.909 432.707 205.811 425.187 205.811Z" fill="#000141"/>
<path d="M419.223 268.258V277.636L399.969 269.388L419.223 268.258Z" fill="white"/>
<path d="M313.696 203.794H422.776C430.296 203.794 436.392 209.89 436.392 217.411V258.06C436.392 265.581 430.296 271.677 422.776 271.677H313.696C306.175 271.677 300.08 265.581 300.08 258.06V217.411C300.08 209.89 306.175 203.794 313.696 203.794Z" fill="white"/>
<path d="M319.8 235.828C315.754 235.828 312.474 239.108 312.474 243.154C312.474 247.201 315.754 250.48 319.8 250.48C323.846 250.48 327.126 247.201 327.126 243.154C327.126 239.108 323.846 235.828 319.8 235.828ZM319.8 249.274C316.419 249.274 313.672 246.534 313.672 243.153C313.672 239.771 316.417 237.032 319.8 237.032C323.181 237.032 325.92 239.771 325.92 243.153C325.92 246.534 323.181 249.274 319.8 249.274Z" fill="#A0C5FF"/>
<path d="M320.761 243.153C320.761 243.686 320.33 244.116 319.798 244.116C319.266 244.116 318.833 243.686 318.833 243.153C318.833 242.621 319.266 242.19 319.798 242.19C320.33 242.19 320.761 242.621 320.761 243.153Z" fill="#A0C5FF"/>
<path d="M319.797 237.964C319.456 237.964 319.178 238.241 319.178 238.583V242.878C319.178 243.219 319.454 243.497 319.797 243.497C320.138 243.497 320.415 243.221 320.415 242.878V238.583C320.415 238.241 320.138 237.964 319.797 237.964Z" fill="#A0C5FF"/>
<path d="M323.413 239.734C323.172 239.494 322.78 239.494 322.538 239.734L319.501 242.772C319.26 243.012 319.26 243.404 319.501 243.647C319.742 243.888 320.134 243.888 320.376 243.647L323.413 240.61C323.654 240.367 323.654 239.975 323.413 239.734Z" fill="#A0C5FF"/>
<path d="M354.911 237.528H335.637C335.163 237.528 334.723 237.852 334.648 238.32C334.551 238.917 335.009 239.431 335.586 239.431H354.912C355.438 239.431 355.864 239.005 355.864 238.479C355.861 237.954 355.435 237.528 354.911 237.528Z" fill="#A0C5FF"/>
<path d="M391.72 237.528H358.107C357.581 237.528 357.155 237.954 357.155 238.48C357.155 239.006 357.581 239.432 358.107 239.432H391.771C392.35 239.432 392.807 238.917 392.71 238.321C392.634 237.852 392.194 237.528 391.72 237.528Z" fill="#A0C5FF"/>
<path d="M363.218 242.201H335.635C335.161 242.201 334.722 242.525 334.644 242.992C334.547 243.588 335.006 244.105 335.583 244.105H363.216C363.742 244.105 364.168 243.679 364.168 243.153C364.17 242.628 363.744 242.201 363.218 242.201Z" fill="#A0C5FF"/>
<path d="M363.218 246.875H335.635C335.161 246.875 334.722 247.2 334.644 247.667C334.547 248.264 335.006 248.78 335.583 248.78H363.216C363.742 248.78 364.168 248.354 364.168 247.828C364.17 247.301 363.744 246.875 363.218 246.875Z" fill="#A0C5FF"/>
<path d="M391.72 242.201H366.416C365.889 242.201 365.463 242.627 365.463 243.153C365.463 243.679 365.889 244.105 366.416 244.105H391.771C392.35 244.105 392.807 243.59 392.709 242.992C392.634 242.525 392.194 242.201 391.72 242.201Z" fill="#A0C5FF"/>
<path d="M302.491 224.539V217.411C302.491 211.231 307.517 206.205 313.695 206.205H422.775C428.952 206.205 433.979 211.231 433.979 217.411V224.539H302.491Z" fill="#5D74E4"/>
<path d="M327.05 217.25L326.378 219.323H324.168L327.051 211.335H329.598L332.48 219.323H330.212L329.541 217.25H327.05ZM327.559 215.63H329.041L328.3 213.176L327.559 215.63Z" fill="white"/>
<path d="M340.337 213.928C340.337 215.502 339.283 216.324 338.125 216.463C337.698 216.51 337.374 216.521 336.875 216.521H335.949V219.322H333.866V211.333H336.877C337.375 211.333 337.699 211.346 338.127 211.392C339.284 211.531 340.337 212.354 340.337 213.928ZM338.161 213.928C338.161 213.326 337.849 213.013 337.315 212.968C337.165 212.955 336.98 212.955 336.759 212.955H335.949V214.9H336.759C336.98 214.9 337.165 214.9 337.315 214.888C337.849 214.843 338.161 214.53 338.161 213.928Z" fill="white"/>
<path d="M348.427 213.928C348.427 215.502 347.373 216.324 346.215 216.463C345.788 216.51 345.464 216.521 344.965 216.521H344.039V219.322H341.956V211.333H344.967C345.465 211.333 345.79 211.346 346.217 211.392C347.373 211.531 348.427 212.354 348.427 213.928ZM346.249 213.928C346.249 213.326 345.936 213.013 345.404 212.968C345.254 212.955 345.069 212.955 344.848 212.955H344.038V214.9H344.848C345.069 214.9 345.254 214.9 345.404 214.888C345.938 214.843 346.249 214.53 346.249 213.928Z" fill="white"/>
<path d="M357.918 215.329C357.918 217.888 356.319 219.485 353.832 219.485C351.342 219.485 349.745 217.888 349.745 215.329C349.745 212.759 351.342 211.173 353.832 211.173C356.319 211.173 357.918 212.759 357.918 215.329ZM355.787 215.329C355.787 213.627 355.035 212.701 353.83 212.701C352.626 212.701 351.873 213.627 351.873 215.329C351.873 217.019 352.626 217.957 353.83 217.957C355.035 217.957 355.787 217.019 355.787 215.329Z" fill="white"/>
<path d="M359.801 219.323V211.335H361.884V219.323H359.801Z" fill="white"/>
<path d="M368.991 219.323L366.085 214.043C366.154 214.854 366.154 215.56 366.154 216.023V219.323H364.071V211.335H366.663L369.697 216.846C369.639 216.036 369.628 215.213 369.628 214.75V211.335H371.711V219.323H368.991Z" fill="white"/>
<path d="M377.809 212.955V219.323H375.726V212.955H373.133V211.335H380.404V212.955H377.809Z" fill="white"/>
<path d="M390.98 219.323H388.897V215.965C388.897 215.27 388.897 214.239 388.92 213.429C388.781 214.239 388.549 215.258 388.364 215.965L387.485 219.323H385.343L384.451 215.965C384.265 215.27 384.034 214.239 383.907 213.429C383.931 214.239 383.931 215.27 383.931 215.965V219.323H381.847V211.335H385.1L386.455 217.297L387.81 211.335H390.983V219.323H390.98Z" fill="white"/>
<path d="M399.288 219.323H393.164V211.335H399.172V212.955H395.247V214.506H398.94V216.127H395.247V217.702H399.288V219.323Z" fill="white"/>
<path d="M406.117 219.323L403.211 214.043C403.28 214.854 403.28 215.56 403.28 216.023V219.323H401.197V211.335H403.789L406.823 216.846C406.765 216.036 406.754 215.213 406.754 214.75V211.335H408.837V219.323H406.117Z" fill="white"/>
<path d="M414.934 212.955V219.323H412.851V212.955H410.258V211.335H417.529V212.955H414.934Z" fill="white"/>
<path d="M423.442 231.856H405.829C402.593 231.856 399.969 234.48 399.969 237.716V255.211C399.969 258.447 402.593 261.071 405.829 261.071H423.442C426.678 261.071 429.302 258.447 429.302 255.211V237.716C429.302 234.48 426.678 231.856 423.442 231.856Z" fill="#E7F0FE"/>
<path d="M428.265 240.784V237.716C428.265 235.057 426.102 232.893 423.443 232.893H405.829C403.17 232.893 401.007 235.057 401.007 237.716V240.784H428.265Z" fill="#A0C5FF"/>
<path d="M409.597 237.834L409.377 238.508H408.657L409.595 235.906H410.425L411.364 238.508H410.624L410.405 237.834H409.597ZM409.763 237.306H410.246L410.006 236.506L409.763 237.306Z" fill="white"/>
<path d="M413.924 236.752C413.924 237.264 413.581 237.533 413.203 237.577C413.064 237.593 412.958 237.596 412.795 237.596H412.493V238.508H411.814V235.906H412.794C412.956 235.906 413.061 235.909 413.201 235.924C413.581 235.971 413.924 236.238 413.924 236.752ZM413.215 236.752C413.215 236.556 413.113 236.454 412.941 236.438C412.891 236.435 412.831 236.435 412.76 236.435H412.496V237.07H412.76C412.831 237.07 412.893 237.07 412.941 237.067C413.113 237.05 413.215 236.948 413.215 236.752Z" fill="white"/>
<path d="M416.676 238.508H415.936C415.876 238.323 415.838 238.173 415.816 237.988C415.782 237.701 415.669 237.536 415.495 237.523C415.419 237.519 415.356 237.519 415.28 237.519H415.129V238.506H414.45V235.904H415.483C415.645 235.904 415.751 235.907 415.89 235.923C416.267 235.968 416.595 236.153 416.595 236.613C416.595 236.941 416.418 237.159 416.071 237.261C416.342 237.36 416.441 237.559 416.478 237.872C416.514 238.17 416.574 238.354 416.676 238.508ZM415.375 237.031C415.446 237.031 415.507 237.031 415.555 237.028C415.728 237.012 415.887 236.952 415.887 236.735C415.887 236.517 415.748 236.455 415.574 236.44C415.524 236.437 415.464 236.437 415.393 236.437H415.129V237.032H415.375V237.031Z" fill="white"/>
<path d="M417.229 238.508V235.906H417.909V238.508H417.229Z" fill="white"/>
<path d="M420.615 238.508H418.621V235.906H419.3V237.935H420.617V238.508H420.615Z" fill="white"/>
<path d="M413.226 252.438V254.453H405.526V253.331L408.65 250.396C410.131 248.999 410.636 248.309 410.636 247.36C410.636 246.612 410.219 246.195 409.514 246.195C408.766 246.195 408.392 246.67 408.29 247.706L408.276 247.849H405.687L405.701 247.706C405.917 245.519 407.298 244.295 409.73 244.295C412.047 244.295 413.343 245.403 413.343 247.26C413.343 248.425 412.811 249.319 410.897 251.16L409.573 252.441H413.226V252.438Z" fill="#A0C5FF"/>
<path d="M423.744 251.502C423.744 253.402 422.19 254.654 419.685 254.654C417.167 254.654 415.699 253.43 415.497 251.445L415.483 251.302H418.072L418.102 251.445C418.245 252.137 418.735 252.756 419.585 252.756C420.477 252.756 421.039 252.252 421.039 251.575C421.039 250.726 420.42 250.294 419.384 250.251L418.995 250.237V248.567L419.384 248.538C420.333 248.465 420.809 247.948 420.809 247.271C420.809 246.623 420.42 246.22 419.701 246.22C418.938 246.22 418.622 246.839 418.563 247.487L418.549 247.63H415.958L415.972 247.487C416.145 245.817 417.383 244.32 419.958 244.32C422.39 244.32 423.512 245.558 423.512 246.968C423.512 248.133 422.923 248.911 421.627 249.228C423.039 249.501 423.744 250.221 423.744 251.502Z" fill="#A0C5FF"/>
<path d="M234.565 147.278C232.972 157.659 233.494 163.985 234.378 169.022C235.92 177.901 238.582 182.872 232.832 199.133C223.81 224.627 197.914 205.884 175.086 227.864C149.975 252.072 126.173 261.955 106.259 262.102C82.8526 262.279 64.7874 248.965 56.176 229.569C40.2451 193.627 54.8025 182.688 86.6027 172.308C118.384 161.929 104.046 132.334 120.949 121.665C137.856 111.017 158.393 113.997 166.44 107.199C174.483 100.4 198.998 91.0895 221.148 99.9465C239.654 107.319 238.94 118.656 234.565 147.278Z" fill="#000141"/>
<path opacity="0.5" d="M232.832 199.133C223.811 224.627 197.915 205.884 175.087 227.863C149.975 252.072 126.174 261.955 106.26 262.102C106.331 261.588 106.383 261.075 106.457 260.582C108.684 244.411 113.425 227.536 120.847 212.986C128.08 198.791 138.875 187.432 151.534 177.936C157.906 173.135 164.608 168.796 171.24 164.37C174.735 162.027 178.299 159.774 182.11 157.955C185.742 156.237 189.827 155.044 193.003 152.488C198.12 148.369 199.739 142.066 200.393 135.825C200.964 130.314 201.075 124.53 204.895 120.457C214.31 119.005 214.418 133.192 214.986 139.571C215.443 144.759 216.289 149.957 217.847 154.948C219.824 161.267 223.804 165.897 230.167 167.992C231.545 168.441 232.948 168.789 234.376 169.019C235.92 177.9 238.584 182.87 232.832 199.133Z" fill="black"/>
<path d="M226.157 187.583L224.89 168.588C224.89 168.588 259.474 176.775 270.973 251.13C275.217 278.583 266.702 289.61 253.343 291.758C239.983 293.908 206.344 246.451 226.157 187.583Z" fill="#5D74E4"/>
<path d="M287.282 152.28C287.24 152.578 287.176 152.842 287.106 153.044C287.091 153.086 287.078 153.123 287.065 153.155C286.717 154.01 286.328 154.844 285.943 155.603C284.91 157.648 283.91 159.176 283.91 159.176C283.91 159.176 283.639 172.508 282.964 174.113C281.669 175.472 274.481 173.691 274.481 173.691C273.507 172.376 275.428 159.099 275.266 156.47C275.107 153.839 276.035 150.857 276.035 150.857C276.035 150.857 276.217 137.268 279.288 137.316C280.654 137.336 280.069 144.196 280.143 146.831C280.145 146.852 280.143 146.874 280.145 146.896C280.148 146.889 281.086 146.135 282.034 146.692C282.498 146.962 282.632 147.303 282.632 147.303C282.632 147.303 283.305 147.056 283.796 147.204C284.29 147.352 284.955 147.848 284.944 148.095C284.953 148.095 285.537 147.845 286.061 148.224C286.586 148.601 286.745 149.559 286.745 149.559H286.739C286.807 149.657 286.87 149.754 286.926 149.854C287.347 150.623 287.382 151.556 287.282 152.28Z" fill="#FECECC"/>
<path opacity="0.2" d="M287.282 152.28C287.192 152.181 287.087 152.1 286.958 152.05C286.382 151.831 286.01 152.328 285.802 152.752C285.68 153.001 285.598 153.28 285.445 153.513C285.317 153.718 285.089 153.885 284.879 154.009C283.093 155.095 279.57 154.174 279.542 151.86C279.53 150.913 279.604 149.928 279.728 148.996C279.831 148.217 279.887 147.63 280.144 146.896C280.147 146.889 281.086 146.135 282.033 146.692C282.498 146.962 282.632 147.303 282.632 147.303C282.632 147.303 283.305 147.056 283.796 147.204C284.289 147.352 284.955 147.848 284.944 148.095C284.953 148.095 285.536 147.845 286.061 148.224C286.586 148.601 286.745 149.559 286.745 149.559H286.739C286.806 149.657 286.87 149.754 286.925 149.854C287.347 150.623 287.382 151.556 287.282 152.28Z" fill="white"/>
<path opacity="0.1" d="M285.986 152.293C285.461 154.629 284.186 155.142 283.621 155.253C282.114 154.887 280.717 154.291 280.056 153.665C279.595 153.228 279.445 152.228 279.465 151.095C279.453 151.157 279.441 151.218 279.428 151.282C279.243 152.322 279.087 153.523 279.558 154.512C280.022 155.489 281.055 155.932 282.089 155.972C282.919 156.004 283.751 155.828 284.546 155.561H284.547C284.549 155.561 284.55 155.56 284.552 155.558C284.626 155.534 284.7 155.509 284.774 155.483C284.754 155.48 284.734 155.476 284.714 155.472C285.949 154.757 285.986 152.293 285.986 152.293Z" fill="#5D74E4"/>
<path d="M283.589 154.986C283.896 154.29 284.084 153.719 284.277 152.99C284.469 152.246 284.6 151.476 284.552 150.711C284.546 151.478 284.364 152.225 284.124 152.945C283.881 153.663 283.249 154.981 283.249 154.981C282.99 154.976 282.134 154.662 281.771 154.506C281.752 154.498 281.735 154.49 281.717 154.483C281.968 153.749 282.191 153.013 282.379 152.265C282.566 151.509 282.731 150.738 282.762 149.959C282.678 150.734 282.462 151.484 282.226 152.222C281.99 152.944 281.72 153.657 281.427 154.354C281.183 154.243 280.942 154.129 280.72 153.987C280.107 153.595 279.834 153.274 279.641 152.118C279.576 151.731 279.564 151.333 279.556 150.934C279.539 150.536 279.549 150.138 279.558 149.737C279.408 150.525 279.345 151.331 279.399 152.143C279.428 152.549 279.49 152.959 279.664 153.354C279.715 153.45 279.755 153.552 279.83 153.638L279.933 153.771L280.05 153.882C280.127 153.959 280.209 154.024 280.296 154.084C280.379 154.149 280.465 154.208 280.555 154.259C281.266 154.682 282.035 154.947 282.813 155.154C283.59 155.359 284.348 155.317 285.046 154.365C284.594 154.904 283.754 155.033 283.589 154.986Z" fill="#EAB2B2"/>
<path opacity="0.1" d="M283.836 159.044C282.844 159.828 280.799 159.716 278.944 159.422C277.533 159.2 276.401 158.361 275.597 157.529C275.697 157.77 275.805 158.01 275.933 158.243C276.266 158.851 277.575 161.566 279.427 161.69C282.322 161.882 283.253 159.436 283.821 159.16C283.825 159.121 283.831 159.083 283.836 159.044Z" fill="#5D74E4"/>
<path opacity="0.1" d="M279.215 150.336C279.215 150.336 279.508 151.146 278.792 151.391C278.076 151.635 276.969 150.64 276.682 152.661C276.395 154.681 275.463 157.007 275.245 155.356C275.029 153.705 274.755 150.763 275.887 150.328C277.022 149.889 279.215 150.336 279.215 150.336Z" fill="#5D74E4"/>
<path d="M275.265 156.47C275.265 156.47 273.147 152.472 273.095 151.107C273.042 149.743 274.701 148.068 275.722 147.943C276.665 147.829 278.715 149.033 279.114 149.649C279.512 150.265 279.856 151.133 277.955 151.002C276.052 150.871 275.944 151.377 275.944 151.377L275.265 156.47Z" fill="#EAB2B2"/>
<path opacity="0.2" d="M277.894 149.749C277.894 149.749 278.926 150.51 279.161 150.425C279.396 150.34 278.977 149.493 278.584 149.337C278.19 149.181 277.894 149.749 277.894 149.749Z" fill="white"/>
<path d="M273.387 165.938C273.386 167.52 254.498 236.321 253.444 241.352C243.765 287.546 271.662 288.812 271.662 288.812C272.072 288.675 272.48 288.531 272.852 288.344C302.879 273.353 285.07 165.398 285.07 165.398C285.07 165.398 273.42 164.304 273.387 165.938Z" fill="#5D74E4"/>
<g opacity="0.1">
<path d="M278.028 273.783C275.454 273.292 273.248 271.863 272.282 269.354C271.29 266.778 271.486 263.852 271.816 261.167C272.205 258.006 272.901 254.892 273.38 251.745C273.778 249.116 274.219 246.16 273.323 243.584C271.826 239.284 269.015 235.602 266.54 231.836C263.943 227.882 261.711 223.775 261.001 219.039C260.764 217.452 260.654 215.857 260.605 214.258C256.961 227.797 253.854 239.397 253.444 241.352C243.765 287.546 271.662 288.812 271.662 288.812C272.072 288.675 272.48 288.531 272.852 288.344C277.957 285.795 281.678 280.554 284.34 273.618C282.281 274.118 280.113 274.181 278.028 273.783Z" fill="#000141"/>
</g>
<path d="M144.599 337.722H255.929C247.113 283.833 259.942 172.994 211.359 162.858C185.631 157.49 137.971 192.772 149.093 239.767C152.144 272.516 156.934 304.85 144.599 337.722Z" fill="#C7DBFF"/>
<path d="M235.116 254.043C235.116 255.333 235.181 256.688 235.246 257.977C235.181 258.042 235.246 258.041 235.246 258.041C235.354 262.292 235.534 266.729 235.763 271.075C235.821 272.731 235.841 274.319 236.02 275.915C236.128 279.101 236.309 282.651 236.471 285.85C237.571 310.716 240.77 322.468 244.346 337.722H266.668C259.751 160.338 227.421 170.9 223.789 168.474C223.156 186.117 234.105 228.967 235.116 253.915C235.053 253.978 235.053 253.978 235.116 254.043Z" fill="#C7DBFF"/>
<path d="M190.845 336.669C192.714 328.551 202.961 321.739 203.444 305.628C203.509 305.563 203.509 305.498 203.444 305.434C203.543 303.825 203.499 301.953 203.509 300.336C203.509 300.273 203.509 300.273 203.444 300.209C203.294 271.927 199.387 243.261 194.411 215.561C194.348 215.496 194.348 215.496 194.348 215.496C191.672 204.325 189.78 166.79 192.079 164.898C187.358 168.78 178.599 182.298 174.685 186.617C176.792 191.55 183.508 201.069 185.703 206.203L167.895 241.625C193.177 278.674 190.845 336.669 190.845 336.669Z" fill="#5D74E4"/>
<path d="M228.729 207.841C230.841 230.847 217.549 290.852 231.238 336.287C231.238 336.287 233.599 278.674 243.44 242.709L229.395 212.321C241.771 206.106 238.031 191.553 239.524 186.62C235.071 182.301 225.401 167.843 219.691 165.988C224.844 167.661 226.306 181.449 228.729 207.841Z" fill="#5D74E4"/>
<path d="M190.846 167.556C190.035 171.149 193.971 186.886 203.242 194.13C207.01 197.26 211.24 199.056 215.354 198.36C229.087 196.158 222.539 173.498 220.164 166.891C220.106 166.659 219.99 166.426 219.933 166.253C217.731 160.633 218.542 141.392 218.542 141.392L204.46 138.437C204.46 138.437 205.329 141.798 201.736 151.476C198.083 161.154 192.062 162.515 190.846 167.556Z" fill="#FECECC"/>
<path opacity="0.5" d="M203.243 194.13C207.01 197.26 211.24 199.056 215.354 198.36C229.087 196.158 222.539 173.498 220.164 166.891C220.106 166.659 219.99 166.426 219.933 166.253C217.731 160.633 218.542 141.392 218.542 141.392L205.329 138.668C205.794 139.015 206.082 139.596 206.141 140.349C206.431 148.056 213.095 153.445 215.876 160.284C218.019 165.559 219.41 172.801 216.166 177.959C215.238 179.467 208.747 187.698 203.243 194.13Z" fill="#EAB2B2"/>
<path d="M228.404 148.461C223.382 155.483 204.852 149.408 202.758 140.357C202.107 137.508 200.988 132.609 200.988 132.609C200.988 132.609 196.533 130.659 197.167 126.096C197.698 122.565 200.618 124.797 200.618 124.797L200.602 120.875L228.112 117.482C228.112 117.482 228.543 119.476 229.104 122.547C229.376 124.129 229.631 126.041 229.915 128.056C230.807 135.392 231.199 144.596 228.404 148.461Z" fill="#FECECC"/>
<path opacity="0.5" d="M229.914 128.053C225.888 128.86 220.886 129.529 218.297 129.322C213.736 128.928 200.667 124.039 200.667 124.039L227.383 115.943C229.055 118.02 229.63 126.038 229.914 128.053Z" fill="#EAB2B2"/>
<path opacity="0.1" d="M211.36 137.794C211.323 138.609 212.29 139.316 213.522 139.373C214.754 139.43 215.783 138.817 215.821 138.003C215.86 137.189 214.892 136.482 213.659 136.424C212.428 136.367 211.398 136.981 211.36 137.794Z" fill="#201135"/>
<path opacity="0.1" d="M225.044 136.217C225.005 137.03 225.973 137.737 227.206 137.794C228.437 137.851 229.467 137.239 229.505 136.424C229.544 135.611 228.575 134.904 227.343 134.847C226.11 134.788 225.082 135.402 225.044 136.217Z" fill="#201135"/>
<path d="M223.558 128.785C223.676 128.771 223.781 128.697 223.83 128.581C223.873 128.481 224.919 126.166 228.291 127.197C228.474 127.251 228.662 127.15 228.716 126.971C228.77 126.792 228.67 126.602 228.491 126.547C224.515 125.329 223.217 128.286 223.205 128.315C223.132 128.488 223.213 128.687 223.385 128.761C223.441 128.785 223.501 128.792 223.558 128.785Z" fill="#000141"/>
<path d="M217.019 129.637C217.061 129.632 217.102 129.618 217.141 129.598C217.306 129.508 217.368 129.302 217.277 129.138C217.261 129.109 215.678 126.314 211.355 127.8C211.178 127.86 211.084 128.055 211.145 128.232C211.207 128.41 211.397 128.505 211.578 128.444C215.365 127.139 216.667 129.441 216.681 129.464C216.747 129.587 216.885 129.654 217.019 129.637Z" fill="#000141"/>
<path d="M221.883 137.618C222.001 137.605 222.113 137.574 222.221 137.527C222.911 137.233 223.116 136.39 223.126 136.354C223.15 136.25 223.124 136.14 223.055 136.058C221.619 134.347 221.638 131.797 221.638 131.772C221.641 131.584 221.49 131.43 221.303 131.428C221.11 131.424 220.961 131.576 220.959 131.763C220.957 131.876 220.939 134.455 222.416 136.348C222.34 136.537 222.189 136.805 221.953 136.904C221.734 136.995 221.444 136.941 221.096 136.734C220.934 136.638 220.726 136.692 220.632 136.854C220.536 137.017 220.59 137.225 220.752 137.321C221.158 137.56 221.538 137.66 221.883 137.618Z" fill="#000141"/>
<path d="M226.746 141.491C226.746 141.491 223.108 143.701 218.553 142.216C217.792 144.125 223.467 148.172 226.746 141.491Z" fill="#FCFAF7"/>
<path d="M224.909 131.382C225.036 132.433 225.723 133.216 226.442 133.128C227.161 133.041 227.641 132.117 227.514 131.066C227.388 130.015 226.701 129.232 225.982 129.32C225.263 129.408 224.783 130.331 224.909 131.382Z" fill="#000141"/>
<path d="M213.19 132.799C213.316 133.85 214.003 134.632 214.722 134.544C215.441 134.458 215.921 133.535 215.795 132.482C215.668 131.431 214.981 130.649 214.262 130.737C213.542 130.825 213.062 131.748 213.19 132.799Z" fill="#000141"/>
<path opacity="0.1" d="M222.332 146.874C222.689 146.83 222.914 146.75 222.937 146.741C223.025 146.708 223.07 146.611 223.038 146.523C223.005 146.435 222.906 146.391 222.82 146.421C222.806 146.428 221.365 146.935 219.882 145.932C219.801 145.883 219.698 145.901 219.645 145.978C219.593 146.056 219.615 146.162 219.692 146.215C220.723 146.912 221.721 146.948 222.332 146.874Z" fill="#201135"/>
<path opacity="0.5" d="M199.968 125.701C199.968 125.701 198.971 124.628 198.493 125.445C198.018 126.263 198.333 129.369 199.87 130.411C199.87 130.411 198.291 127.624 198.741 126.669C199.191 125.712 200.404 126.505 199.968 125.701Z" fill="#EAB2B2"/>
<path d="M228.662 123.076C228.179 120.782 227.355 119.42 224.715 118.844C224.21 118.733 227.138 120.796 227.375 123.806C225.948 124.775 224.26 125.599 222.488 126.122C215.948 128.075 200.031 123.837 200.031 123.837C197.99 101.746 229.289 107.538 232.57 115.382C233.292 117.099 231.166 120.736 228.662 123.076Z" fill="#000141"/>
<path d="M220.359 325.559C233.777 288.98 239.855 250.419 237.972 208.594C237.893 206.888 236.658 205.668 235.237 205.853C215.933 208.409 195.245 210.432 173.06 211.889C171.998 211.958 171.095 213.187 171.006 214.633C168.887 250.405 160.698 284.139 146.591 316.622C146 317.983 146.434 319.247 147.582 319.436C171.698 323.411 194.64 326.269 216.409 328.112C218.01 328.253 219.797 327.1 220.359 325.559Z" fill="white"/>
<g opacity="0.2">
<path opacity="0.1" d="M218.087 315.102C228.706 283.19 233.788 249.681 232.932 213.744C215.117 215.71 196.173 217.221 176.029 218.252C173.913 251.686 166.469 283.325 153.84 313.823C167.885 315.919 181.514 317.646 194.727 319.025C202.703 317.758 210.487 316.45 218.087 315.102Z" fill="#5D74E4"/>
</g>
<path d="M217.547 313.626C228.009 281.75 232.957 248.257 231.986 212.307C214.275 214.309 195.443 215.862 175.415 216.947C173.406 250.375 166.089 281.991 153.61 312.442C167.594 314.505 181.162 316.209 194.317 317.567C202.247 316.294 209.99 314.979 217.547 313.626Z" fill="#A0C5FF"/>
<g opacity="0.1">
<path d="M231.986 212.307C228.138 212.743 224.212 213.147 220.257 213.539C224.288 222.368 226.689 232.094 223.581 240.931C221.121 247.922 215.99 252.035 209.13 254.253C207.18 254.884 204.471 255.589 203.141 257.316C203.109 257.358 203.092 257.369 203.065 257.401C203.065 257.403 203.067 257.403 203.067 257.404C203.101 257.671 203.618 258.386 203.703 258.543C205.368 261.61 206.612 264.825 207.01 268.312C207.712 274.466 204.947 279.79 199.957 283.327C193.232 288.096 184.415 291.873 176.193 292.757C171.228 293.291 166.213 292.601 161.344 291.3C159.027 298.41 156.472 305.461 153.61 312.442C167.594 314.507 181.162 316.209 194.318 317.567C202.249 316.294 209.991 314.979 217.549 313.626C228.009 281.75 232.958 248.257 231.986 212.307Z" fill="#5D74E4"/>
</g>
<path d="M217.547 313.625C216.204 311.999 214.852 310.353 213.488 308.685C207.29 311.627 200.903 314.588 194.316 317.567C202.247 316.294 209.99 314.979 217.547 313.625Z" fill="#A0C5FF"/>
<path opacity="0.25" d="M146.327 296.862V309.085C146.327 309.085 182.058 319.893 203.915 302.973C225.772 286.054 225.122 278.452 225.122 278.452C225.122 278.452 235.869 282.804 235.341 277.896C234.813 272.99 223.577 269.926 219.035 270.94C214.494 271.956 146.327 296.862 146.327 296.862Z" fill="#000141"/>
<path d="M224.911 268.406C222.478 268.973 211.878 268.738 210.804 269.857C210.804 269.857 210.294 275.7 211.77 276.692C213.378 277.072 225.539 275.7 225.539 275.7C225.539 275.7 226.98 277.007 230.125 277.699C230.963 277.884 231.812 278.021 232.621 278.081V278.084C232.624 278.084 232.624 278.084 232.628 278.088C232.668 278.092 232.875 278.131 233.178 278.179H233.181C234.273 278.351 236.621 278.669 236.997 278.237C237.473 277.697 237.675 276.922 237.216 276.461C237.236 276.438 237.253 276.411 237.274 276.388C237.559 276.354 238.277 276.209 238.564 275.643C238.846 275.092 238.503 274.646 238.335 274.472C238.345 274.442 238.357 274.413 238.366 274.385C238.604 274.37 239.124 274.297 239.258 273.959C239.428 273.522 239.57 272.763 238.911 272.397C238.914 272.388 238.914 272.376 238.917 272.366C239.056 272.296 239.593 271.978 239.516 271.206C239.428 270.322 239.014 270.198 239.014 270.198C239.014 270.198 239.55 269.467 239.434 268.849C239.32 268.229 238.764 267.47 237.357 267.283L237.344 267.284C237.209 267.232 237.064 267.184 236.908 267.161C236.272 267.057 235.645 267 235.05 266.977C234.928 266.974 234.807 266.973 234.685 266.968C232.366 266.925 230.591 267.357 230.591 267.357C230.591 267.357 233.892 264.051 232.625 262.225C231.363 260.401 227.346 267.838 224.911 268.406Z" fill="#FECECC"/>
<path opacity="0.2" d="M235.051 266.979C236.014 270.835 233.639 276.081 232.622 278.08C232.619 278.08 232.619 278.083 232.619 278.083H232.622C232.625 278.083 232.625 278.083 232.629 278.086C232.791 278.098 232.977 278.131 233.179 278.177H233.182C234.275 278.35 236.622 278.668 236.998 278.236C237.474 277.695 237.676 276.921 237.218 276.459C237.238 276.436 237.255 276.41 237.275 276.387C237.56 276.353 238.278 276.208 238.565 275.641C238.847 275.09 238.505 274.644 238.336 274.47C238.346 274.441 238.358 274.411 238.367 274.383C238.605 274.368 239.125 274.295 239.259 273.958C239.429 273.521 239.571 272.761 238.912 272.396C238.915 272.386 238.915 272.374 238.918 272.365C239.057 272.294 239.594 271.976 239.517 271.204C239.429 270.32 239.015 270.196 239.015 270.196C239.015 270.196 239.551 269.465 239.435 268.848C239.321 268.227 238.765 267.468 237.358 267.281L237.346 267.283C237.21 267.23 237.065 267.182 236.909 267.159C236.272 267.059 235.645 267.002 235.051 266.979Z" fill="white"/>
<path d="M237.116 276.226C236.643 275.945 236.153 275.717 235.646 275.527C235.138 275.338 234.612 275.2 234.076 275.144C234.606 275.24 235.115 275.416 235.599 275.638C236.082 275.86 236.552 276.126 236.982 276.427L236.985 276.428C237.039 276.467 237.115 276.454 237.153 276.399C237.192 276.345 237.178 276.269 237.124 276.232C237.121 276.229 237.118 276.227 237.116 276.226Z" fill="#FF97A6"/>
<path d="M238.861 270.016C238.33 269.727 237.784 269.496 237.221 269.309C236.656 269.122 236.072 268.992 235.484 268.954C236.069 269.037 236.633 269.209 237.174 269.432C237.713 269.656 238.239 269.928 238.721 270.239L238.725 270.243C238.785 270.283 238.869 270.266 238.907 270.204C238.947 270.142 238.93 270.06 238.869 270.022C238.867 270.019 238.864 270.017 238.861 270.016Z" fill="#FF97A6"/>
<path d="M238.741 272.152C238.212 271.837 237.664 271.582 237.095 271.369C236.527 271.16 235.939 271.004 235.34 270.942C235.932 271.048 236.502 271.246 237.044 271.494C237.584 271.743 238.11 272.039 238.59 272.376L238.595 272.379C238.655 272.422 238.74 272.407 238.781 272.346C238.825 272.286 238.809 272.201 238.749 272.16C238.747 272.157 238.744 272.153 238.741 272.152Z" fill="#FF97A6"/>
<path d="M238.209 274.198C237.68 273.885 237.133 273.628 236.566 273.417C235.999 273.207 235.411 273.053 234.814 272.991C235.405 273.098 235.973 273.294 236.515 273.542C237.055 273.791 237.578 274.085 238.058 274.422L238.063 274.425C238.124 274.468 238.208 274.453 238.249 274.392C238.292 274.332 238.277 274.247 238.217 274.206C238.214 274.201 238.211 274.2 238.209 274.198Z" fill="#FF97A6"/>
<path opacity="0.2" d="M231.817 262.17C231.817 262.17 230.88 263.643 230.567 263.665C230.254 263.687 230.153 263.318 230.153 263.318C230.153 263.318 231.264 262.062 231.817 262.17Z" fill="white"/>
<path d="M172.641 176.001C172.641 176.001 114.474 221.516 127.698 285.066C130.705 299.512 164.531 279.483 161.718 272.521C144.046 228.793 172.641 176.001 172.641 176.001Z" fill="#5D74E4"/>
<path opacity="0.25" d="M160.225 268.457C154.733 252.145 155.211 234.863 157.921 219.707C157.921 219.698 157.921 219.69 157.921 219.681C157.948 217.525 158.14 215.375 158.347 213.23C156.745 214.696 155.474 216.499 154.339 218.34C153.018 220.487 151.883 222.74 150.704 224.965C150.12 226.067 149.511 227.146 149.086 228.324C148.651 229.531 148.386 230.788 148.268 232.065C148.046 234.5 148.369 236.937 148.775 239.337C149.545 243.9 150.926 248.893 148.873 253.31C147.989 255.213 146.686 256.867 145.435 258.535C143.987 260.465 142.666 262.476 141.608 264.647C139.489 268.996 138.341 273.905 139.246 278.703C141.385 276.538 143.756 274.614 146.367 273.041C150.585 270.505 155.341 268.971 160.225 268.457Z" fill="#000141"/>
<path d="M221.986 266.474C221.986 266.474 225.037 275.382 222.011 278.787C218.986 282.191 160.875 302.199 144.597 298.8C115.608 292.747 125.28 269.167 151.378 264.627C177.476 260.088 221.986 266.474 221.986 266.474Z" fill="#5D74E4"/>
<path d="M129.054 337.773H275.866C276.267 337.773 276.593 337.448 276.593 337.046C276.593 336.645 276.267 336.32 275.866 336.32H129.054C128.652 336.32 128.327 336.645 128.327 337.046C128.327 337.448 128.652 337.773 129.054 337.773Z" fill="#A0C5FF"/>
<path d="M262.088 136.628V126.151H261.901C256.895 126.151 252.821 122.078 252.821 117.071V111.756C252.821 106.75 256.893 102.677 261.901 102.677H299.621C304.628 102.677 308.7 106.75 308.7 111.756V117.071C308.7 122.078 304.626 126.151 299.621 126.151H273.602L262.088 136.628ZM261.901 103.753C257.489 103.753 253.9 107.342 253.9 111.755V117.07C253.9 121.482 257.489 125.072 261.901 125.072H263.165V134.19L273.184 125.072H299.62C304.032 125.072 307.622 121.482 307.622 117.07V111.755C307.622 107.342 304.032 103.753 299.62 103.753H261.901Z" fill="#A0C5FF"/>
<path d="M277.865 114.781C277.968 116.381 279.348 117.594 280.948 117.491C282.549 117.389 283.762 116.008 283.658 114.409C283.555 112.808 282.175 111.595 280.577 111.699C278.976 111.801 277.762 113.18 277.865 114.781Z" fill="#A0C5FF"/>
<path d="M289.075 114.596C289.075 116.199 290.375 117.499 291.978 117.499C293.581 117.499 294.881 116.199 294.881 114.596C294.881 112.992 293.581 111.693 291.978 111.693C290.375 111.693 289.075 112.992 289.075 114.596Z" fill="#A0C5FF"/>
<path d="M266.646 114.781C266.748 116.382 268.129 117.595 269.728 117.491C271.328 117.389 272.541 116.008 272.44 114.409C272.336 112.809 270.957 111.596 269.356 111.699C267.757 111.801 266.543 113.181 266.646 114.781Z" fill="#A0C5FF"/>
<path opacity="0.2" d="M79.5713 161.092V167.547C79.5713 167.547 84.8029 169.074 90.2907 164.9V157.791L79.5713 161.092Z" fill="#000141"/>
<path d="M74.7379 164.41C68.1436 164.41 61.5493 161.901 56.5291 156.879C46.4903 146.838 46.4903 130.499 56.5291 120.46C66.568 110.418 82.9079 110.418 92.9467 120.46C94.2307 121.744 94.2307 123.823 92.9467 125.107C91.6627 126.391 89.5824 126.391 88.3 125.107C84.678 121.485 79.86 119.489 74.7379 119.489C69.6159 119.489 64.7979 121.485 61.1758 125.107C53.6988 132.586 53.6988 144.753 61.1758 152.232C64.7979 155.854 69.6159 157.85 74.7379 157.85C79.86 157.85 84.678 155.854 88.3 152.232C94.1705 146.36 95.6042 137.438 91.868 130.03C91.0501 128.41 91.7013 126.433 93.3202 125.615C94.9421 124.788 96.916 125.447 97.7354 127.067C102.756 137.015 100.831 148.996 92.9483 156.879C87.9265 161.9 81.3307 164.41 74.7379 164.41Z" fill="#ADFFA0"/>
<path d="M89.6255 123.78C97.8479 132.003 97.8479 145.335 89.6255 153.558C81.403 161.781 68.0709 161.781 59.8485 153.558C51.626 145.335 51.626 132.003 59.8485 123.78C68.0709 115.556 81.4015 115.556 89.6255 123.78Z" fill="white"/>
<path opacity="0.54" d="M81.6281 136.302V146.758C81.6281 148.504 80.2191 149.914 78.4814 149.914H71.2374C69.5013 149.914 68.0923 148.504 68.0923 146.758V136.302C68.0923 136.19 68.1015 136.088 68.1108 135.984C68.1664 135.387 68.4009 134.818 68.7744 134.351L72.452 129.683H77.27L80.9476 134.351C81.321 134.818 81.5541 135.389 81.6112 135.984C81.6189 136.088 81.6281 136.191 81.6281 136.302Z" fill="#A0C5FF"/>
<path d="M81.6281 136.302V145.433H68.0923L68.1108 135.984H81.6096C81.6189 136.088 81.6281 136.191 81.6281 136.302Z" fill="#5D74E4"/>
<path d="M78.0393 126.221V128.654C78.0393 129.229 77.5763 129.694 76.9992 129.694H72.7027C72.1271 129.694 71.6626 129.229 71.6626 128.654V126.178C71.6888 125.62 72.1441 125.181 72.7027 125.181H76.9992C77.5763 125.181 78.0393 125.646 78.0393 126.221Z" fill="#A0C5FF"/>
<path d="M75.9337 126.178H71.6636V126.393H75.9337V126.178Z" fill="white"/>
<path d="M75.1359 126.848H71.6636V127.063H75.1359V126.848Z" fill="white"/>
<path d="M75.9337 127.57H71.6636V127.785H75.9337V127.57Z" fill="white"/>
<path d="M75.1359 128.24H71.6636V128.464H75.1359V128.24Z" fill="white"/>
<path d="M79.2165 135.984V145.433H78.3893V136.302C78.3893 136.19 78.3831 136.088 78.377 135.984H79.2165Z" fill="white"/>
<path opacity="0.2" d="M516.934 238.507V245.65C516.934 245.65 513.609 247.706 506.32 245.65V236.742L516.934 238.507Z" fill="#000141"/>
<path d="M511.255 242.134C504.465 242.134 497.675 239.549 492.506 234.379C482.17 224.041 482.17 207.217 492.506 196.88C502.843 186.54 519.668 186.54 530.004 196.88C531.325 198.201 531.325 200.343 530.004 201.666C528.683 202.988 526.541 202.988 525.219 201.666C521.489 197.936 516.529 195.883 511.255 195.883C505.981 195.883 501.021 197.937 497.292 201.666C489.594 209.365 489.594 221.894 497.292 229.595C501.022 233.325 505.982 235.378 511.255 235.378C516.529 235.378 521.49 233.324 525.219 229.595C531.262 223.55 532.74 214.362 528.892 206.734C528.049 205.066 528.719 203.03 530.387 202.189C532.058 201.337 534.091 202.016 534.933 203.684C540.102 213.927 538.12 226.263 530.004 234.381C524.834 239.548 518.044 242.134 511.255 242.134Z" fill="#ADFFA0"/>
<path d="M526.584 200.299C535.05 208.765 535.05 222.493 526.584 230.959C518.118 239.426 504.391 239.426 495.924 230.959C487.458 222.493 487.458 208.765 495.924 200.299C504.391 191.832 518.118 191.832 526.584 200.299Z" fill="url(#paint0_linear_1_2172)"/>
<path d="M519.093 206.595L515.465 218.707C514.883 220.652 512.833 221.77 510.886 221.187C508.941 220.604 507.846 218.543 508.427 216.597L512.056 204.487C512.639 202.542 514.688 201.423 516.633 202.007C518.579 202.589 519.676 204.65 519.093 206.595Z" fill="#5D74E4"/>
<path d="M519.094 206.595L517.31 212.549L510.273 210.441L512.057 204.487C512.64 202.542 514.69 201.423 516.634 202.007C518.58 202.589 519.678 204.65 519.094 206.595Z" fill="#A0C5FF"/>
<path opacity="0.44" d="M510.273 210.441L517.052 213.427L517.31 212.549L510.273 210.441Z" fill="#BAF1EB"/>
<path opacity="0.49" d="M516.936 202.792C517.554 203.163 518.092 203.706 518.421 204.399C518.814 205.098 518.58 206.008 518.398 206.644C518.06 208.041 517.685 209.427 517.287 210.805C516.493 213.565 515.637 216.304 514.652 219.005L514.638 219.043L514.632 219.053C514.299 219.585 513.859 220.011 513.316 220.296C512.774 220.583 512.117 220.622 511.587 220.391C512.158 220.492 512.725 220.36 513.162 220.04C513.591 219.718 513.936 219.264 514.177 218.81L514.157 218.857C514.822 216.059 515.612 213.299 516.467 210.56C516.893 209.189 517.342 207.825 517.827 206.473C518.097 205.771 518.291 205.195 518.078 204.525C517.893 203.877 517.452 203.289 516.936 202.792Z" fill="white"/>
<path d="M510.592 212.56V225.203C510.592 227.234 508.95 228.893 506.919 228.893C504.888 228.893 503.244 227.234 503.244 225.203V212.56C503.244 210.529 504.886 208.87 506.919 208.87C508.95 208.87 510.592 210.529 510.592 212.56Z" fill="#5D74E4"/>
<path d="M510.591 212.56V218.775H503.245V212.56C503.245 210.529 504.887 208.87 506.92 208.87C508.949 208.87 510.591 210.529 510.591 212.56Z" fill="#A0C5FF"/>
<path opacity="0.44" d="M503.245 218.775L510.596 219.69L510.591 218.775H503.245Z" fill="#BAF1EB"/>
<path opacity="0.49" d="M507.434 209.536C508.133 209.714 508.803 210.078 509.317 210.649C509.894 211.205 509.93 212.145 509.939 212.807C510.015 214.242 510.055 215.677 510.069 217.113C510.101 219.983 510.067 222.852 509.9 225.723L509.897 225.764L509.894 225.774C509.728 226.38 509.43 226.914 508.99 227.343C508.555 227.774 507.936 227.999 507.362 227.93C507.939 227.863 508.444 227.573 508.769 227.141C509.089 226.709 509.289 226.175 509.388 225.672L509.383 225.723C509.217 222.852 509.181 219.982 509.214 217.113C509.229 215.677 509.268 214.242 509.343 212.807C509.402 212.057 509.422 211.45 509.027 210.87C508.661 210.3 508.07 209.864 507.434 209.536Z" fill="white"/>
<path d="M516.731 226.755C516.11 227.738 514.955 228.163 513.893 227.91C513.768 227.886 513.651 227.854 513.527 227.805C513.38 227.752 513.225 227.669 513.084 227.582C512.925 227.482 512.788 227.368 512.658 227.244C512.563 227.155 512.481 227.062 512.407 226.96C511.746 226.113 511.643 224.911 512.257 223.937C512.865 222.973 514.001 222.536 515.049 222.766C515.174 222.789 515.291 222.821 515.414 222.871C515.581 222.936 515.743 223.01 515.902 223.11C516.041 223.198 516.185 223.301 516.294 223.412C516.391 223.502 516.472 223.595 516.546 223.696C517.234 224.547 517.35 225.772 516.731 226.755Z" fill="#5D74E4"/>
<path d="M516.547 223.697C516.547 223.697 513.65 227.856 513.527 227.806C513.38 227.754 513.224 227.671 513.084 227.584C512.925 227.484 512.788 227.37 512.658 227.246C512.562 227.157 515.048 222.767 515.048 222.767C515.173 222.791 515.291 222.823 515.414 222.872C515.581 222.937 515.743 223.011 515.902 223.112C516.041 223.2 516.184 223.303 516.294 223.414C516.393 223.502 516.473 223.595 516.547 223.697Z" fill="#A0C5FF"/>
<path opacity="0.49" d="M516.295 223.414L513.527 227.806C513.38 227.754 513.224 227.67 513.084 227.584C512.925 227.484 512.787 227.37 512.658 227.246L515.414 222.872C515.581 222.937 515.743 223.011 515.902 223.112C516.042 223.198 516.186 223.301 516.295 223.414Z" fill="white"/>
<path d="M523.108 221.118C523.339 222.565 522.597 223.928 521.379 224.572C521.242 224.655 521.103 224.721 520.947 224.775C520.763 224.849 520.547 224.899 520.342 224.931C520.108 224.968 519.884 224.974 519.658 224.965C519.492 224.96 519.341 224.94 519.185 224.906C517.856 224.653 516.757 223.598 516.53 222.166C516.305 220.747 517.016 219.391 518.202 218.736C518.339 218.653 518.478 218.587 518.634 218.533C518.845 218.454 519.061 218.389 519.294 218.352C519.499 218.321 519.722 218.301 519.918 218.313C520.084 218.318 520.236 218.338 520.391 218.374C521.748 218.607 522.878 219.67 523.108 221.118Z" fill="#5D74E4"/>
<path d="M520.392 218.374C520.392 218.374 521.103 224.721 520.948 224.775C520.764 224.849 520.548 224.899 520.343 224.931C520.108 224.968 519.884 224.974 519.659 224.965C519.492 224.96 518.202 218.736 518.202 218.736C518.339 218.653 518.478 218.587 518.634 218.533C518.846 218.454 519.062 218.389 519.295 218.352C519.5 218.321 519.722 218.301 519.918 218.313C520.085 218.318 520.238 218.338 520.392 218.374Z" fill="#A0C5FF"/>
<path opacity="0.49" d="M519.919 218.313L520.948 224.775C520.764 224.849 520.548 224.899 520.343 224.931C520.109 224.968 519.885 224.974 519.659 224.965L518.635 218.533C518.846 218.454 519.062 218.389 519.295 218.352C519.499 218.321 519.721 218.301 519.919 218.313Z" fill="white"/>
<defs>
<linearGradient id="paint0_linear_1_2172" x1="489.574" y1="215.629" x2="532.934" y2="215.629" gradientUnits="userSpaceOnUse">
<stop stop-color="#D1F4FF"/>
<stop offset="0.4183" stop-color="#FBFEFE"/>
<stop offset="1" stop-color="#D1F4FF"/>
</linearGradient>
</defs>
</svg>
