<svg width="383" height="275" viewBox="0 0 383 275" fill="none" xmlns="http://www.w3.org/2000/svg">
<path d="M133.377 121.318C164.014 121.318 188.85 96.4822 188.85 65.8452C188.85 35.2082 164.014 10.372 133.377 10.372C102.74 10.372 77.9033 35.2082 77.9033 65.8452C77.9033 96.4822 102.74 121.318 133.377 121.318Z" fill="#DBE8EC"/>
<path d="M97.1504 47.7541H118.913" stroke="#B9D4DB" stroke-width="3" stroke-miterlimit="10" stroke-linecap="round"/>
<path d="M97.1504 54.0267H118.913" stroke="#B9D4DB" stroke-width="3" stroke-miterlimit="10" stroke-linecap="round"/>
<path d="M97.1504 60.2994H118.913" stroke="#B9D4DB" stroke-width="3" stroke-miterlimit="10" stroke-linecap="round"/>
<path d="M382.54 146.671V134.415C382.54 132.078 381.612 129.837 379.959 128.185C378.307 126.532 376.066 125.604 373.729 125.604H342.626C341.469 125.604 340.323 125.376 339.254 124.933C338.185 124.49 337.213 123.841 336.395 123.023C335.577 122.204 334.928 121.233 334.485 120.164C334.042 119.095 333.814 117.949 333.814 116.792V104.536C333.814 103.379 334.042 102.233 334.485 101.164C334.928 100.095 335.577 99.1236 336.395 98.3053C337.213 97.4871 338.185 96.838 339.254 96.3952C340.323 95.9523 341.469 95.7244 342.626 95.7244H343.608C345.945 95.7244 348.186 94.796 349.839 93.1435C351.491 91.491 352.42 89.2496 352.42 86.9126V74.657C352.42 72.3199 351.491 70.0786 349.839 68.4261C348.186 66.7735 345.945 65.8452 343.608 65.8452H59.3632C57.0261 65.8452 54.7848 66.7735 53.1323 68.4261C51.4798 70.0786 50.5514 72.3199 50.5514 74.657V86.9126C50.5514 89.2496 51.4798 91.491 53.1323 93.1435C54.7848 94.796 57.0261 95.7244 59.3632 95.7244C61.7002 95.7244 63.9415 96.6528 65.5941 98.3053C67.2466 99.9579 68.175 102.199 68.175 104.536V116.792C68.175 119.129 67.2466 121.37 65.5941 123.023C63.9415 124.675 61.7002 125.604 59.3632 125.604H25.2871C22.9501 125.604 20.7088 126.532 19.0563 128.185C17.4037 129.837 16.4753 132.078 16.4753 134.415V146.671C16.4753 149.008 17.4037 151.249 19.0563 152.902C20.7088 154.555 22.9501 155.483 25.2871 155.483H38.6581C40.9951 155.483 43.2364 156.411 44.889 158.064C46.5415 159.716 47.4699 161.958 47.4699 164.295V176.55C47.4699 178.887 46.5415 181.129 44.889 182.781C43.2364 184.434 40.9951 185.362 38.6581 185.362H38.6257C36.2887 185.362 34.0474 186.291 32.3949 187.943C30.7423 189.596 29.814 191.837 29.814 194.174V206.43C29.814 208.767 30.7423 211.008 32.3949 212.661C34.0474 214.313 36.2887 215.241 38.6258 215.241H40.5603C41.7174 215.241 42.8633 215.469 43.9324 215.912C45.0015 216.355 45.9729 217.004 46.7912 217.822C47.6094 218.641 48.2585 219.612 48.7013 220.681C49.1442 221.75 49.3721 222.896 49.3721 224.053V236.309C49.3721 237.466 49.1442 238.612 48.7013 239.681C48.2585 240.75 47.6094 241.722 46.7912 242.54C45.9729 243.358 45.0015 244.007 43.9324 244.45C42.8633 244.893 41.7174 245.121 40.5603 245.121H8.81181C6.47478 245.121 4.23347 246.049 2.58093 247.702C0.928399 249.354 1.07208e-05 251.595 0 253.933V266.188C-1.76946e-06 267.345 0.227919 268.491 0.670753 269.56C1.11359 270.629 1.76266 271.601 2.58091 272.419C3.39916 273.237 4.37057 273.886 5.43967 274.329C6.50877 274.772 7.65462 275 8.81181 275H348.339C350.676 275 352.917 274.072 354.57 272.419C356.222 270.767 357.151 268.525 357.151 266.188V253.933C357.151 251.595 356.222 249.354 354.57 247.702C352.917 246.049 350.676 245.121 348.339 245.121H340.698C339.541 245.121 338.395 244.893 337.326 244.45C336.257 244.007 335.286 243.358 334.468 242.54C333.649 241.722 333 240.75 332.557 239.681C332.115 238.612 331.887 237.466 331.887 236.309V224.053C331.887 222.896 332.115 221.75 332.557 220.681C333 219.612 333.649 218.641 334.468 217.822C335.286 217.004 336.257 216.355 337.326 215.912C338.395 215.469 339.541 215.241 340.698 215.241H358.713C361.051 215.241 363.292 214.313 364.944 212.661C366.597 211.008 367.525 208.767 367.525 206.43V194.174C367.525 193.017 367.297 191.871 366.854 190.802C366.412 189.733 365.763 188.761 364.944 187.943C364.126 187.125 363.155 186.476 362.086 186.033C361.017 185.59 359.871 185.362 358.713 185.362H353.249C350.912 185.362 348.67 184.434 347.018 182.781C345.365 181.129 344.437 178.887 344.437 176.55V164.295C344.437 161.958 345.365 159.716 347.018 158.064C348.67 156.411 350.912 155.483 353.249 155.483H373.729C376.066 155.483 378.307 154.555 379.959 152.902C381.612 151.249 382.54 149.008 382.54 146.671Z" fill="#DBE8EC"/>
<path d="M287.987 0H118.835C115.486 0 112.772 2.71469 112.772 6.06342V259.757C112.772 263.106 115.486 265.821 118.835 265.821H287.987C291.335 265.821 294.05 263.106 294.05 259.757V6.06342C294.05 2.71469 291.335 0 287.987 0Z" fill="#3086A3"/>
<path d="M277.038 13.0065H129.784C126.435 13.0065 123.72 15.7212 123.72 19.0699V246.751C123.72 250.099 126.435 252.814 129.784 252.814H277.038C280.386 252.814 283.101 250.099 283.101 246.751V19.0699C283.101 15.7212 280.386 13.0065 277.038 13.0065Z" fill="#DBE8EC"/>
<path d="M203.411 108.235C219.91 108.235 233.285 94.8601 233.285 78.361C233.285 61.8619 219.91 48.4867 203.411 48.4867C186.912 48.4867 173.537 61.8619 173.537 78.361C173.537 94.8601 186.912 108.235 203.411 108.235Z" fill="#F9AE2B"/>
<path d="M198.391 75.7552V69.5432C198.391 68.9203 198.515 68.3036 198.755 67.7287C198.994 67.1538 199.346 66.6321 199.788 66.1937C200.231 65.7554 200.756 65.409 201.333 65.1747C201.91 64.9404 202.528 64.8227 203.151 64.8285H203.669C204.292 64.8225 204.91 64.94 205.487 65.1742C206.064 65.4084 206.589 65.7548 207.032 66.1932C207.474 66.6316 207.826 67.1534 208.065 67.7284C208.305 68.3034 208.428 68.9203 208.428 69.5432V71.6359C208.429 71.7762 208.485 71.9105 208.584 72.01C208.683 72.1095 208.817 72.1663 208.958 72.1681L211.464 72.1795C211.534 72.1797 211.604 72.1662 211.668 72.1395C211.733 72.1129 211.792 72.0738 211.842 72.0243C211.892 71.9749 211.931 71.9161 211.958 71.8514C211.985 71.7867 211.999 71.7173 211.999 71.6472V69.8895C211.999 68.8112 211.787 67.7434 211.374 66.7473C210.961 65.7511 210.356 64.8462 209.593 64.0841C208.83 63.3221 207.925 62.7179 206.928 62.3063C205.931 61.8946 204.864 61.6835 203.785 61.6849H203.034C201.956 61.684 200.889 61.8955 199.893 62.3074C198.896 62.7193 197.991 63.3235 197.229 64.0855C196.466 64.8475 195.861 65.7522 195.448 66.7481C195.036 67.744 194.823 68.8115 194.823 69.8895V75.9212L198.391 75.7552Z" fill="#409CB5"/>
<path d="M213.185 93.6177C213.812 93.6162 214.413 93.3662 214.857 92.9226C215.3 92.479 215.55 91.8778 215.552 91.2504V77.7869C215.55 77.1596 215.3 76.5583 214.857 76.1147C214.413 75.6711 213.812 75.4212 213.185 75.4196H193.638C193.01 75.4212 192.409 75.6711 191.965 76.1147C191.522 76.5583 191.272 77.1596 191.27 77.7869V91.2504C191.272 91.8778 191.522 92.479 191.965 92.9226C192.409 93.3663 193.01 93.6162 193.638 93.6177L213.185 93.6177Z" fill="#3086A3"/>
<path d="M203.411 80.0377C202.739 80.04 202.095 80.3081 201.62 80.7833C201.145 81.2586 200.877 81.9026 200.875 82.5746C200.887 82.9562 200.986 83.33 201.164 83.6673C201.343 84.0047 201.597 84.2965 201.906 84.5204V87.4972C201.906 87.8964 202.065 88.2792 202.347 88.5615C202.629 88.8437 203.012 89.0023 203.411 89.0023C203.81 89.0023 204.193 88.8437 204.475 88.5615C204.758 88.2792 204.916 87.8964 204.916 87.4972V84.5204C205.225 84.2961 205.478 84.0041 205.657 83.6669C205.836 83.3297 205.935 82.9561 205.947 82.5746C205.945 81.9026 205.677 81.2586 205.202 80.7834C204.727 80.3081 204.083 80.04 203.411 80.0378V80.0377Z" fill="#409CB5"/>
<path d="M123.721 219.371V247.733C123.721 248.4 123.852 249.061 124.108 249.678C124.363 250.294 124.737 250.854 125.209 251.326C125.681 251.798 126.241 252.172 126.857 252.427C127.474 252.683 128.134 252.814 128.802 252.814H278.021C278.688 252.814 279.349 252.683 279.965 252.427C280.582 252.172 281.142 251.798 281.613 251.326C282.085 250.854 282.459 250.294 282.715 249.678C282.97 249.061 283.102 248.4 283.102 247.733V219.371H123.721Z" fill="#409CB5"/>
<path d="M283.102 18.0872C283.102 17.42 282.97 16.7593 282.715 16.1429C282.459 15.5265 282.085 14.9664 281.613 14.4946C281.142 14.0228 280.582 13.6486 279.965 13.3932C279.349 13.1379 278.688 13.0065 278.021 13.0065H128.802C128.134 13.0065 127.474 13.1379 126.857 13.3932C126.241 13.6486 125.681 14.0228 125.209 14.4946C124.737 14.9664 124.363 15.5265 124.108 16.1429C123.852 16.7593 123.721 17.42 123.721 18.0872V28.2485H283.102V18.0872Z" fill="#409CB5"/>
<path d="M203.411 21.542C208.125 21.542 211.947 17.7205 211.947 13.0064C211.947 8.2924 208.125 4.47092 203.411 4.47092C198.697 4.47092 194.875 8.2924 194.875 13.0064C194.875 17.7205 198.697 21.542 203.411 21.542Z" fill="#F9AE2B"/>
<path d="M203.411 244.628C208.125 244.628 211.947 240.806 211.947 236.092C211.947 231.378 208.125 227.557 203.411 227.557C198.697 227.557 194.875 231.378 194.875 236.092C194.875 240.806 198.697 244.628 203.411 244.628Z" fill="#F9AE2B"/>
<path d="M187.977 118.684H142.838C141.722 118.684 140.817 119.589 140.817 120.705V133.83C140.817 134.946 141.722 135.851 142.838 135.851H187.977C189.093 135.851 189.998 134.946 189.998 133.83V120.705C189.998 119.589 189.093 118.684 187.977 118.684Z" fill="#F9AE2B"/>
<path d="M264.39 118.684H208.684C207.567 118.684 206.663 119.589 206.663 120.705V195.555C206.663 196.671 207.567 197.576 208.684 197.576H264.39C265.506 197.576 266.411 196.671 266.411 195.555V120.705C266.411 119.589 265.506 118.684 264.39 118.684Z" fill="#EE781D"/>
<path d="M187.977 149.547H142.838C141.722 149.547 140.817 150.452 140.817 151.568V164.692C140.817 165.809 141.722 166.714 142.838 166.714H187.977C189.093 166.714 189.998 165.809 189.998 164.692V151.568C189.998 150.452 189.093 149.547 187.977 149.547Z" fill="#F9AE2B"/>
<path d="M187.977 180.409H142.838C141.722 180.409 140.817 181.314 140.817 182.431V195.555C140.817 196.671 141.722 197.576 142.838 197.576H187.977C189.093 197.576 189.998 196.671 189.998 195.555V182.431C189.998 181.314 189.093 180.409 187.977 180.409Z" fill="#F9AE2B"/>
<path d="M236.537 174.934H219.32C218.988 174.934 218.661 174.846 218.374 174.68C218.086 174.514 217.847 174.275 217.681 173.987C217.514 173.699 217.427 173.373 217.427 173.04C217.427 172.708 217.514 172.382 217.681 172.094L226.289 157.184L234.897 142.273C235.064 141.986 235.303 141.747 235.59 141.58C235.878 141.414 236.205 141.327 236.537 141.327C236.869 141.327 237.196 141.414 237.484 141.58C237.772 141.747 238.011 141.986 238.177 142.273L246.785 157.184L255.393 172.094C255.56 172.382 255.647 172.708 255.647 173.04C255.647 173.373 255.56 173.699 255.393 173.987C255.227 174.275 254.988 174.514 254.7 174.68C254.413 174.846 254.086 174.934 253.754 174.934H236.537Z" fill="#F9AE2B"/>
<path d="M236.537 149.208H236.537C236.014 149.208 235.59 149.632 235.59 150.155V164.275C235.59 164.798 236.014 165.222 236.537 165.222H236.537C237.06 165.222 237.484 164.798 237.484 164.275V150.155C237.484 149.632 237.06 149.208 236.537 149.208Z" fill="#409CB5"/>
<path d="M238.792 169.647C238.915 168.402 238.006 167.292 236.76 167.169C235.515 167.046 234.405 167.955 234.282 169.201C234.159 170.446 235.068 171.556 236.314 171.679C237.559 171.802 238.669 170.893 238.792 169.647Z" fill="#409CB5"/>
<path d="M89.5748 220.227V204.372C89.575 202.782 89.8902 201.208 90.5021 199.74C91.1141 198.273 92.0107 196.941 93.1403 195.822C94.2698 194.703 95.6098 193.819 97.083 193.221C98.5561 192.623 100.133 192.323 101.723 192.337H103.045C104.635 192.322 106.213 192.622 107.686 193.22C109.159 193.818 110.5 194.702 111.629 195.821C112.759 196.94 113.656 198.272 114.267 199.739C114.879 201.207 115.194 202.781 115.193 204.372V209.713C115.196 210.071 115.339 210.414 115.592 210.668C115.844 210.922 116.186 211.067 116.545 211.071L122.942 211.1C123.121 211.101 123.298 211.066 123.464 210.999C123.629 210.931 123.78 210.831 123.907 210.704C124.033 210.578 124.134 210.428 124.203 210.263C124.272 210.098 124.307 209.921 124.308 209.742V205.255C124.308 202.503 123.766 199.778 122.713 197.235C121.659 194.692 120.114 192.382 118.167 190.437C116.22 188.492 113.908 186.95 111.364 185.899C108.821 184.849 106.095 184.31 103.342 184.314H101.426C98.6744 184.311 95.9493 184.851 93.4065 185.902C90.8637 186.954 88.553 188.496 86.6066 190.441C84.6602 192.386 83.1162 194.695 82.0628 197.237C81.0095 199.779 80.4675 202.504 80.4678 205.255V220.651L89.5748 220.227Z" fill="#EE781D"/>
<path d="M127.334 265.82C128.936 265.816 130.47 265.179 131.603 264.046C132.735 262.914 133.373 261.379 133.377 259.778V225.413C133.373 223.812 132.735 222.277 131.603 221.145C130.47 220.012 128.936 219.374 127.334 219.371H77.4413C75.84 219.374 74.3054 220.012 73.173 221.145C72.0407 222.277 71.4029 223.812 71.3989 225.413V259.778C71.4029 261.379 72.0407 262.914 73.173 264.046C74.3054 265.179 75.84 265.816 77.4413 265.82H127.334Z" fill="#F9AE2B"/>
<path d="M102.388 231.158C100.672 231.164 99.0288 231.848 97.816 233.061C96.6032 234.274 95.9195 235.918 95.9141 237.633C95.9437 238.607 96.1964 239.562 96.6526 240.423C97.1089 241.284 97.7566 242.029 98.5459 242.6V250.198C98.5472 251.216 98.9526 252.192 99.6729 252.911C100.393 253.631 101.37 254.035 102.388 254.035C103.406 254.035 104.382 253.631 105.102 252.911C105.823 252.192 106.228 251.216 106.229 250.198V242.6C107.017 242.027 107.664 241.282 108.12 240.421C108.576 239.561 108.83 238.607 108.861 237.633C108.856 235.918 108.172 234.275 106.959 233.061C105.746 231.848 104.103 231.164 102.388 231.158Z" fill="#EE781D"/>
<path d="M14.1177 254.05H35.8805" stroke="#B9D4DB" stroke-width="3" stroke-miterlimit="10" stroke-linecap="round"/>
<path d="M14.1177 260.322H35.8805" stroke="#B9D4DB" stroke-width="3" stroke-miterlimit="10" stroke-linecap="round"/>
<path d="M14.1177 266.595H35.8805" stroke="#B9D4DB" stroke-width="3" stroke-miterlimit="10" stroke-linecap="round"/>
<path d="M304.342 156.388H326.105" stroke="#B9D4DB" stroke-width="3" stroke-miterlimit="10" stroke-linecap="round"/>
<path d="M304.342 162.661H326.105" stroke="#B9D4DB" stroke-width="3" stroke-miterlimit="10" stroke-linecap="round"/>
<path d="M304.342 168.933H326.105" stroke="#B9D4DB" stroke-width="3" stroke-miterlimit="10" stroke-linecap="round"/>
<path d="M64.1935 180.851C70.306 180.851 75.2612 175.895 75.2612 169.783C75.2612 163.67 70.306 158.715 64.1935 158.715C58.0809 158.715 53.1257 163.67 53.1257 169.783C53.1257 175.895 58.0809 180.851 64.1935 180.851Z" fill="#B9D4DB"/>
<path d="M64.6427 152.982C67.8266 152.982 70.4077 150.401 70.4077 147.217C70.4077 144.033 67.8266 141.452 64.6427 141.452C61.4588 141.452 58.8777 144.033 58.8777 147.217C58.8777 150.401 61.4588 152.982 64.6427 152.982Z" fill="#B9D4DB"/>
<path d="M103.041 155.575C105.797 155.575 108.03 153.341 108.03 150.585C108.03 147.83 105.797 145.596 103.041 145.596C100.285 145.596 98.0513 147.83 98.0513 150.585C98.0513 153.341 100.285 155.575 103.041 155.575Z" fill="#B9D4DB"/>
<path d="M84.8886 149.062C86.7252 149.062 88.214 147.573 88.214 145.737C88.214 143.9 86.7252 142.411 84.8886 142.411C83.0521 142.411 81.5632 143.9 81.5632 145.737C81.5632 147.573 83.0521 149.062 84.8886 149.062Z" fill="#B9D4DB"/>
<path d="M88.753 171.86C93.1557 171.86 96.7248 168.291 96.7248 163.888C96.7248 159.485 93.1557 155.916 88.753 155.916C84.3503 155.916 80.7812 159.485 80.7812 163.888C80.7812 168.291 84.3503 171.86 88.753 171.86Z" fill="#B9D4DB"/>
<path d="M307.251 263.165C310.435 263.165 313.016 260.584 313.016 257.4C313.016 254.216 310.435 251.635 307.251 251.635C304.067 251.635 301.486 254.216 301.486 257.4C301.486 260.584 304.067 263.165 307.251 263.165Z" fill="#B9D4DB"/>
<path d="M307.251 242.035C311.654 242.035 315.223 238.466 315.223 234.063C315.223 229.66 311.654 226.091 307.251 226.091C302.848 226.091 299.279 229.66 299.279 234.063C299.279 238.466 302.848 242.035 307.251 242.035Z" fill="#B9D4DB"/>
<path d="M309.625 71.7189C312.381 71.7189 314.615 69.485 314.615 66.7293C314.615 63.9736 312.381 61.7397 309.625 61.7397C306.87 61.7397 304.636 63.9736 304.636 66.7293C304.636 69.485 306.87 71.7189 309.625 71.7189Z" fill="#B9D4DB"/>
<path d="M303.509 55.6613C307.912 55.6613 311.481 52.0922 311.481 47.6895C311.481 43.2868 307.912 39.7177 303.509 39.7177C299.106 39.7177 295.537 43.2868 295.537 47.6895C295.537 52.0922 299.106 55.6613 303.509 55.6613Z" fill="#B9D4DB"/>
</svg>
